<svg width="1100" height="671" viewBox="0 0 1100 671" fill="none" xmlns="http://www.w3.org/2000/svg">
<rect x="5" y="5" width="1090" height="661" rx="25" fill="#F5F3EF" stroke="#2D2323" stroke-width="10"/>
<mask id="path-2-inside-1_1_21" fill="white">
<path d="M0 30C0 13.4315 13.4315 0 30 0H230V671H30C13.4315 671 0 657.569 0 641V30Z"/>
</mask>
<path d="M0 30C0 13.4315 13.4315 0 30 0H230V671H30C13.4315 671 0 657.569 0 641V30Z" fill="#F5F3EF"/>
<path d="M-10 30C-10 7.90861 7.90861 -10 30 -10H231L229 10H30C18.9543 10 10 18.9543 10 30H-10ZM231 681H30C7.90861 681 -10 663.091 -10 641H10C10 652.046 18.9543 661 30 661H229L231 681ZM30 681C7.90861 681 -10 663.091 -10 641V30C-10 7.90861 7.90861 -10 30 -10V10C18.9543 10 10 18.9543 10 30V641C10 652.046 18.9543 661 30 661V681ZM231 -10V681L229 661V10L231 -10Z" fill="black" mask="url(#path-2-inside-1_1_21)"/>
<path d="M48.6036 176V160.908H50.6936V176H48.6036ZM54.0728 176V164.428H55.6348L55.8108 166.166H55.9648C56.8888 164.758 58.1868 164.164 59.8368 164.164C62.0368 164.164 63.5328 165.176 63.5328 168.014V176H61.5968V168.278C61.5968 166.364 60.5848 165.88 59.1328 165.88C57.4828 165.88 56.0088 167.156 56.0088 169.202V176H54.0728ZM69.1533 176.264C67.3493 176.264 66.7993 175.142 66.7993 173.822V166.056H65.3033V164.428H66.8433L67.1953 161.194H68.7353V164.428H70.9133V166.056H68.7353V173.536C68.7353 174.284 68.9553 174.636 69.6813 174.636H70.9133V175.912C70.4513 176.11 69.7033 176.264 69.1533 176.264ZM77.5765 176.264C74.1225 176.264 72.2965 174.372 72.2965 170.214C72.2965 166.056 74.1225 164.164 77.6645 164.164C80.9205 164.164 82.6145 166.078 82.6145 169.774V170.698H74.2985C74.3425 173.514 75.4425 174.68 77.6205 174.68C79.6005 174.68 80.6345 173.602 80.6785 172.062H82.5705C82.5485 174.548 80.7665 176.264 77.5765 176.264ZM74.3425 169.246H80.6125C80.6125 166.672 79.3805 165.748 77.5985 165.748C75.5525 165.748 74.4965 166.848 74.3425 169.246ZM84.9873 176V164.428H86.5493L86.7253 166.342H86.8793C87.2093 165.264 87.9353 164.164 89.4973 164.164C89.9373 164.164 90.3333 164.252 90.5093 164.34V166.122H89.7833C87.8033 166.122 86.9233 167.574 86.9233 169.554V176H84.9873ZM92.27 176V164.428H93.832L94.008 166.166H94.162C95.086 164.758 96.384 164.164 98.034 164.164C100.234 164.164 101.73 165.176 101.73 168.014V176H99.794V168.278C99.794 166.364 98.782 165.88 97.33 165.88C95.68 165.88 94.206 167.156 94.206 169.202V176H92.27ZM108.692 176.264C105.546 176.264 103.896 174.9 103.896 172.766C103.896 172.634 103.896 172.502 103.918 172.392H105.832C105.81 172.524 105.81 172.59 105.81 172.678C105.832 174.24 107.108 174.68 108.802 174.68C110.254 174.68 111.486 174.13 111.486 172.942C111.486 171.512 109.836 171.248 108.164 170.764C106.272 170.214 104.248 169.664 104.248 167.398C104.248 165.352 106.03 164.186 108.802 164.186C111.75 164.186 113.18 165.616 113.18 167.31C113.18 167.486 113.18 167.662 113.158 167.75H111.266V167.508C111.266 166.65 110.672 165.748 108.692 165.748C107.02 165.748 106.206 166.32 106.206 167.266C106.206 168.432 107.46 168.63 108.934 169.092C110.98 169.708 113.466 170.06 113.466 172.678C113.466 175.164 111.442 176.264 108.692 176.264ZM115.837 176V160.094H117.773V165.88H117.927C118.807 164.714 119.995 164.164 121.601 164.164C123.801 164.164 125.297 165.176 125.297 168.014V176H123.361V168.278C123.361 166.364 122.349 165.88 120.897 165.88C119.247 165.88 117.773 167.068 117.773 169.202V176H115.837ZM128.212 162.25V160.094H130.148V162.25H128.212ZM128.212 176V164.428H130.148V176H128.212ZM133.131 179.806V164.428H134.671L134.869 166.078H135.023C135.815 164.78 137.091 164.164 138.631 164.164C141.513 164.164 143.207 165.99 143.207 170.302C143.207 174.394 141.403 176.264 138.719 176.264C137.245 176.264 135.969 175.758 135.199 174.548H135.067V179.806H133.131ZM138.103 174.57C140.237 174.57 141.205 173.338 141.205 170.456V169.994C141.205 166.98 140.127 165.858 138.169 165.858C135.991 165.858 135.067 167.332 135.067 170.06V170.39C135.067 173.602 136.453 174.57 138.103 174.57ZM149.64 176.264C146.494 176.264 144.844 174.9 144.844 172.766C144.844 172.634 144.844 172.502 144.866 172.392H146.78C146.758 172.524 146.758 172.59 146.758 172.678C146.78 174.24 148.056 174.68 149.75 174.68C151.202 174.68 152.434 174.13 152.434 172.942C152.434 171.512 150.784 171.248 149.112 170.764C147.22 170.214 145.196 169.664 145.196 167.398C145.196 165.352 146.978 164.186 149.75 164.186C152.698 164.186 154.128 165.616 154.128 167.31C154.128 167.486 154.128 167.662 154.106 167.75H152.214V167.508C152.214 166.65 151.62 165.748 149.64 165.748C147.968 165.748 147.154 166.32 147.154 167.266C147.154 168.432 148.408 168.63 149.882 169.092C151.928 169.708 154.414 170.06 154.414 172.678C154.414 175.164 152.39 176.264 149.64 176.264Z" fill="#514545"/>
<path d="M48.892 236V220.908H56.834C59.936 220.908 61.432 222.734 61.432 225.33C61.432 227.398 60.42 228.96 58.792 229.62L61.96 236H59.672L56.724 229.994H50.982V236H48.892ZM50.982 228.212H56.636C58.308 228.212 59.32 227.112 59.32 225.33C59.32 223.68 58.396 222.712 56.636 222.712H50.982V228.212ZM68.8855 236.264C65.4315 236.264 63.6055 234.372 63.6055 230.214C63.6055 226.056 65.4315 224.164 68.9735 224.164C72.2295 224.164 73.9235 226.078 73.9235 229.774V230.698H65.6075C65.6515 233.514 66.7515 234.68 68.9295 234.68C70.9095 234.68 71.9435 233.602 71.9875 232.062H73.8795C73.8575 234.548 72.0755 236.264 68.8855 236.264ZM65.6515 229.246H71.9215C71.9215 226.672 70.6895 225.748 68.9075 225.748C66.8615 225.748 65.8055 226.848 65.6515 229.246ZM78.5183 236L75.0203 224.428H77.0223L78.7823 230.786C79.0463 231.732 79.3323 232.986 79.4423 233.47H79.5743C79.7503 232.634 80.0363 231.314 80.1683 230.764L81.7523 224.428H83.8423L85.4483 230.764C85.6243 231.512 85.9103 232.744 86.0423 233.47H86.1743C86.3283 232.766 86.6363 231.578 86.8563 230.808L88.5943 224.428H90.4423L86.9663 236H84.9863L83.4903 230.016C83.2923 229.202 82.9843 227.75 82.8083 226.87H82.6763C82.5663 227.53 82.3023 228.806 81.9943 230.016L80.4983 236H78.5183ZM94.8619 236.264C93.1899 236.264 91.1879 235.582 91.1879 233.052C91.1879 229.884 94.3999 229.136 98.8439 229.136V227.816C98.8439 226.562 98.3159 225.748 96.2479 225.748C94.2239 225.748 93.6299 226.606 93.6299 227.53V227.86H91.7599C91.7379 227.728 91.7379 227.574 91.7379 227.376C91.7379 225.264 93.6079 224.164 96.3799 224.164C99.2619 224.164 100.78 225.44 100.78 227.618V233.888C100.78 234.438 101.066 234.636 101.462 234.636H102.32V235.912C101.902 236.11 101.396 236.242 100.78 236.242C99.6139 236.242 99.1299 235.494 98.9979 234.46H98.8439C98.0079 235.582 96.6219 236.264 94.8619 236.264ZM95.3459 234.636C97.1939 234.636 98.8439 233.404 98.8439 231.556V230.588C95.2799 230.588 93.2119 231.072 93.2119 232.92C93.2119 234.086 94.0699 234.636 95.3459 234.636ZM103.924 236V224.428H105.486L105.662 226.342H105.816C106.146 225.264 106.872 224.164 108.434 224.164C108.874 224.164 109.27 224.252 109.446 224.34V226.122H108.72C106.74 226.122 105.86 227.574 105.86 229.554V236H103.924ZM114.93 236.264C112.048 236.264 110.332 234.438 110.332 230.126C110.332 226.034 112.136 224.164 114.842 224.164C116.382 224.164 117.592 224.67 118.362 225.88H118.494V220.094H120.43V236H118.868L118.692 234.35H118.538C117.724 235.648 116.426 236.264 114.93 236.264ZM115.392 234.57C117.592 234.57 118.494 233.096 118.494 230.39V230.038C118.494 226.826 117.108 225.858 115.458 225.858C113.324 225.858 112.356 227.09 112.356 229.994V230.456C112.356 233.448 113.434 234.57 115.392 234.57ZM127.5 236.264C124.354 236.264 122.704 234.9 122.704 232.766C122.704 232.634 122.704 232.502 122.726 232.392H124.64C124.618 232.524 124.618 232.59 124.618 232.678C124.64 234.24 125.916 234.68 127.61 234.68C129.062 234.68 130.294 234.13 130.294 232.942C130.294 231.512 128.644 231.248 126.972 230.764C125.08 230.214 123.056 229.664 123.056 227.398C123.056 225.352 124.838 224.186 127.61 224.186C130.558 224.186 131.988 225.616 131.988 227.31C131.988 227.486 131.988 227.662 131.966 227.75H130.074V227.508C130.074 226.65 129.48 225.748 127.5 225.748C125.828 225.748 125.014 226.32 125.014 227.266C125.014 228.432 126.268 228.63 127.742 229.092C129.788 229.708 132.274 230.06 132.274 232.678C132.274 235.164 130.25 236.264 127.5 236.264Z" fill="#514545"/>
<path d="M53.436 296.264C50.136 296.264 47.144 295.054 47.144 291.732C47.144 291.578 47.166 291.446 47.166 291.292H49.278C49.278 291.402 49.256 291.622 49.256 291.754C49.256 293.536 50.994 294.46 53.37 294.46C55.152 294.46 57.506 293.976 57.506 292.04C57.506 288.08 47.518 290.126 47.518 284.67C47.518 282.14 49.608 280.644 53.502 280.644C56.648 280.644 59.178 281.92 59.178 284.89V285.154H57.11V284.824C57.11 283.35 55.614 282.448 53.568 282.448C50.906 282.448 49.63 283.284 49.63 284.494C49.63 288.146 59.618 286.254 59.618 291.732C59.618 294.944 57.044 296.264 53.436 296.264ZM67.0507 296.264C63.5307 296.264 61.6387 294.372 61.6387 290.214C61.6387 286.056 63.5307 284.164 67.0507 284.164C70.5707 284.164 72.4407 286.056 72.4407 290.214C72.4407 294.372 70.5707 296.264 67.0507 296.264ZM67.0507 294.636C69.2947 294.636 70.4387 293.36 70.4387 290.456V289.972C70.4387 287.09 69.2947 285.792 67.0507 285.792C64.7847 285.792 63.6627 287.09 63.6627 289.972V290.456C63.6627 293.36 64.7847 294.636 67.0507 294.636ZM79.2236 296.264C75.8796 296.264 74.1196 294.328 74.1196 290.214C74.1196 286.144 75.8796 284.164 79.2896 284.164C82.4576 284.164 83.9096 285.858 83.9096 288.718H81.9516C81.9516 286.694 81.1816 285.77 79.2456 285.77C77.3316 285.77 76.1216 286.958 76.1216 289.994V290.456C76.1216 293.36 77.1996 294.658 79.2676 294.658C81.2256 294.658 82.0176 293.558 82.0176 291.71H83.9096C83.9096 294.328 82.4576 296.264 79.2236 296.264ZM86.2098 282.25V280.094H88.1458V282.25H86.2098ZM86.2098 296V284.428H88.1458V296H86.2098ZM94.0332 296.264C92.3612 296.264 90.3592 295.582 90.3592 293.052C90.3592 289.884 93.5712 289.136 98.0152 289.136V287.816C98.0152 286.562 97.4872 285.748 95.4192 285.748C93.3952 285.748 92.8012 286.606 92.8012 287.53V287.86H90.9312C90.9092 287.728 90.9092 287.574 90.9092 287.376C90.9092 285.264 92.7792 284.164 95.5512 284.164C98.4332 284.164 99.9512 285.44 99.9512 287.618V293.888C99.9512 294.438 100.237 294.636 100.633 294.636H101.491V295.912C101.073 296.11 100.567 296.242 99.9512 296.242C98.7852 296.242 98.3012 295.494 98.1692 294.46H98.0152C97.1792 295.582 95.7932 296.264 94.0332 296.264ZM94.5172 294.636C96.3652 294.636 98.0152 293.404 98.0152 291.556V290.588C94.4512 290.588 92.3832 291.072 92.3832 292.92C92.3832 294.086 93.2412 294.636 94.5172 294.636ZM103.095 296V280.094H105.031V296H103.095ZM112.063 296.264C108.917 296.264 107.267 294.9 107.267 292.766C107.267 292.634 107.267 292.502 107.289 292.392H109.203C109.181 292.524 109.181 292.59 109.181 292.678C109.203 294.24 110.479 294.68 112.173 294.68C113.625 294.68 114.857 294.13 114.857 292.942C114.857 291.512 113.207 291.248 111.535 290.764C109.643 290.214 107.619 289.664 107.619 287.398C107.619 285.352 109.401 284.186 112.173 284.186C115.121 284.186 116.551 285.616 116.551 287.31C116.551 287.486 116.551 287.662 116.529 287.75H114.637V287.508C114.637 286.65 114.043 285.748 112.063 285.748C110.391 285.748 109.577 286.32 109.577 287.266C109.577 288.432 110.831 288.63 112.305 289.092C114.351 289.708 116.837 290.06 116.837 292.678C116.837 295.164 114.813 296.264 112.063 296.264Z" fill="#514545"/>
<path d="M47.154 356L53.116 340.908H55.866L61.85 356H59.584L58.11 352.26H50.762L49.31 356H47.154ZM51.444 350.478H57.406L55.58 345.748C55.382 345.22 54.854 343.724 54.502 342.712H54.37C54.062 343.592 53.556 345.022 53.292 345.748L51.444 350.478ZM63.4921 359.806V344.428H65.0321L65.2301 346.078H65.3841C66.1761 344.78 67.4521 344.164 68.9921 344.164C71.8741 344.164 73.5681 345.99 73.5681 350.302C73.5681 354.394 71.7641 356.264 69.0801 356.264C67.6061 356.264 66.3301 355.758 65.5601 354.548H65.4281V359.806H63.4921ZM68.4641 354.57C70.5981 354.57 71.5661 353.338 71.5661 350.456V349.994C71.5661 346.98 70.4881 345.858 68.5301 345.858C66.3521 345.858 65.4281 347.332 65.4281 350.06V350.39C65.4281 353.602 66.8141 354.57 68.4641 354.57ZM75.9525 359.806V344.428H77.4925L77.6905 346.078H77.8445C78.6365 344.78 79.9125 344.164 81.4525 344.164C84.3345 344.164 86.0285 345.99 86.0285 350.302C86.0285 354.394 84.2245 356.264 81.5405 356.264C80.0665 356.264 78.7905 355.758 78.0205 354.548H77.8885V359.806H75.9525ZM80.9245 354.57C83.0585 354.57 84.0265 353.338 84.0265 350.456V349.994C84.0265 346.98 82.9485 345.858 80.9905 345.858C78.8125 345.858 77.8885 347.332 77.8885 350.06V350.39C77.8885 353.602 79.2745 354.57 80.9245 354.57ZM92.4609 356.264C89.3149 356.264 87.6649 354.9 87.6649 352.766C87.6649 352.634 87.6649 352.502 87.6869 352.392H89.6009C89.5789 352.524 89.5789 352.59 89.5789 352.678C89.6009 354.24 90.8769 354.68 92.5709 354.68C94.0229 354.68 95.2549 354.13 95.2549 352.942C95.2549 351.512 93.6049 351.248 91.9329 350.764C90.0409 350.214 88.0169 349.664 88.0169 347.398C88.0169 345.352 89.7989 344.186 92.5709 344.186C95.5189 344.186 96.9489 345.616 96.9489 347.31C96.9489 347.486 96.9489 347.662 96.9269 347.75H95.0349V347.508C95.0349 346.65 94.4409 345.748 92.4609 345.748C90.7889 345.748 89.9749 346.32 89.9749 347.266C89.9749 348.432 91.2289 348.63 92.7029 349.092C94.7489 349.708 97.2349 350.06 97.2349 352.678C97.2349 355.164 95.2109 356.264 92.4609 356.264Z" fill="#514545"/>
<path d="M51.466 416L47.264 400.908H49.508L52.192 411.094C52.324 411.6 52.61 412.832 52.742 413.58H52.896C53.05 412.81 53.27 411.578 53.38 411.094L55.888 400.908H58.594L61.102 411.094C61.212 411.6 61.498 412.832 61.63 413.58H61.784C61.938 412.832 62.202 411.644 62.356 411.094L65.062 400.908H67.042L62.84 416H60.332L57.714 405.748C57.56 405.11 57.34 403.922 57.23 403.196H57.098C56.988 403.944 56.768 405.176 56.614 405.748L54.062 416H51.466ZM72.5839 416.264C69.0639 416.264 67.1719 414.372 67.1719 410.214C67.1719 406.056 69.0639 404.164 72.5839 404.164C76.1039 404.164 77.9739 406.056 77.9739 410.214C77.9739 414.372 76.1039 416.264 72.5839 416.264ZM72.5839 414.636C74.8279 414.636 75.9719 413.36 75.9719 410.456V409.972C75.9719 407.09 74.8279 405.792 72.5839 405.792C70.3179 405.792 69.1959 407.09 69.1959 409.972V410.456C69.1959 413.36 70.3179 414.636 72.5839 414.636ZM80.3568 416V404.428H81.9188L82.0948 406.342H82.2488C82.5788 405.264 83.3048 404.164 84.8668 404.164C85.3068 404.164 85.7028 404.252 85.8788 404.34V406.122H85.1528C83.1728 406.122 82.2928 407.574 82.2928 409.554V416H80.3568ZM87.6395 416V400.094H89.5755V410.038L94.4815 404.428H96.7695L92.8095 408.916L96.9895 416H94.7675L91.5555 410.346L89.5755 412.348V416H87.6395ZM102.494 416.264C99.3476 416.264 97.6976 414.9 97.6976 412.766C97.6976 412.634 97.6976 412.502 97.7196 412.392H99.6336C99.6116 412.524 99.6116 412.59 99.6116 412.678C99.6336 414.24 100.91 414.68 102.604 414.68C104.056 414.68 105.288 414.13 105.288 412.942C105.288 411.512 103.638 411.248 101.966 410.764C100.074 410.214 98.0496 409.664 98.0496 407.398C98.0496 405.352 99.8316 404.186 102.604 404.186C105.552 404.186 106.982 405.616 106.982 407.31C106.982 407.486 106.982 407.662 106.96 407.75H105.068V407.508C105.068 406.65 104.474 405.748 102.494 405.748C100.822 405.748 100.008 406.32 100.008 407.266C100.008 408.432 101.262 408.63 102.736 409.092C104.782 409.708 107.268 410.06 107.268 412.678C107.268 415.164 105.244 416.264 102.494 416.264ZM109.638 416V400.094H111.574V405.88H111.728C112.608 404.714 113.796 404.164 115.402 404.164C117.602 404.164 119.098 405.176 119.098 408.014V416H117.162V408.278C117.162 406.364 116.15 405.88 114.698 405.88C113.048 405.88 111.574 407.068 111.574 409.202V416H109.638ZM126.765 416.264C123.245 416.264 121.353 414.372 121.353 410.214C121.353 406.056 123.245 404.164 126.765 404.164C130.285 404.164 132.155 406.056 132.155 410.214C132.155 414.372 130.285 416.264 126.765 416.264ZM126.765 414.636C129.009 414.636 130.153 413.36 130.153 410.456V409.972C130.153 407.09 129.009 405.792 126.765 405.792C124.499 405.792 123.377 407.09 123.377 409.972V410.456C123.377 413.36 124.499 414.636 126.765 414.636ZM134.538 419.806V404.428H136.078L136.276 406.078H136.43C137.222 404.78 138.498 404.164 140.038 404.164C142.92 404.164 144.614 405.99 144.614 410.302C144.614 414.394 142.81 416.264 140.126 416.264C138.652 416.264 137.376 415.758 136.606 414.548H136.474V419.806H134.538ZM139.51 414.57C141.644 414.57 142.612 413.338 142.612 410.456V409.994C142.612 406.98 141.534 405.858 139.576 405.858C137.398 405.858 136.474 407.332 136.474 410.06V410.39C136.474 413.602 137.86 414.57 139.51 414.57ZM151.046 416.264C147.9 416.264 146.25 414.9 146.25 412.766C146.25 412.634 146.25 412.502 146.272 412.392H148.186C148.164 412.524 148.164 412.59 148.164 412.678C148.186 414.24 149.462 414.68 151.156 414.68C152.608 414.68 153.84 414.13 153.84 412.942C153.84 411.512 152.19 411.248 150.518 410.764C148.626 410.214 146.602 409.664 146.602 407.398C146.602 405.352 148.384 404.186 151.156 404.186C154.104 404.186 155.534 405.616 155.534 407.31C155.534 407.486 155.534 407.662 155.512 407.75H153.62V407.508C153.62 406.65 153.026 405.748 151.046 405.748C149.374 405.748 148.56 406.32 148.56 407.266C148.56 408.432 149.814 408.63 151.288 409.092C153.334 409.708 155.82 410.06 155.82 412.678C155.82 415.164 153.796 416.264 151.046 416.264Z" fill="#514545"/>
<rect x="34" y="89" width="169" height="40" rx="10" fill="#382D2D"/>
<path d="M50.5617 116V100.908H52.6517V107.376H60.8577V100.908H62.9697V116H60.8577V109.202H52.6517V116H50.5617ZM71.1169 116.264C67.5969 116.264 65.7049 114.372 65.7049 110.214C65.7049 106.056 67.5969 104.164 71.1169 104.164C74.6369 104.164 76.5069 106.056 76.5069 110.214C76.5069 114.372 74.6369 116.264 71.1169 116.264ZM71.1169 114.636C73.3609 114.636 74.5049 113.36 74.5049 110.456V109.972C74.5049 107.09 73.3609 105.792 71.1169 105.792C68.8509 105.792 67.7289 107.09 67.7289 109.972V110.456C67.7289 113.36 68.8509 114.636 71.1169 114.636ZM78.8898 116V104.428H80.4518L80.6278 106.166H80.7818C81.6618 104.758 82.8718 104.164 84.4118 104.164C85.8858 104.164 87.0298 104.714 87.5578 106.166H87.6898C88.5258 104.802 89.8018 104.164 91.3418 104.164C93.4098 104.164 94.8838 105.154 94.8838 107.926V116H92.9478V108.234C92.9478 106.342 91.9798 105.88 90.7258 105.88C89.1858 105.88 87.8658 107.156 87.8658 109.202V116H85.9298V108.234C85.9298 106.342 84.9838 105.88 83.7518 105.88C82.1678 105.88 80.8258 107.156 80.8258 109.202V116H78.8898ZM102.416 116.264C98.9615 116.264 97.1355 114.372 97.1355 110.214C97.1355 106.056 98.9615 104.164 102.504 104.164C105.76 104.164 107.454 106.078 107.454 109.774V110.698H99.1375C99.1815 113.514 100.282 114.68 102.46 114.68C104.44 114.68 105.474 113.602 105.518 112.062H107.41C107.388 114.548 105.606 116.264 102.416 116.264ZM99.1815 109.246H105.452C105.452 106.672 104.22 105.748 102.438 105.748C100.392 105.748 99.3355 106.848 99.1815 109.246Z" fill="white"/>
<path d="M54.436 476.264C51.136 476.264 48.144 475.054 48.144 471.732C48.144 471.578 48.166 471.446 48.166 471.292H50.278C50.278 471.402 50.256 471.622 50.256 471.754C50.256 473.536 51.994 474.46 54.37 474.46C56.152 474.46 58.506 473.976 58.506 472.04C58.506 468.08 48.518 470.126 48.518 464.67C48.518 462.14 50.608 460.644 54.502 460.644C57.648 460.644 60.178 461.92 60.178 464.89V465.154H58.11V464.824C58.11 463.35 56.614 462.448 54.568 462.448C51.906 462.448 50.63 463.284 50.63 464.494C50.63 468.146 60.618 466.254 60.618 471.732C60.618 474.944 58.044 476.264 54.436 476.264ZM67.9187 476.264C64.4647 476.264 62.6387 474.372 62.6387 470.214C62.6387 466.056 64.4647 464.164 68.0067 464.164C71.2627 464.164 72.9567 466.078 72.9567 469.774V470.698H64.6407C64.6847 473.514 65.7847 474.68 67.9627 474.68C69.9427 474.68 70.9767 473.602 71.0207 472.062H72.9127C72.8907 474.548 71.1087 476.264 67.9187 476.264ZM64.6847 469.246H70.9547C70.9547 466.672 69.7227 465.748 67.9407 465.748C65.8947 465.748 64.8387 466.848 64.6847 469.246ZM78.0355 476.264C76.2315 476.264 75.6815 475.142 75.6815 473.822V466.056H74.1855V464.428H75.7255L76.0775 461.194H77.6175V464.428H79.7955V466.056H77.6175V473.536C77.6175 474.284 77.8375 474.636 78.5635 474.636H79.7955V475.912C79.3335 476.11 78.5855 476.264 78.0355 476.264ZM84.5447 476.264C82.7407 476.264 82.1907 475.142 82.1907 473.822V466.056H80.6947V464.428H82.2347L82.5867 461.194H84.1267V464.428H86.3047V466.056H84.1267V473.536C84.1267 474.284 84.3467 474.636 85.0727 474.636H86.3047V475.912C85.8427 476.11 85.0947 476.264 84.5447 476.264ZM88.348 462.25V460.094H90.284V462.25H88.348ZM88.348 476V464.428H90.284V476H88.348ZM93.2674 476V464.428H94.8294L95.0054 466.166H95.1594C96.0834 464.758 97.3814 464.164 99.0314 464.164C101.231 464.164 102.727 465.176 102.727 468.014V476H100.791V468.278C100.791 466.364 99.7794 465.88 98.3274 465.88C96.6774 465.88 95.2034 467.156 95.2034 469.202V476H93.2674ZM107.6 480.004C105.928 480.004 104.52 478.926 104.52 477.166C104.52 475.89 105.334 475.054 106.346 474.614C105.62 474.284 105.18 473.602 105.18 472.832C105.18 471.798 106.038 471.05 107.116 470.83C106.104 470.17 105.51 469.136 105.51 467.904C105.51 465.704 107.094 464.164 110.218 464.164C111.164 464.164 111.978 464.296 112.638 464.582C113.672 464.12 114.156 463.328 114.266 462.558H116.18C116.158 463.922 115.278 465.022 113.848 465.286C114.574 465.99 114.948 466.892 114.948 467.904C114.948 470.104 113.408 471.666 110.284 471.666H108.48C107.688 471.666 107.138 471.974 107.138 472.634C107.138 473.228 107.688 473.624 108.48 473.624H113.188C114.904 473.624 116.092 474.9 116.092 476.638C116.092 478.53 114.552 480.004 112.33 480.004H107.6ZM110.24 470.214C112.088 470.214 113.012 469.334 113.012 467.904C113.012 466.496 112.088 465.616 110.24 465.616C108.37 465.616 107.446 466.496 107.446 467.904C107.446 469.29 108.37 470.214 110.24 470.214ZM108.15 478.53H112.308C113.32 478.53 114.134 477.826 114.134 476.924C114.134 475.934 113.452 475.296 112.594 475.296H108.15C107.226 475.296 106.478 476 106.478 476.924C106.478 477.892 107.204 478.53 108.15 478.53ZM121.892 476.264C118.746 476.264 117.096 474.9 117.096 472.766C117.096 472.634 117.096 472.502 117.118 472.392H119.032C119.01 472.524 119.01 472.59 119.01 472.678C119.032 474.24 120.308 474.68 122.002 474.68C123.454 474.68 124.686 474.13 124.686 472.942C124.686 471.512 123.036 471.248 121.364 470.764C119.472 470.214 117.448 469.664 117.448 467.398C117.448 465.352 119.23 464.186 122.002 464.186C124.95 464.186 126.38 465.616 126.38 467.31C126.38 467.486 126.38 467.662 126.358 467.75H124.466V467.508C124.466 466.65 123.872 465.748 121.892 465.748C120.22 465.748 119.406 466.32 119.406 467.266C119.406 468.432 120.66 468.63 122.134 469.092C124.18 469.708 126.666 470.06 126.666 472.678C126.666 475.164 124.642 476.264 121.892 476.264Z" fill="#514545"/>
<path d="M297.444 129H293.376V104.88H297.444V114.888H309.036V104.88H313.104V129H309.036V118.488H297.444V129ZM321.589 108.984H317.557V104.88H321.589V108.984ZM321.589 129H317.557V111.468H321.589V129ZM337.59 129H333.522V104.88H343.386C348.462 104.88 352.422 107.472 352.422 113.232C352.422 118.74 348.498 121.368 343.386 121.368H337.59V129ZM342.99 108.48H337.59V117.768H342.99C345.762 117.768 348.21 116.724 348.21 113.232C348.21 109.488 345.762 108.48 342.99 108.48ZM358.922 129H354.89V111.468H358.922V116.436C359.57 113.628 361.334 111.108 364.466 111.108C366.662 111.108 368.282 112.548 368.282 115.14C368.282 116.832 367.814 118.092 367.49 118.632H363.35C363.926 118.056 364.466 116.904 364.466 115.896C364.466 114.924 363.998 114.132 362.81 114.132C360.794 114.132 358.922 116.436 358.922 119.352V129ZM374.453 129.36C371.573 129.36 369.845 127.74 369.845 125.22C369.845 122.736 371.573 121.224 374.417 120.108L380.285 117.624C380.141 115.86 379.349 114.672 376.937 114.672C374.597 114.672 372.761 116.04 371.753 117.876L369.341 114.996C370.709 113.124 373.445 111.108 377.333 111.108C381.689 111.108 384.137 113.592 384.137 117.912V124.5C384.137 125.292 384.425 125.544 385.073 125.544H386.189V129H383.705C381.833 129 380.357 128.136 380.357 125.616V124.32C379.817 126.624 378.125 129.36 374.453 129.36ZM373.733 124.608C373.733 125.616 374.417 126.228 375.893 126.228C378.557 126.228 380.357 124.644 380.357 122.268V120.396L375.857 122.412C374.345 123.096 373.733 123.708 373.733 124.608ZM393.268 129H389.236V104.88H393.268V115.932L393.124 119.316L396.004 116.148L400.792 111.468H405.724L398.632 118.38L405.724 129H401.008L395.896 120.792L393.268 123.384V129ZM411.549 129H407.517V111.468H411.549V116.436C412.197 113.628 413.961 111.108 417.093 111.108C419.289 111.108 420.909 112.548 420.909 115.14C420.909 116.832 420.441 118.092 420.117 118.632H415.977C416.553 118.056 417.093 116.904 417.093 115.896C417.093 114.924 416.625 114.132 415.437 114.132C413.421 114.132 411.549 116.436 411.549 119.352V129ZM427.509 108.984H423.477V104.88H427.509V108.984ZM427.509 129H423.477V111.468H427.509V129ZM438.073 129.396C434.761 129.396 432.853 127.308 432.853 124.212V114.6H430.117V111.468H432.853V109.344L436.885 106.788V111.468H442.249V114.6H436.885V123.24C436.885 125.148 437.785 125.616 438.973 125.616C440.341 125.616 441.349 124.5 441.853 123.492L443.113 127.092C442.357 128.208 440.629 129.396 438.073 129.396ZM449.831 108.984H445.799V104.88H449.831V108.984ZM449.831 129H445.799V111.468H449.831V129Z" fill="#2D2323"/>
<rect x="270" y="186" width="240" height="125" rx="10" fill="white"/>
<path d="M312.58 279.24C308.36 279.24 306.02 276.96 306.02 272.14C306.02 267.38 308.46 265.04 312.6 265.04C316.1 265.04 318.62 266.74 318.62 270.22H316.7C316.7 267.84 315.08 266.68 312.6 266.68C309.7 266.68 308 268.3 308 271.98V272.4C308 276.04 309.68 277.6 312.6 277.6C315.14 277.6 316.76 276.46 316.76 274.06H318.62C318.62 277.6 316.06 279.24 312.58 279.24ZM325.111 279.24C321.971 279.24 320.311 277.52 320.311 273.74C320.311 269.96 321.971 268.24 325.191 268.24C328.151 268.24 329.691 269.98 329.691 273.34V274.18H322.131C322.171 276.74 323.171 277.8 325.151 277.8C326.951 277.8 327.891 276.82 327.931 275.42H329.651C329.631 277.68 328.011 279.24 325.111 279.24ZM322.171 272.86H327.871C327.871 270.52 326.751 269.68 325.131 269.68C323.271 269.68 322.311 270.68 322.171 272.86ZM331.848 279V268.48H333.268L333.428 270.22H333.568C333.868 269.24 334.528 268.24 335.948 268.24C336.348 268.24 336.708 268.32 336.868 268.4V270.02H336.208C334.408 270.02 333.608 271.34 333.608 273.14V279H331.848ZM340.928 279.24C339.288 279.24 338.788 278.22 338.788 277.02V269.96H337.428V268.48H338.828L339.148 265.54H340.548V268.48H342.528V269.96H340.548V276.76C340.548 277.44 340.748 277.76 341.408 277.76H342.528V278.92C342.108 279.1 341.428 279.24 340.928 279.24ZM344.386 266.5V264.54H346.146V266.5H344.386ZM344.386 279V268.48H346.146V279H344.386ZM349.278 279V269.96H347.718V268.48H349.278V266.8C349.278 265.6 349.738 264.38 351.538 264.38C352.078 264.38 352.658 264.48 353.058 264.6V265.86H351.998C351.338 265.86 351.038 266.2 351.038 266.82V268.48H353.058V269.96H351.038V279H349.278ZM354.458 266.5V264.54H356.218V266.5H354.458ZM354.458 279V268.48H356.218V279H354.458ZM362.955 279.24C359.915 279.24 358.315 277.48 358.315 273.74C358.315 270.04 359.915 268.24 363.015 268.24C365.895 268.24 367.215 269.78 367.215 272.38H365.435C365.435 270.54 364.735 269.7 362.975 269.7C361.235 269.7 360.135 270.78 360.135 273.54V273.96C360.135 276.6 361.115 277.78 362.995 277.78C364.775 277.78 365.495 276.78 365.495 275.1H367.215C367.215 277.48 365.895 279.24 362.955 279.24ZM371.946 279.24C370.426 279.24 368.606 278.62 368.606 276.32C368.606 273.44 371.526 272.76 375.566 272.76V271.56C375.566 270.42 375.086 269.68 373.206 269.68C371.366 269.68 370.826 270.46 370.826 271.3V271.6H369.126C369.106 271.48 369.106 271.34 369.106 271.16C369.106 269.24 370.806 268.24 373.326 268.24C375.946 268.24 377.326 269.4 377.326 271.38V277.08C377.326 277.58 377.586 277.76 377.946 277.76H378.726V278.92C378.346 279.1 377.886 279.22 377.326 279.22C376.266 279.22 375.826 278.54 375.706 277.6H375.566C374.806 278.62 373.546 279.24 371.946 279.24ZM372.386 277.76C374.066 277.76 375.566 276.64 375.566 274.96V274.08C372.326 274.08 370.446 274.52 370.446 276.2C370.446 277.26 371.226 277.76 372.386 277.76ZM382.645 279.24C381.005 279.24 380.505 278.22 380.505 277.02V269.96H379.145V268.48H380.545L380.865 265.54H382.265V268.48H384.245V269.96H382.265V276.76C382.265 277.44 382.465 277.76 383.125 277.76H384.245V278.92C383.825 279.1 383.145 279.24 382.645 279.24ZM390.302 279.24C387.162 279.24 385.502 277.52 385.502 273.74C385.502 269.96 387.162 268.24 390.382 268.24C393.342 268.24 394.882 269.98 394.882 273.34V274.18H387.322C387.362 276.74 388.362 277.8 390.342 277.8C392.142 277.8 393.082 276.82 393.122 275.42H394.842C394.822 277.68 393.202 279.24 390.302 279.24ZM387.362 272.86H393.062C393.062 270.52 391.942 269.68 390.322 269.68C388.462 269.68 387.502 270.68 387.362 272.86ZM400.719 279.24C397.859 279.24 396.359 278 396.359 276.06C396.359 275.94 396.359 275.82 396.379 275.72H398.119C398.099 275.84 398.099 275.9 398.099 275.98C398.119 277.4 399.279 277.8 400.819 277.8C402.139 277.8 403.259 277.3 403.259 276.22C403.259 274.92 401.759 274.68 400.239 274.24C398.519 273.74 396.679 273.24 396.679 271.18C396.679 269.32 398.299 268.26 400.819 268.26C403.499 268.26 404.799 269.56 404.799 271.1C404.799 271.26 404.799 271.42 404.779 271.5H403.059V271.28C403.059 270.5 402.519 269.68 400.719 269.68C399.199 269.68 398.459 270.2 398.459 271.06C398.459 272.12 399.599 272.3 400.939 272.72C402.799 273.28 405.059 273.6 405.059 275.98C405.059 278.24 403.219 279.24 400.719 279.24ZM411.714 279V265.28H422.274V266.92H413.614V271.16H421.394V272.8H413.614V277.36H422.394V279H411.714ZM427.53 279.24C426.01 279.24 424.19 278.62 424.19 276.32C424.19 273.44 427.11 272.76 431.15 272.76V271.56C431.15 270.42 430.67 269.68 428.79 269.68C426.95 269.68 426.41 270.46 426.41 271.3V271.6H424.71C424.69 271.48 424.69 271.34 424.69 271.16C424.69 269.24 426.39 268.24 428.91 268.24C431.53 268.24 432.91 269.4 432.91 271.38V277.08C432.91 277.58 433.17 277.76 433.53 277.76H434.31V278.92C433.93 279.1 433.47 279.22 432.91 279.22C431.85 279.22 431.41 278.54 431.29 277.6H431.15C430.39 278.62 429.13 279.24 427.53 279.24ZM427.97 277.76C429.65 277.76 431.15 276.64 431.15 274.96V274.08C427.91 274.08 426.03 274.52 426.03 276.2C426.03 277.26 426.81 277.76 427.97 277.76ZM435.768 279V268.48H437.188L437.348 270.22H437.488C437.788 269.24 438.448 268.24 439.868 268.24C440.268 268.24 440.628 268.32 440.788 268.4V270.02H440.128C438.328 270.02 437.528 271.34 437.528 273.14V279H435.768ZM442.389 279V268.48H443.809L443.969 270.06H444.109C444.949 268.78 446.129 268.24 447.629 268.24C449.629 268.24 450.989 269.16 450.989 271.74V279H449.229V271.98C449.229 270.24 448.309 269.8 446.989 269.8C445.489 269.8 444.149 270.96 444.149 272.82V279H442.389ZM457.838 279.24C454.698 279.24 453.038 277.52 453.038 273.74C453.038 269.96 454.698 268.24 457.918 268.24C460.878 268.24 462.418 269.98 462.418 273.34V274.18H454.858C454.898 276.74 455.898 277.8 457.878 277.8C459.678 277.8 460.618 276.82 460.658 275.42H462.378C462.358 277.68 460.738 279.24 457.838 279.24ZM454.898 272.86H460.598C460.598 270.52 459.478 269.68 457.858 269.68C455.998 269.68 455.038 270.68 454.898 272.86ZM468.155 279.24C465.535 279.24 463.975 277.58 463.975 273.66C463.975 269.94 465.615 268.24 468.075 268.24C469.475 268.24 470.575 268.7 471.275 269.8H471.395V264.54H473.155V279H471.735L471.575 277.5H471.435C470.695 278.68 469.515 279.24 468.155 279.24ZM468.575 277.7C470.575 277.7 471.395 276.36 471.395 273.9V273.58C471.395 270.66 470.135 269.78 468.635 269.78C466.695 269.78 465.815 270.9 465.815 273.54V273.96C465.815 276.68 466.795 277.7 468.575 277.7Z" fill="#382D2D"/>
<path d="M378.808 245.324C372.076 245.324 368.656 239.996 368.656 232.904C368.656 225.848 372.076 220.52 378.808 220.52C385.54 220.52 388.924 225.848 388.924 232.904C388.924 239.996 385.54 245.324 378.808 245.324ZM378.808 241.436C383.128 241.436 384.676 237.98 384.676 232.904C384.676 227.864 383.128 224.372 378.808 224.372C374.524 224.372 372.94 227.864 372.94 232.904C372.94 237.98 374.524 241.436 378.808 241.436ZM401.151 245.36C395.823 245.36 392.547 242.372 391.647 238.772L394.887 235.892C395.607 239.312 397.263 241.508 401.331 241.508C404.139 241.508 405.723 240.212 405.723 238.088C405.723 235.604 403.707 234.596 400.719 234.596H396.903V231.248H400.863C403.455 231.248 404.895 230.204 404.895 228.008C404.895 225.992 403.635 224.408 400.935 224.408C398.019 224.408 395.823 226.064 395.319 229.196L392.079 226.424C393.159 223.148 396.435 220.52 401.079 220.52C406.659 220.52 409.071 223.832 409.071 227.108C409.071 230.06 406.767 232.292 403.599 232.616C408.171 232.904 410.043 235.532 410.043 238.772C410.043 242.804 406.443 245.36 401.151 245.36Z" fill="black"/>
<rect x="542" y="186" width="240" height="125" rx="10" fill="white"/>
<path d="M581.72 279V265.28H583.62V277.34H590.44V279H581.72ZM596.283 279.24C593.143 279.24 591.483 277.52 591.483 273.74C591.483 269.96 593.143 268.24 596.363 268.24C599.323 268.24 600.863 269.98 600.863 273.34V274.18H593.303C593.343 276.74 594.343 277.8 596.323 277.8C598.123 277.8 599.063 276.82 599.103 275.42H600.823C600.803 277.68 599.183 279.24 596.283 279.24ZM593.343 272.86H599.043C599.043 270.52 597.923 269.68 596.303 269.68C594.443 269.68 593.483 270.68 593.343 272.86ZM605.66 279.24C604.14 279.24 602.32 278.62 602.32 276.32C602.32 273.44 605.24 272.76 609.28 272.76V271.56C609.28 270.42 608.8 269.68 606.92 269.68C605.08 269.68 604.54 270.46 604.54 271.3V271.6H602.84C602.82 271.48 602.82 271.34 602.82 271.16C602.82 269.24 604.52 268.24 607.04 268.24C609.66 268.24 611.04 269.4 611.04 271.38V277.08C611.04 277.58 611.3 277.76 611.66 277.76H612.44V278.92C612.06 279.1 611.6 279.22 611.04 279.22C609.98 279.22 609.54 278.54 609.42 277.6H609.28C608.52 278.62 607.26 279.24 605.66 279.24ZM606.1 277.76C607.78 277.76 609.28 276.64 609.28 274.96V274.08C606.04 274.08 604.16 274.52 604.16 276.2C604.16 277.26 604.94 277.76 606.1 277.76ZM617.478 279.24C614.858 279.24 613.298 277.58 613.298 273.66C613.298 269.94 614.938 268.24 617.398 268.24C618.798 268.24 619.898 268.7 620.598 269.8H620.718V264.54H622.478V279H621.058L620.898 277.5H620.758C620.018 278.68 618.838 279.24 617.478 279.24ZM617.898 277.7C619.898 277.7 620.718 276.36 620.718 273.9V273.58C620.718 270.66 619.458 269.78 617.958 269.78C616.018 269.78 615.138 270.9 615.138 273.54V273.96C615.138 276.68 616.118 277.7 617.898 277.7ZM629.426 279.24C626.286 279.24 624.626 277.52 624.626 273.74C624.626 269.96 626.286 268.24 629.506 268.24C632.466 268.24 634.006 269.98 634.006 273.34V274.18H626.446C626.486 276.74 627.486 277.8 629.466 277.8C631.266 277.8 632.206 276.82 632.246 275.42H633.966C633.946 277.68 632.326 279.24 629.426 279.24ZM626.486 272.86H632.186C632.186 270.52 631.066 269.68 629.446 269.68C627.586 269.68 626.626 270.68 626.486 272.86ZM636.163 279V268.48H637.583L637.743 270.22H637.883C638.183 269.24 638.843 268.24 640.263 268.24C640.663 268.24 641.023 268.32 641.183 268.4V270.02H640.523C638.723 270.02 637.923 271.34 637.923 273.14V279H636.163ZM647.783 279.24C646.363 279.24 645.223 278.68 644.503 277.5H644.363L644.183 279H642.783V264.54H644.543V269.8H644.663C645.363 268.7 646.523 268.24 647.863 268.24C650.303 268.24 651.943 269.94 651.943 273.66C651.943 277.58 650.403 279.24 647.783 279.24ZM647.363 277.7C649.143 277.7 650.123 276.68 650.123 273.96V273.54C650.123 270.9 649.243 269.78 647.303 269.78C645.803 269.78 644.543 270.66 644.543 273.58V273.9C644.543 276.36 645.383 277.7 647.363 277.7ZM658.431 279.24C655.231 279.24 653.511 277.52 653.511 273.74C653.511 269.96 655.231 268.24 658.431 268.24C661.631 268.24 663.331 269.96 663.331 273.74C663.331 277.52 661.631 279.24 658.431 279.24ZM658.431 277.76C660.471 277.76 661.511 276.6 661.511 273.96V273.52C661.511 270.9 660.471 269.72 658.431 269.72C656.371 269.72 655.351 270.9 655.351 273.52V273.96C655.351 276.6 656.371 277.76 658.431 277.76ZM668.137 279.24C666.617 279.24 664.797 278.62 664.797 276.32C664.797 273.44 667.717 272.76 671.757 272.76V271.56C671.757 270.42 671.277 269.68 669.397 269.68C667.557 269.68 667.017 270.46 667.017 271.3V271.6H665.317C665.297 271.48 665.297 271.34 665.297 271.16C665.297 269.24 666.997 268.24 669.517 268.24C672.137 268.24 673.517 269.4 673.517 271.38V277.08C673.517 277.58 673.777 277.76 674.137 277.76H674.917V278.92C674.537 279.1 674.077 279.22 673.517 279.22C672.457 279.22 672.017 278.54 671.897 277.6H671.757C670.997 278.62 669.737 279.24 668.137 279.24ZM668.577 277.76C670.257 277.76 671.757 276.64 671.757 274.96V274.08C668.517 274.08 666.637 274.52 666.637 276.2C666.637 277.26 667.417 277.76 668.577 277.76ZM676.376 279V268.48H677.796L677.956 270.22H678.096C678.396 269.24 679.056 268.24 680.476 268.24C680.876 268.24 681.236 268.32 681.396 268.4V270.02H680.736C678.936 270.02 678.136 271.34 678.136 273.14V279H676.376ZM686.381 279.24C683.761 279.24 682.201 277.58 682.201 273.66C682.201 269.94 683.841 268.24 686.301 268.24C687.701 268.24 688.801 268.7 689.501 269.8H689.621V264.54H691.381V279H689.961L689.801 277.5H689.661C688.921 278.68 687.741 279.24 686.381 279.24ZM686.801 277.7C688.801 277.7 689.621 276.36 689.621 273.9V273.58C689.621 270.66 688.361 269.78 686.861 269.78C684.921 269.78 684.041 270.9 684.041 273.54V273.96C684.041 276.68 685.021 277.7 686.801 277.7ZM698.628 279V265.28H705.848C708.668 265.28 710.028 266.94 710.028 269.3C710.028 271.18 709.108 272.6 707.628 273.2L710.508 279H708.428L705.748 273.54H700.528V279H698.628ZM700.528 271.92H705.668C707.188 271.92 708.108 270.92 708.108 269.3C708.108 267.8 707.268 266.92 705.668 266.92H700.528V271.92ZM715.244 279.24C713.724 279.24 711.904 278.62 711.904 276.32C711.904 273.44 714.824 272.76 718.864 272.76V271.56C718.864 270.42 718.384 269.68 716.504 269.68C714.664 269.68 714.124 270.46 714.124 271.3V271.6H712.424C712.404 271.48 712.404 271.34 712.404 271.16C712.404 269.24 714.104 268.24 716.624 268.24C719.244 268.24 720.624 269.4 720.624 271.38V277.08C720.624 277.58 720.884 277.76 721.244 277.76H722.024V278.92C721.644 279.1 721.184 279.22 720.624 279.22C719.564 279.22 719.124 278.54 719.004 277.6H718.864C718.104 278.62 716.844 279.24 715.244 279.24ZM715.684 277.76C717.364 277.76 718.864 276.64 718.864 274.96V274.08C715.624 274.08 713.744 274.52 713.744 276.2C713.744 277.26 714.524 277.76 715.684 277.76ZM723.483 279V268.48H724.903L725.063 270.06H725.203C726.043 268.78 727.223 268.24 728.723 268.24C730.723 268.24 732.083 269.16 732.083 271.74V279H730.323V271.98C730.323 270.24 729.403 269.8 728.083 269.8C726.583 269.8 725.243 270.96 725.243 272.82V279H723.483ZM734.732 279V264.54H736.492V273.58L740.952 268.48H743.032L739.432 272.56L743.232 279H741.212L738.292 273.86L736.492 275.68V279H734.732Z" fill="#382D2D"/>
<path d="M643.504 245H639.436V225.992H635.044V223.04C637.024 223.04 638.716 222.428 639.94 220.88H643.504V245ZM657.085 245.36C652.477 245.36 649.057 242.912 647.833 239.78L651.073 236.648C651.901 239.636 654.025 241.436 657.121 241.436C660.037 241.436 661.621 239.708 661.621 236.9C661.621 233.516 659.353 232.148 656.869 232.148C654.565 232.148 652.945 233.12 652.729 234.668L652.693 234.992L648.733 234.596L649.525 220.88H664.177V224.624H653.413L652.837 233.084C653.593 230.924 655.537 229.196 658.741 229.196C663.313 229.196 665.977 232.292 665.977 237.08C665.977 242.048 662.557 245.36 657.085 245.36ZM678.227 245.36C672.431 245.36 668.867 242.012 668.867 233.048V232.652C668.867 224.912 672.287 220.52 678.731 220.52C682.295 220.52 685.031 222.212 686.543 224.66L683.771 228.008C682.691 225.848 680.927 224.516 678.515 224.516C675.707 224.516 673.259 226.244 673.259 232.652V234.956C673.763 231.392 676.211 229.268 679.919 229.268C684.779 229.268 686.975 232.652 686.975 237.008C686.975 241.868 683.411 245.36 678.227 245.36ZM678.119 241.508C680.927 241.508 682.619 239.564 682.619 237.008C682.619 234.272 681.251 232.436 678.191 232.436C675.347 232.436 673.547 233.912 673.547 236.648C673.547 239.96 675.239 241.508 678.119 241.508Z" fill="black"/>
<rect x="814" y="186" width="240" height="125" rx="10" fill="white"/>
<path d="M845.06 279L841.24 265.28H843.28L845.72 274.54C845.84 275 846.1 276.12 846.22 276.8H846.36C846.5 276.1 846.7 274.98 846.8 274.54L849.08 265.28H851.54L853.82 274.54C853.92 275 854.18 276.12 854.3 276.8H854.44C854.58 276.12 854.82 275.04 854.96 274.54L857.42 265.28H859.22L855.4 279H853.12L850.74 269.68C850.6 269.1 850.4 268.02 850.3 267.36H850.18C850.08 268.04 849.88 269.16 849.74 269.68L847.42 279H845.06ZM864.258 279.24C861.058 279.24 859.338 277.52 859.338 273.74C859.338 269.96 861.058 268.24 864.258 268.24C867.458 268.24 869.158 269.96 869.158 273.74C869.158 277.52 867.458 279.24 864.258 279.24ZM864.258 277.76C866.298 277.76 867.338 276.6 867.338 273.96V273.52C867.338 270.9 866.298 269.72 864.258 269.72C862.198 269.72 861.178 270.9 861.178 273.52V273.96C861.178 276.6 862.198 277.76 864.258 277.76ZM871.324 279V268.48H872.744L872.904 270.22H873.044C873.344 269.24 874.004 268.24 875.424 268.24C875.824 268.24 876.184 268.32 876.344 268.4V270.02H875.684C873.884 270.02 873.084 271.34 873.084 273.14V279H871.324ZM877.945 279V264.54H879.705V273.58L884.165 268.48H886.245L882.645 272.56L886.445 279H884.425L881.505 273.86L879.705 275.68V279H877.945ZM891.449 279.24C888.589 279.24 887.089 278 887.089 276.06C887.089 275.94 887.089 275.82 887.109 275.72H888.849C888.829 275.84 888.829 275.9 888.829 275.98C888.849 277.4 890.009 277.8 891.549 277.8C892.869 277.8 893.989 277.3 893.989 276.22C893.989 274.92 892.489 274.68 890.969 274.24C889.249 273.74 887.409 273.24 887.409 271.18C887.409 269.32 889.029 268.26 891.549 268.26C894.229 268.26 895.529 269.56 895.529 271.1C895.529 271.26 895.529 271.42 895.509 271.5H893.789V271.28C893.789 270.5 893.249 269.68 891.449 269.68C889.929 269.68 889.189 270.2 889.189 271.06C889.189 272.12 890.329 272.3 891.669 272.72C893.529 273.28 895.789 273.6 895.789 275.98C895.789 278.24 893.949 279.24 891.449 279.24ZM897.944 279V264.54H899.704V269.8H899.844C900.644 268.74 901.724 268.24 903.184 268.24C905.184 268.24 906.544 269.16 906.544 271.74V279H904.784V271.98C904.784 270.24 903.864 269.8 902.544 269.8C901.044 269.8 899.704 270.88 899.704 272.82V279H897.944ZM913.514 279.24C910.314 279.24 908.594 277.52 908.594 273.74C908.594 269.96 910.314 268.24 913.514 268.24C916.714 268.24 918.414 269.96 918.414 273.74C918.414 277.52 916.714 279.24 913.514 279.24ZM913.514 277.76C915.554 277.76 916.594 276.6 916.594 273.96V273.52C916.594 270.9 915.554 269.72 913.514 269.72C911.454 269.72 910.434 270.9 910.434 273.52V273.96C910.434 276.6 911.454 277.76 913.514 277.76ZM920.58 282.46V268.48H921.98L922.16 269.98H922.3C923.02 268.8 924.18 268.24 925.58 268.24C928.2 268.24 929.74 269.9 929.74 273.82C929.74 277.54 928.1 279.24 925.66 279.24C924.32 279.24 923.16 278.78 922.46 277.68H922.34V282.46H920.58ZM925.1 277.7C927.04 277.7 927.92 276.58 927.92 273.96V273.54C927.92 270.8 926.94 269.78 925.16 269.78C923.18 269.78 922.34 271.12 922.34 273.6V273.9C922.34 276.82 923.6 277.7 925.1 277.7ZM935.587 279.24C932.727 279.24 931.227 278 931.227 276.06C931.227 275.94 931.227 275.82 931.247 275.72H932.987C932.967 275.84 932.967 275.9 932.967 275.98C932.987 277.4 934.147 277.8 935.687 277.8C937.007 277.8 938.127 277.3 938.127 276.22C938.127 274.92 936.627 274.68 935.107 274.24C933.387 273.74 931.547 273.24 931.547 271.18C931.547 269.32 933.167 268.26 935.687 268.26C938.367 268.26 939.667 269.56 939.667 271.1C939.667 271.26 939.667 271.42 939.647 271.5H937.927V271.28C937.927 270.5 937.387 269.68 935.587 269.68C934.067 269.68 933.327 270.2 933.327 271.06C933.327 272.12 934.467 272.3 935.807 272.72C937.667 273.28 939.927 273.6 939.927 275.98C939.927 278.24 938.087 279.24 935.587 279.24ZM945.003 279L950.423 265.28H952.923L958.363 279H956.303L954.963 275.6H948.283L946.963 279H945.003ZM948.903 273.98H954.323L952.663 269.68C952.483 269.2 952.003 267.84 951.683 266.92H951.563C951.283 267.72 950.823 269.02 950.583 269.68L948.903 273.98ZM962.315 279.24C960.675 279.24 960.175 278.22 960.175 277.02V269.96H958.815V268.48H960.215L960.535 265.54H961.935V268.48H963.915V269.96H961.935V276.76C961.935 277.44 962.135 277.76 962.795 277.76H963.915V278.92C963.495 279.1 962.815 279.24 962.315 279.24ZM968.233 279.24C966.593 279.24 966.093 278.22 966.093 277.02V269.96H964.733V268.48H966.133L966.453 265.54H967.853V268.48H969.833V269.96H967.853V276.76C967.853 277.44 968.053 277.76 968.713 277.76H969.833V278.92C969.413 279.1 968.733 279.24 968.233 279.24ZM975.89 279.24C972.75 279.24 971.09 277.52 971.09 273.74C971.09 269.96 972.75 268.24 975.97 268.24C978.93 268.24 980.47 269.98 980.47 273.34V274.18H972.91C972.95 276.74 973.95 277.8 975.93 277.8C977.73 277.8 978.67 276.82 978.71 275.42H980.43C980.41 277.68 978.79 279.24 975.89 279.24ZM972.95 272.86H978.65C978.65 270.52 977.53 269.68 975.91 269.68C974.05 269.68 973.09 270.68 972.95 272.86ZM982.627 279V268.48H984.047L984.207 270.06H984.347C985.187 268.78 986.367 268.24 987.867 268.24C989.867 268.24 991.227 269.16 991.227 271.74V279H989.467V271.98C989.467 270.24 988.547 269.8 987.227 269.8C985.727 269.8 984.387 270.96 984.387 272.82V279H982.627ZM997.457 279.24C994.837 279.24 993.277 277.58 993.277 273.66C993.277 269.94 994.917 268.24 997.377 268.24C998.777 268.24 999.877 268.7 1000.58 269.8H1000.7V264.54H1002.46V279H1001.04L1000.88 277.5H1000.74C999.997 278.68 998.817 279.24 997.457 279.24ZM997.877 277.7C999.877 277.7 1000.7 276.36 1000.7 273.9V273.58C1000.7 270.66 999.437 269.78 997.937 269.78C995.997 269.78 995.117 270.9 995.117 273.54V273.96C995.117 276.68 996.097 277.7 997.877 277.7ZM1009.4 279.24C1006.26 279.24 1004.6 277.52 1004.6 273.74C1004.6 269.96 1006.26 268.24 1009.48 268.24C1012.44 268.24 1013.98 269.98 1013.98 273.34V274.18H1006.42C1006.46 276.74 1007.46 277.8 1009.44 277.8C1011.24 277.8 1012.18 276.82 1012.22 275.42H1013.94C1013.92 277.68 1012.3 279.24 1009.4 279.24ZM1006.46 272.86H1012.16C1012.16 270.52 1011.04 269.68 1009.42 269.68C1007.56 269.68 1006.6 270.68 1006.46 272.86ZM1019.72 279.24C1017.1 279.24 1015.54 277.58 1015.54 273.66C1015.54 269.94 1017.18 268.24 1019.64 268.24C1021.04 268.24 1022.14 268.7 1022.84 269.8H1022.96V264.54H1024.72V279H1023.3L1023.14 277.5H1023C1022.26 278.68 1021.08 279.24 1019.72 279.24ZM1020.14 277.7C1022.14 277.7 1022.96 276.36 1022.96 273.9V273.58C1022.96 270.66 1021.7 269.78 1020.2 269.78C1018.26 269.78 1017.38 270.9 1017.38 273.54V273.96C1017.38 276.68 1018.36 277.7 1020.14 277.7Z" fill="#382D2D"/>
<path d="M924.808 245.324C918.076 245.324 914.656 239.996 914.656 232.904C914.656 225.848 918.076 220.52 924.808 220.52C931.54 220.52 934.924 225.848 934.924 232.904C934.924 239.996 931.54 245.324 924.808 245.324ZM924.808 241.436C929.128 241.436 930.676 237.98 930.676 232.904C930.676 227.864 929.128 224.372 924.808 224.372C920.524 224.372 918.94 227.864 918.94 232.904C918.94 237.98 920.524 241.436 924.808 241.436ZM947.462 245.36C941.666 245.36 938.102 242.012 938.102 233.048V232.652C938.102 224.912 941.522 220.52 947.966 220.52C951.53 220.52 954.266 222.212 955.778 224.66L953.006 228.008C951.926 225.848 950.162 224.516 947.75 224.516C944.942 224.516 942.494 226.244 942.494 232.652V234.956C942.998 231.392 945.446 229.268 949.154 229.268C954.014 229.268 956.21 232.652 956.21 237.008C956.21 241.868 952.646 245.36 947.462 245.36ZM947.354 241.508C950.162 241.508 951.854 239.564 951.854 237.008C951.854 234.272 950.486 232.436 947.426 232.436C944.582 232.436 942.782 233.912 942.782 236.648C942.782 239.96 944.474 241.508 947.354 241.508Z" fill="black"/>
<rect x="270" y="351" width="544" height="276" rx="10" fill="white"/>
<path d="M309.238 407H306.976V389.58H309.498L313.996 398.212L315.764 402.034L317.506 398.212L322.03 389.58H324.552V407H322.29V397.38L322.524 392.674L320.6 396.99L316.856 404.088H314.646L310.902 396.99L308.952 392.674L309.238 397.38V407ZM329.992 411.108C328.198 411.108 326.898 410.12 326.352 409.08L327.574 407.364C328.172 408.378 328.822 409.132 330.018 409.132C331.032 409.132 331.708 408.638 332.202 407.104L332.462 406.298L331.058 406.324L326.82 394.416H329.238L331.942 402.502L332.826 405.206L333.71 402.502L336.388 394.416H338.806L333.97 408.04C333.164 410.354 331.76 411.108 329.992 411.108ZM348.976 407.26C346.844 407.26 345.648 406.038 345.648 404.374C345.648 402.684 346.922 401.618 348.716 400.812L353.266 398.784C353.188 397.302 352.486 396.21 350.51 396.21C348.716 396.21 347.52 397.25 346.87 398.628L345.336 397.042C346.09 395.742 347.962 394.156 350.77 394.156C353.864 394.156 355.528 396.002 355.528 398.992V404.166C355.528 404.764 355.762 404.946 356.23 404.946H357.036V407H355.58C354.28 407 353.344 406.376 353.344 404.608V403.724C352.928 405.388 351.576 407.26 348.976 407.26ZM347.936 404.01C347.936 404.868 348.534 405.388 349.704 405.388C351.836 405.388 353.344 403.984 353.344 402.164V400.422L349.678 402.138C348.482 402.71 347.936 403.23 347.936 404.01ZM361.917 411.836H359.655V394.416H361.917V397.64C362.359 395.742 363.555 394.13 365.973 394.13C369.145 394.13 371.121 396.704 371.121 400.682C371.121 404.66 369.145 407.26 365.973 407.26C363.555 407.26 362.359 405.648 361.917 403.75V411.836ZM361.917 401.592C361.917 403.672 362.801 405.362 365.193 405.362C367.195 405.362 368.833 403.906 368.833 400.682C368.833 397.484 367.195 396.028 365.193 396.028C362.801 396.028 361.917 397.718 361.917 399.798V401.592ZM376.111 411.836H373.849V394.416H376.111V397.64C376.553 395.742 377.749 394.13 380.167 394.13C383.339 394.13 385.315 396.704 385.315 400.682C385.315 404.66 383.339 407.26 380.167 407.26C377.749 407.26 376.553 405.648 376.111 403.75V411.836ZM376.111 401.592C376.111 403.672 376.995 405.362 379.387 405.362C381.389 405.362 383.027 403.906 383.027 400.682C383.027 397.484 381.389 396.028 379.387 396.028C376.995 396.028 376.111 397.718 376.111 399.798V401.592ZM390.304 407H388.042V389.58H390.304V407ZM395.966 392.388H393.704V389.58H395.966V392.388ZM395.966 407H393.704V394.416H395.966V407ZM404.592 407.26C400.978 407.26 398.664 404.712 398.664 400.708C398.664 396.73 400.978 394.156 404.592 394.156C407.868 394.156 409.792 396.054 410.39 398.576L408.18 399.486C407.92 397.484 406.88 396.054 404.618 396.054C402.33 396.054 400.952 397.744 400.952 400.708C400.952 403.672 402.33 405.388 404.618 405.388C406.88 405.388 407.92 403.932 408.18 401.93L410.39 402.84C409.792 405.362 407.868 407.26 404.592 407.26ZM415.779 407.26C413.647 407.26 412.451 406.038 412.451 404.374C412.451 402.684 413.725 401.618 415.519 400.812L420.069 398.784C419.991 397.302 419.289 396.21 417.313 396.21C415.519 396.21 414.323 397.25 413.673 398.628L412.139 397.042C412.893 395.742 414.765 394.156 417.573 394.156C420.667 394.156 422.331 396.002 422.331 398.992V404.166C422.331 404.764 422.565 404.946 423.033 404.946H423.839V407H422.383C421.083 407 420.147 406.376 420.147 404.608V403.724C419.731 405.388 418.379 407.26 415.779 407.26ZM414.739 404.01C414.739 404.868 415.337 405.388 416.507 405.388C418.639 405.388 420.147 403.984 420.147 402.164V400.422L416.481 402.138C415.285 402.71 414.739 403.23 414.739 404.01ZM430.315 407.286C428.261 407.286 426.805 405.934 426.805 403.776V396.184H424.777V394.416H426.805V392.804L429.067 391.14V394.416H433.201V396.184H429.067V403.1C429.067 404.712 429.821 405.102 430.809 405.102C431.927 405.102 432.707 404.166 433.045 403.386L433.799 405.622C433.253 406.48 432.057 407.286 430.315 407.286ZM438.292 392.388H436.03V389.58H438.292V392.388ZM438.292 407H436.03V394.416H438.292V407ZM446.737 407.26C443.253 407.26 440.809 404.686 440.809 400.708C440.809 396.73 443.253 394.156 446.737 394.156C450.221 394.156 452.691 396.73 452.691 400.708C452.691 404.686 450.221 407.26 446.737 407.26ZM446.737 405.362C448.895 405.362 450.403 403.88 450.403 400.708C450.403 397.51 448.895 396.054 446.737 396.054C444.605 396.054 443.123 397.51 443.123 400.708C443.123 403.88 444.605 405.362 446.737 405.362ZM457.792 407H455.53V394.416H457.792V397.77C458.286 395.82 459.638 394.156 462.108 394.156C464.578 394.156 466.112 395.638 466.112 398.316V407H463.876V398.862C463.876 397.224 463.226 396.08 461.094 396.08C458.676 396.08 457.792 397.77 457.792 399.876V407ZM473.977 407.26C471.351 407.26 468.959 406.116 468.101 403.776L469.739 402.502C470.181 403.932 471.559 405.362 474.055 405.362C475.537 405.362 476.525 404.79 476.525 403.672C476.525 402.528 475.381 402.164 473.899 401.826L472.235 401.436C470.441 401.02 468.491 400.162 468.491 397.848C468.491 395.56 470.259 394.156 472.989 394.156C475.641 394.156 477.487 395.56 478.189 397.224L476.473 398.498C475.849 397.016 474.653 396.08 472.859 396.08C471.559 396.08 470.623 396.652 470.623 397.718C470.623 398.836 471.455 399.226 473.171 399.642L474.783 400.058C477.617 400.734 478.553 401.904 478.553 403.646C478.553 406.142 476.421 407.26 473.977 407.26Z" fill="black"/>
<rect x="305" y="439" width="60" height="60" rx="10" fill="#514545" fill-opacity="0.3"/>
<rect x="305" y="523" width="60" height="60" rx="10" fill="#514545" fill-opacity="0.3"/>
<rect x="385" y="441" width="250" height="16" rx="8" fill="#514545" fill-opacity="0.75"/>
<rect x="384" y="528" width="250" height="16" rx="8" fill="#514545" fill-opacity="0.75"/>
<rect x="385" y="476" width="150" height="15" rx="7.5" fill="#514545" fill-opacity="0.15"/>
<rect x="385" y="563" width="150" height="15" rx="7.5" fill="#514545" fill-opacity="0.15"/>
<rect x="653" y="434" width="131" height="30" rx="10" fill="#FFE999"/>
<path d="M669.552 455.216C666.402 455.216 664.512 453.758 664.512 450.32V442.652H666.222V450.5C666.222 452.66 667.446 453.74 669.552 453.74C671.676 453.74 672.954 452.66 672.954 450.5V442.652H674.646V450.32C674.646 453.758 672.738 455.216 669.552 455.216ZM677.408 455V445.532H678.686L678.83 446.954H678.956C679.712 445.802 680.774 445.316 682.124 445.316C683.924 445.316 685.148 446.144 685.148 448.466V455H683.564V448.682C683.564 447.116 682.736 446.72 681.548 446.72C680.198 446.72 678.992 447.764 678.992 449.438V455H677.408ZM690.773 455.216C688.415 455.216 687.011 453.722 687.011 450.194C687.011 446.846 688.487 445.316 690.701 445.316C691.961 445.316 692.951 445.73 693.581 446.72H693.689V441.986H695.273V455H693.995L693.851 453.65H693.725C693.059 454.712 691.997 455.216 690.773 455.216ZM691.151 453.83C692.951 453.83 693.689 452.624 693.689 450.41V450.122C693.689 447.494 692.555 446.702 691.205 446.702C689.459 446.702 688.667 447.71 688.667 450.086V450.464C688.667 452.912 689.549 453.83 691.151 453.83ZM701.543 455.216C698.717 455.216 697.223 453.668 697.223 450.266C697.223 446.864 698.717 445.316 701.615 445.316C704.279 445.316 705.665 446.882 705.665 449.906V450.662H698.861C698.897 452.966 699.797 453.92 701.579 453.92C703.199 453.92 704.045 453.038 704.081 451.778H705.629C705.611 453.812 704.153 455.216 701.543 455.216ZM698.897 449.474H704.027C704.027 447.368 703.019 446.612 701.561 446.612C699.887 446.612 699.023 447.512 698.897 449.474ZM707.625 455V445.532H708.903L709.047 447.098H709.173C709.443 446.216 710.037 445.316 711.315 445.316C711.675 445.316 711.999 445.388 712.143 445.46V446.918H711.549C709.929 446.918 709.209 448.106 709.209 449.726V455H707.625ZM717.318 455V442.652H723.816C726.354 442.652 727.578 444.146 727.578 446.27C727.578 447.962 726.75 449.24 725.418 449.78L728.01 455H726.138L723.726 450.086H719.028V455H717.318ZM719.028 448.628H723.654C725.022 448.628 725.85 447.728 725.85 446.27C725.85 444.92 725.094 444.128 723.654 444.128H719.028V448.628ZM733.694 455.216C730.868 455.216 729.374 453.668 729.374 450.266C729.374 446.864 730.868 445.316 733.766 445.316C736.43 445.316 737.816 446.882 737.816 449.906V450.662H731.012C731.048 452.966 731.948 453.92 733.73 453.92C735.35 453.92 736.196 453.038 736.232 451.778H737.78C737.762 453.812 736.304 455.216 733.694 455.216ZM731.048 449.474H736.178C736.178 447.368 735.17 446.612 733.712 446.612C732.038 446.612 731.174 447.512 731.048 449.474ZM742.277 455L738.767 445.532H740.423L742.151 450.266C742.385 450.932 742.817 452.282 743.051 453.11H743.141C743.393 452.318 743.807 450.986 744.059 450.266L745.769 445.532H747.371L743.861 455H742.277ZM748.846 443.75V441.986H750.43V443.75H748.846ZM748.846 455V445.532H750.43V455H748.846ZM756.668 455.216C753.842 455.216 752.348 453.668 752.348 450.266C752.348 446.864 753.842 445.316 756.74 445.316C759.404 445.316 760.79 446.882 760.79 449.906V450.662H753.986C754.022 452.966 754.922 453.92 756.704 453.92C758.324 453.92 759.17 453.038 759.206 451.778H760.754C760.736 453.812 759.278 455.216 756.668 455.216ZM754.022 449.474H759.152C759.152 447.368 758.144 446.612 756.686 446.612C755.012 446.612 754.148 447.512 754.022 449.474ZM764.568 455L761.706 445.532H763.344L764.784 450.734C765 451.508 765.234 452.534 765.324 452.93H765.432C765.576 452.246 765.81 451.166 765.918 450.716L767.214 445.532H768.924L770.238 450.716C770.382 451.328 770.616 452.336 770.724 452.93H770.832C770.958 452.354 771.21 451.382 771.39 450.752L772.812 445.532H774.324L771.48 455H769.86L768.636 450.104C768.474 449.438 768.222 448.25 768.078 447.53H767.97C767.88 448.07 767.664 449.114 767.412 450.104L766.188 455H764.568Z" fill="#5D430D"/>
<rect x="653" y="521" width="131" height="30" rx="10" fill="#FFE999"/>
<path d="M669.552 542.216C666.402 542.216 664.512 540.758 664.512 537.32V529.652H666.222V537.5C666.222 539.66 667.446 540.74 669.552 540.74C671.676 540.74 672.954 539.66 672.954 537.5V529.652H674.646V537.32C674.646 540.758 672.738 542.216 669.552 542.216ZM677.408 542V532.532H678.686L678.83 533.954H678.956C679.712 532.802 680.774 532.316 682.124 532.316C683.924 532.316 685.148 533.144 685.148 535.466V542H683.564V535.682C683.564 534.116 682.736 533.72 681.548 533.72C680.198 533.72 678.992 534.764 678.992 536.438V542H677.408ZM690.773 542.216C688.415 542.216 687.011 540.722 687.011 537.194C687.011 533.846 688.487 532.316 690.701 532.316C691.961 532.316 692.951 532.73 693.581 533.72H693.689V528.986H695.273V542H693.995L693.851 540.65H693.725C693.059 541.712 691.997 542.216 690.773 542.216ZM691.151 540.83C692.951 540.83 693.689 539.624 693.689 537.41V537.122C693.689 534.494 692.555 533.702 691.205 533.702C689.459 533.702 688.667 534.71 688.667 537.086V537.464C688.667 539.912 689.549 540.83 691.151 540.83ZM701.543 542.216C698.717 542.216 697.223 540.668 697.223 537.266C697.223 533.864 698.717 532.316 701.615 532.316C704.279 532.316 705.665 533.882 705.665 536.906V537.662H698.861C698.897 539.966 699.797 540.92 701.579 540.92C703.199 540.92 704.045 540.038 704.081 538.778H705.629C705.611 540.812 704.153 542.216 701.543 542.216ZM698.897 536.474H704.027C704.027 534.368 703.019 533.612 701.561 533.612C699.887 533.612 699.023 534.512 698.897 536.474ZM707.625 542V532.532H708.903L709.047 534.098H709.173C709.443 533.216 710.037 532.316 711.315 532.316C711.675 532.316 711.999 532.388 712.143 532.46V533.918H711.549C709.929 533.918 709.209 535.106 709.209 536.726V542H707.625ZM717.318 542V529.652H723.816C726.354 529.652 727.578 531.146 727.578 533.27C727.578 534.962 726.75 536.24 725.418 536.78L728.01 542H726.138L723.726 537.086H719.028V542H717.318ZM719.028 535.628H723.654C725.022 535.628 725.85 534.728 725.85 533.27C725.85 531.92 725.094 531.128 723.654 531.128H719.028V535.628ZM733.694 542.216C730.868 542.216 729.374 540.668 729.374 537.266C729.374 533.864 730.868 532.316 733.766 532.316C736.43 532.316 737.816 533.882 737.816 536.906V537.662H731.012C731.048 539.966 731.948 540.92 733.73 540.92C735.35 540.92 736.196 540.038 736.232 538.778H737.78C737.762 540.812 736.304 542.216 733.694 542.216ZM731.048 536.474H736.178C736.178 534.368 735.17 533.612 733.712 533.612C732.038 533.612 731.174 534.512 731.048 536.474ZM742.277 542L738.767 532.532H740.423L742.151 537.266C742.385 537.932 742.817 539.282 743.051 540.11H743.141C743.393 539.318 743.807 537.986 744.059 537.266L745.769 532.532H747.371L743.861 542H742.277ZM748.846 530.75V528.986H750.43V530.75H748.846ZM748.846 542V532.532H750.43V542H748.846ZM756.668 542.216C753.842 542.216 752.348 540.668 752.348 537.266C752.348 533.864 753.842 532.316 756.74 532.316C759.404 532.316 760.79 533.882 760.79 536.906V537.662H753.986C754.022 539.966 754.922 540.92 756.704 540.92C758.324 540.92 759.17 540.038 759.206 538.778H760.754C760.736 540.812 759.278 542.216 756.668 542.216ZM754.022 536.474H759.152C759.152 534.368 758.144 533.612 756.686 533.612C755.012 533.612 754.148 534.512 754.022 536.474ZM764.568 542L761.706 532.532H763.344L764.784 537.734C765 538.508 765.234 539.534 765.324 539.93H765.432C765.576 539.246 765.81 538.166 765.918 537.716L767.214 532.532H768.924L770.238 537.716C770.382 538.328 770.616 539.336 770.724 539.93H770.832C770.958 539.354 771.21 538.382 771.39 537.752L772.812 532.532H774.324L771.48 542H769.86L768.636 537.104C768.474 536.438 768.222 535.25 768.078 534.53H767.97C767.88 535.07 767.664 536.114 767.412 537.104L766.188 542H764.568Z" fill="#5D430D"/>
<rect x="841" y="351" width="213" height="276" rx="10" fill="white"/>
<rect x="873" y="388" width="150" height="75" rx="10" fill="#514545" fill-opacity="0.3"/>
<rect x="873" y="484" width="150" height="20" rx="5" fill="#514545" fill-opacity="0.75"/>
<rect x="873" y="528" width="100" height="15" rx="7.5" fill="#514545" fill-opacity="0.15"/>
<rect x="873" y="564" width="100" height="15" rx="7.5" fill="#514545" fill-opacity="0.15"/>
</svg>
