<svg width="52" height="50" viewBox="0 0 52 50" fill="none" xmlns="http://www.w3.org/2000/svg">
<g clip-path="url(#clip0_1_5)">
<path d="M50.7539 3.09486C50.4268 2.76727 49.976 2.58365 49.5074 2.58624H1.76815C1.2996 2.58365 0.848726 2.76727 0.521623 3.09486C0.18568 3.41383 -0.00262454 3.85348 2.76414e-05 4.31038V40.5173C-0.00262454 40.9742 0.18568 41.4138 0.521623 41.7328C0.848726 42.0604 1.2996 42.244 1.76815 42.2414H48.6234C49.3268 42.2414 50.0013 41.9689 50.4987 41.4839C50.9961 40.9989 51.2755 40.3411 51.2755 39.6552V4.31038C51.2782 3.85348 51.0899 3.41383 50.7539 3.09486Z" fill="#F3D55B"/>
<path d="M51.2753 4.31035V39.6552C51.2753 40.3414 50.995 40.9983 50.4973 41.4828L46.855 37.931V6.89656L50.7537 3.09483C51.0896 3.4138 51.2779 3.85345 51.2753 4.31035ZM4.42006 6.89656V37.931L0.521349 41.7328C0.185406 41.4138 -0.0028992 40.9741 -0.000247017 40.5173V4.31035C-0.0028992 3.85345 0.185406 3.4138 0.521349 3.09483L4.42006 6.89656Z" fill="#F0C419"/>
<path d="M50.4975 41.4828C50.2517 41.7232 49.9596 41.914 49.638 42.0442C49.3164 42.1744 48.9715 42.2414 48.6233 42.2414H1.76812C1.29957 42.244 0.848697 42.0603 0.521595 41.7328L4.4203 37.931H46.8552L50.4975 41.4828Z" fill="#F29C1F"/>
<path d="M4.4203 6.89656H46.8552V37.931H4.4203V6.89656Z" fill="#ECF0F1"/>
<path d="M46.8552 6.89656C46.8552 6.89656 4.4203 6.89656 4.4203 37.931V6.89656H46.8552Z" fill="white"/>
<path d="M31.8262 12.931H19.4493C19.2149 12.931 18.99 12.8402 18.8242 12.6786C18.6584 12.5169 18.5653 12.2976 18.5653 12.069C18.5653 11.8403 18.6584 11.6211 18.8242 11.4594C18.99 11.2977 19.2149 11.2069 19.4493 11.2069H31.8262C32.0606 11.2069 32.2855 11.2977 32.4513 11.4594C32.6171 11.6211 32.7102 11.8403 32.7102 12.069C32.7102 12.2976 32.6171 12.5169 32.4513 12.6786C32.2855 12.8402 32.0606 12.931 31.8262 12.931Z" fill="#BDC3C7"/>
<path d="M22.9856 31.8966H10.6087C10.3743 31.8966 10.1494 31.8057 9.9836 31.6441C9.81781 31.4824 9.72467 31.2631 9.72467 31.0345C9.72467 30.8059 9.81781 30.5866 9.9836 30.4249C10.1494 30.2632 10.3743 30.1724 10.6087 30.1724H22.9856C23.22 30.1724 23.4449 30.2632 23.6107 30.4249C23.7765 30.5866 23.8696 30.8059 23.8696 31.0345C23.8696 31.2631 23.7765 31.4824 23.6107 31.6441C23.4449 31.8057 23.22 31.8966 22.9856 31.8966Z" fill="#95A5A5"/>
<path d="M34.4784 17.2414H16.7971C16.5627 17.2414 16.3378 17.1506 16.172 16.9889C16.0062 16.8272 15.9131 16.6079 15.9131 16.3793C15.9131 16.1507 16.0062 15.9314 16.172 15.7697C16.3378 15.6081 16.5627 15.5172 16.7971 15.5172H34.4784C34.7128 15.5172 34.9377 15.6081 35.1035 15.7697C35.2693 15.9314 35.3624 16.1507 35.3624 16.3793C35.3624 16.6079 35.2693 16.8272 35.1035 16.9889C34.9377 17.1506 34.7128 17.2414 34.4784 17.2414Z" fill="#BDC3C7"/>
<path d="M30.9421 34.8276V46.0172C30.9411 46.1649 30.9789 46.3104 31.0521 46.4397C31.1252 46.569 31.2313 46.6778 31.3599 46.7557C31.4886 46.8336 31.6357 46.8779 31.787 46.8845C31.9383 46.891 32.0888 46.8596 32.224 46.7931L34.5226 45.6638C34.7736 45.5431 35.0671 45.5431 35.3182 45.6638L37.6168 46.7931C37.752 46.8596 37.9025 46.891 38.0538 46.8845C38.2051 46.8779 38.3522 46.8336 38.4808 46.7557C38.6095 46.6778 38.7155 46.569 38.7887 46.4397C38.8619 46.3104 38.8997 46.1649 38.8987 46.0172V34.8276H30.9421Z" fill="#FF5364"/>
<path d="M22.9856 28.4483C20.8205 28.4483 18.6926 27.9035 16.8069 26.8673C14.9179 27.9131 12.7809 28.4582 10.6087 28.4483C10.3743 28.4483 10.1494 28.3575 9.9836 28.1958C9.81781 28.0341 9.72467 27.8149 9.72467 27.5862C9.72467 27.3576 9.81781 27.1383 9.9836 26.9766C10.1494 26.815 10.3743 26.7241 10.6087 26.7241C12.1933 26.731 13.7598 26.3951 15.1952 25.7405C14.7412 25.4012 14.3632 24.9749 14.0842 24.4879C13.8052 24.001 13.6313 23.4635 13.573 22.9086C13.573 22.3914 13.8055 20.6897 16.7972 20.6897C19.7888 20.6897 20.0213 22.3879 20.0213 22.9086C19.9633 23.4642 19.7896 24.0024 19.5108 24.4903C19.232 24.9781 18.854 25.4053 18.4 25.7457C19.8359 26.3973 21.4018 26.7314 22.9856 26.7241C23.22 26.7241 23.4449 26.815 23.6107 26.9766C23.7765 27.1383 23.8696 27.3576 23.8696 27.5862C23.8696 27.8149 23.7765 28.0341 23.6107 28.1958C23.4449 28.3575 23.22 28.4483 22.9856 28.4483ZM16.7972 22.4138C16.1253 22.4138 15.3411 22.5431 15.3411 22.9086C15.3411 23.2741 15.738 24.0104 16.7901 24.8C17.7307 24.0983 18.2532 23.3647 18.2532 22.9086C18.2532 22.5431 17.469 22.4138 16.7972 22.4138Z" fill="#95A5A5"/>
<path d="M43.319 28.8793C43.319 29.8733 41.4156 30.4897 41.0478 31.3543C40.6668 32.25 41.5508 33.9957 40.8586 34.6707C40.1664 35.3457 38.3762 34.4836 37.4585 34.8543C36.5718 35.2129 35.9397 37.069 34.9204 37.069C33.9011 37.069 33.269 35.2129 32.3823 34.8543C31.4637 34.4828 29.6735 35.3448 28.9813 34.6698C28.2891 33.9948 29.1731 32.2491 28.793 31.3543C28.4252 30.4897 26.5218 29.8733 26.5218 28.8793C26.5218 27.8854 28.4252 27.269 28.793 26.4043C29.174 25.5086 28.2899 23.7629 28.9822 23.0879C29.6744 22.4129 31.4646 23.275 32.3823 22.9043C33.2663 22.5457 33.9011 20.6897 34.9204 20.6897C35.9397 20.6897 36.5718 22.5457 37.4585 22.9043C38.3771 23.2759 40.1673 22.4138 40.8595 23.0888C41.5517 23.7638 40.6677 25.5095 41.0478 26.4043C41.4156 27.269 43.319 27.8854 43.319 28.8793Z" fill="#FB7B76"/>
<path d="M34.9204 31.8966C36.6293 31.8966 38.0146 30.5457 38.0146 28.8793C38.0146 27.2129 36.6293 25.8621 34.9204 25.8621C33.2115 25.8621 31.8262 27.2129 31.8262 28.8793C31.8262 30.5457 33.2115 31.8966 34.9204 31.8966Z" fill="#DF4D60"/>
</g>
<defs>
<clipPath id="clip0_1_5">
<rect width="51.2755" height="50" fill="white"/>
</clipPath>
</defs>
</svg>
