<svg width="908" height="653" viewBox="0 0 908 653" fill="none" xmlns="http://www.w3.org/2000/svg">
<rect y="74.9539" width="860" height="580" rx="30" transform="rotate(-5 0 74.9539)" fill="#D9D9D9"/>
<g clip-path="url(#clip0_30_17)">
<path d="M856.727 -2.17557e-05L0 74.9539L50.5503 652.747L907.278 577.793L856.727 -2.17557e-05Z" fill="#FEE6B7"/>
<path opacity="0.25" d="M739.622 118.155C782.022 185.108 786.712 292.439 734.671 337.908C672.527 392.195 590.087 305.275 397.443 323.575C256.196 336.986 200.488 393.209 135.737 354.149C84.8675 323.463 58.9395 252.359 71.0839 196.29C97.0276 76.5544 292.919 42.345 352.361 31.9659C408.021 22.2489 651.9 -20.3589 739.608 118.171L739.622 118.155Z" fill="#FF9220"/>
<path d="M733.252 412.458C733.252 412.458 758.684 500.722 766.319 515.831C769.161 521.453 795.349 629.236 795.349 629.236L833.648 625.614C833.648 625.614 817.036 516.331 813.232 500.587C807.352 476.217 795.811 406.458 795.811 406.458L733.252 412.458Z" fill="#222453"/>
<path d="M797.808 513.558C803.459 515.292 809.648 514.223 814.399 510.767C814.904 510.391 814.344 509.612 813.838 509.973C809.261 513.309 803.415 514.257 798.002 512.608C797.402 512.419 797.223 513.368 797.824 513.557L797.808 513.558Z" fill="#0E1826"/>
<path d="M799.549 621.236C799.214 621.265 798.903 621.052 798.827 620.712C798.624 619.797 778.581 528.698 774.237 516.613C769.873 504.485 752.45 456.497 752.269 456.016C752.146 455.666 752.328 455.288 752.686 455.167C753.044 455.045 753.429 455.222 753.551 455.573C753.732 456.054 771.155 504.042 775.519 516.17C779.886 528.343 799.335 616.678 800.154 620.43C800.231 620.785 800.002 621.151 799.64 621.228C799.61 621.231 799.579 621.233 799.549 621.236Z" fill="#0E1826"/>
<path d="M700.732 403.125L696.138 514.775L718.494 635.825L760.902 632.115L744.178 515.044L749.121 412.305L700.732 403.125Z" fill="#222453"/>
<path d="M697.161 516.116C703.718 519.246 711.14 519.981 718.239 518.261C718.856 518.117 718.501 517.215 717.899 517.358C711.071 519.024 703.892 518.252 697.593 515.25C697.016 514.985 696.601 515.849 697.178 516.13L697.161 516.116Z" fill="#0E1826"/>
<path d="M700.431 441.645C710.076 436.194 714.744 425.113 711.995 414.59C711.835 413.986 710.913 414.338 711.072 414.926C713.726 425.066 709.105 435.632 699.87 440.851C699.328 441.154 699.889 441.948 700.431 441.645Z" fill="#0E1826"/>
<path d="M779.654 414.556C780.297 426.468 788.62 437.331 800.112 441.218C800.698 441.423 801.128 440.542 800.527 440.339C789.336 436.561 781.26 426.067 780.629 414.456C780.59 413.842 779.615 413.927 779.653 414.541L779.654 414.556Z" fill="#0E1826"/>
<path d="M751.882 625.407C751.532 625.437 751.203 625.195 751.157 624.838L735.317 512.432C735.317 512.432 735.309 512.342 735.303 512.282L742.586 422.767C742.616 422.403 742.944 422.118 743.315 422.146C743.686 422.174 743.976 422.495 743.946 422.859L736.673 512.313L752.507 624.645C752.555 625.017 752.291 625.341 751.928 625.403L751.898 625.405L751.882 625.407Z" fill="#0E1826"/>
<path d="M744.612 442.235C742.92 442.383 741.644 442.013 741.548 441.977C741.186 441.873 740.984 441.499 741.107 441.142C741.214 440.786 741.596 440.587 741.959 440.706C742.132 440.751 746.071 441.882 749.031 438.672C751.599 435.889 752.631 419.6 752.825 413.562C752.839 413.199 753.151 412.901 753.521 412.914C753.891 412.927 754.194 413.231 754.18 413.594C754.118 415.872 753.412 435.896 750.046 439.562C748.292 441.462 746.259 442.091 744.627 442.234L744.612 442.235Z" fill="#0E1826"/>
<path d="M717.919 313.572C717.919 313.572 683.381 330.865 665.106 332.313C646.831 333.761 600.398 292.331 600.398 292.331L602.907 282.387C602.907 282.387 659.854 307.045 662.951 307.497C666.062 307.947 709.876 272.907 709.876 272.907C709.876 272.907 722.202 299.152 717.917 313.557L717.919 313.572Z" fill="#FE957A"/>
<path d="M616.716 288.358C616.716 288.358 616.959 297.46 611.117 301.433C611.117 301.433 613.048 305.073 616.6 305.816C616.6 305.816 622.317 298.828 622.732 290.933C622.732 290.933 620.774 288.56 616.716 288.358Z" fill="#222453"/>
<path d="M663.354 307.898C664.185 310.897 665.34 313.746 666.883 316.456C667.21 317.03 666.337 317.588 666.01 317.014C664.43 314.232 663.221 311.297 662.369 308.225C662.191 307.594 663.176 307.267 663.354 307.898Z" fill="#FF7E6F"/>
<path d="M663.644 309.634C662.605 312.329 661.996 315.017 661.77 317.882C661.72 318.533 660.681 318.594 660.731 317.942C660.97 314.881 661.612 312.039 662.729 309.172C662.967 308.564 663.883 309.026 663.644 309.634Z" fill="#FF7E6F"/>
<path d="M729.787 302.628C723.74 311.993 712.581 325.946 696.732 332.301L677.799 294.094C677.799 294.094 694.496 279.702 709.099 273.863C718.36 270.163 722.121 274.35 726.511 278.181C733.595 284.35 734.874 294.761 729.788 302.643L729.787 302.628Z" fill="#F58713"/>
<path d="M680.424 292.676C686.92 304.948 693.416 317.221 699.925 329.477C700.219 330.024 701.141 329.672 700.846 329.111C694.35 316.838 687.854 304.565 681.344 292.309C681.051 291.763 680.129 292.114 680.424 292.676Z" fill="#FFF8ED"/>
<path d="M614.028 290.988C615.326 286.689 613.477 282.064 609.533 279.819C608.482 279.219 607.232 278.621 605.751 278.028C602.966 276.916 596.494 274.05 594.041 272.865C591.587 271.68 590.079 270.427 589.474 272.286C588.869 274.145 597.234 279.872 597.234 279.872C597.234 279.872 581.74 277.283 579.772 279.728C577.804 282.159 583.255 282.495 583.255 282.495C583.255 282.495 576.644 282.772 576.461 284.715C576.277 286.658 583.124 286.616 583.124 286.616C583.124 286.616 577.513 287.257 577.114 288.843C576.715 290.428 581.043 290.562 583.276 290.456C583.276 290.456 578.123 291.6 578.32 293.329C578.502 295.059 583.246 293.62 586.392 293.42C589.553 293.204 597.267 292.89 600.215 295.508C601.381 296.55 602.748 297.078 604.134 297.288C608.541 297.971 612.767 295.192 614.043 290.986L614.028 290.988Z" fill="#FE957A"/>
<path d="M583.391 282.814C585.703 282.386 588.003 282.335 590.324 282.704C590.745 282.773 590.841 282.117 590.42 282.048C588.054 281.683 585.675 281.711 583.303 282.159C582.88 282.241 582.968 282.896 583.391 282.814Z" fill="#FF7E6F"/>
<path d="M584.23 286.79C586.038 286.557 587.85 286.383 589.65 286.768C590.01 286.841 590.085 286.293 589.725 286.219C587.879 285.839 586.005 286.003 584.151 286.24C583.787 286.287 583.866 286.837 584.23 286.79Z" fill="#FF7E6F"/>
<path d="M584.09 290.807C586.017 290.352 587.959 290.258 589.933 290.522C590.368 290.574 590.464 289.918 590.029 289.866C588.008 289.591 586.005 289.691 584.017 290.151C583.596 290.248 583.684 290.903 584.105 290.806L584.09 290.807Z" fill="#FF7E6F"/>
<path d="M597.615 280.712C599.769 282.691 602.33 284.048 605.188 284.761C605.675 284.884 605.778 284.122 605.291 283.999C602.559 283.32 600.122 281.983 598.083 280.099C597.715 279.755 597.247 280.368 597.599 280.713L597.615 280.712Z" fill="#FF7E6F"/>
<path d="M599.131 282.596C599.416 287.072 602.281 291.037 606.49 292.791C606.953 292.992 607.259 292.272 606.797 292.087C602.843 290.431 600.182 286.704 599.921 282.497C599.878 282.004 599.119 282.101 599.147 282.595L599.131 282.596Z" fill="#FF7E6F"/>
<path d="M591.253 281.208C589.257 284.197 588.923 287.93 590.421 291.186C590.629 291.634 591.356 291.345 591.147 290.882C589.779 287.885 590.03 284.431 591.877 281.665C592.148 281.25 591.538 280.776 591.252 281.193L591.253 281.208Z" fill="#FF7E6F"/>
<path d="M711.018 368.129L799.656 375.081C799.656 375.081 800.618 365.709 800.73 351.549C800.774 345.9 800.688 339.479 800.346 332.584C800.023 325.733 799.431 318.438 798.499 310.948C797.154 300.136 795.056 288.969 791.879 278.288C789.808 271.303 780.374 266.529 769.98 262.726C767.109 261.683 764.453 260.816 762.071 260.106C754.975 258.002 750.412 257.288 750.412 257.288C750.412 257.288 742.429 257.158 730.733 261.644C729.989 261.92 729.261 262.209 728.549 262.497C715.933 267.53 705.935 273.508 706.69 277.055C707.131 279.109 706.412 290.026 708.629 303.425C709.828 310.637 710.526 318.434 711.564 326.261C711.564 326.261 711.564 326.261 711.566 326.291C711.622 326.753 711.694 327.228 711.75 327.69C714.333 347.907 715.459 366.747 711.015 368.099L711.018 368.129Z" fill="#FF921E"/>
<path d="M740.16 273.539C751.229 272.24 758.788 264.368 762.103 260.118C755.007 258.014 750.444 257.3 750.444 257.3C750.444 257.3 742.46 257.17 730.764 261.656C730.02 261.932 729.293 262.221 728.581 262.509C728.292 267.111 729.365 274.8 740.174 273.523L740.16 273.539Z" fill="#FFF8ED"/>
<path d="M761.325 266.148C756.013 270.572 750.323 275.059 743.501 276.966C737.654 278.606 731.109 278.231 726.081 274.666C725.704 274.398 726.211 273.872 726.588 274.14C731.599 277.691 738.265 277.861 744.021 276.062C750.389 274.06 755.75 269.843 760.791 265.668C761.149 265.366 761.699 265.86 761.326 266.163L761.325 266.148Z" fill="#FFF8ED"/>
<path d="M800.747 351.562C801.02 356.792 801.558 362.766 802.113 368.935L802.326 371.37C802.497 373.327 802.669 375.284 802.823 377.228C803.108 380.831 803.373 384.39 803.537 387.839C803.55 387.988 803.563 388.137 803.561 388.288C803.696 391.242 803.776 394.08 803.763 396.746C803.701 405.874 802.54 412.96 799.032 415.179C786.47 423.113 690.652 435.214 698.401 403.525C698.899 401.494 699.444 399.113 700.012 396.474C700.568 393.881 701.163 391.029 701.776 388.025C702.622 383.826 703.488 379.325 704.345 374.719C704.835 372.071 705.324 369.409 705.798 366.748C709.03 348.747 711.744 331.303 711.627 327.685C711.605 326.905 711.579 326.44 711.57 326.336L796.706 311.872C796.706 311.872 798.054 320.606 799.268 332.723C799.845 338.439 800.38 344.91 800.748 351.577L800.747 351.562Z" fill="#FF921E"/>
<path d="M706.944 283.641C709.351 284.469 711.836 285.125 714.325 285.66C728.494 288.726 743.59 289.046 758.039 288.279C769.918 287.646 781.702 285.922 793.277 283.209C792.841 281.561 792.389 279.914 791.895 278.301C791.611 277.333 791.161 276.409 790.608 275.524C786.181 276.543 781.725 277.4 777.239 278.093C762.783 280.352 748.066 281.037 733.486 279.949C724.828 279.307 715.372 278.493 707.208 275.067C706.764 275.784 706.577 276.462 706.706 277.053C706.887 277.896 706.876 280.23 706.943 283.626L706.944 283.641Z" fill="#FFF8ED"/>
<path d="M707.968 298.68C708.15 300.23 708.381 301.821 708.647 303.453C708.879 304.878 709.098 306.334 709.303 307.792C711.324 308.428 713.367 308.957 715.435 309.408C729.605 312.489 744.715 312.793 759.15 312.042C772.222 311.349 785.194 309.326 797.861 306.111C797.474 303.45 797.041 300.778 796.561 298.095C790.552 299.645 784.472 300.899 778.335 301.858C763.879 304.116 749.162 304.801 734.582 303.713C725.801 303.067 716.19 302.236 707.953 298.682L707.968 298.68Z" fill="#FFF8ED"/>
<path d="M711.324 331.776C711.529 331.834 712.084 332.026 712.288 332.083C713.689 332.473 715.103 332.831 716.527 333.128C730.696 336.193 745.808 336.512 760.241 335.746C773.313 335.054 786.285 333.031 798.967 329.814C799.374 329.718 799.794 329.606 800.199 329.496C800.041 326.815 799.848 324.077 799.603 321.283C799.078 321.419 798.553 321.571 798.043 321.706C791.916 323.31 785.7 324.592 779.441 325.561C764.985 327.819 750.268 328.505 735.688 327.417C729.921 326.988 723.795 326.485 717.936 325.176C715.633 324.67 713.382 324.039 711.192 323.237C711.311 324.251 711.444 325.248 711.579 326.259C711.579 326.259 711.579 326.259 711.582 326.289C711.591 326.394 711.616 326.858 711.638 327.639C711.678 328.614 711.347 329.923 711.338 331.76L711.324 331.776Z" fill="#FFF8ED"/>
<path d="M707.964 354.29C709.376 354.799 712.581 355.617 714.028 356.002C715.223 356.319 716.432 356.62 717.637 356.876C731.806 359.942 746.918 360.26 761.351 359.494C774.652 358.782 787.834 356.711 800.723 353.4C800.754 353.398 800.8 353.394 800.829 353.376C800.806 352.761 800.767 352.147 800.73 351.548C800.748 349.469 800.743 347.302 800.728 345.03C800.594 345.072 800.458 345.099 800.339 345.139C793.825 346.883 787.219 348.274 780.537 349.325C766.081 351.584 751.364 352.269 736.784 351.181C729.255 350.621 721.1 349.934 713.73 347.508C712.749 347.187 710.317 345.895 709.377 345.51C708.941 348.077 708.437 351.448 707.949 354.291L707.964 354.29Z" fill="#FFF8ED"/>
<path d="M802.098 368.936L802.311 371.371C802.482 373.328 802.654 375.285 802.808 377.229C790.492 380.248 776.248 382.473 763.665 383.137C749.232 383.903 734.12 383.584 719.951 380.519C714.721 379.38 709.569 377.724 704.905 375.151C704.707 375.003 704.509 374.839 704.327 374.69C704.817 372.043 705.306 369.38 705.78 366.72C714.927 371.896 728.987 374.068 739.083 374.825C752.783 375.855 766.59 375.309 780.197 373.351C781.077 373.229 781.956 373.092 782.835 372.955C789.062 371.973 795.218 370.712 801.301 369.126C801.556 369.059 801.811 368.991 802.082 368.922L802.098 368.936Z" fill="#FFF8ED"/>
<path d="M803.545 388.29C803.681 391.243 803.76 394.082 803.748 396.747C790.664 399.774 773.167 402.554 760.296 403.274C745.058 404.14 729.124 403.908 714.196 400.939C709.286 399.954 704.448 398.555 699.996 396.476C700.553 393.883 701.148 391.031 701.761 388.027C711.284 393.471 723.471 394.422 734.438 395.119C748.882 396.053 763.45 395.426 777.817 393.386C778.743 393.26 779.683 393.117 780.608 392.976C787.186 391.964 793.692 390.657 800.123 389.026C800.303 388.98 802.104 388.672 803.545 388.29Z" fill="#FFF8ED"/>
<path d="M768.685 307.263C768.685 307.263 773.869 348.96 771.611 355.45C769.352 361.941 708.617 372.643 708.617 372.643L709.52 382.967C709.52 382.967 767.529 389.739 792.76 376.678C818.447 363.381 800.122 298.596 800.122 298.596L768.685 307.263Z" fill="#FE957A"/>
<path d="M715.007 374.568C717.079 378.06 715.641 382.522 712.143 384.679C710.292 385.82 708.374 387.237 707.215 388.738C704.428 392.354 702.165 397.385 700.232 398.818C697.376 400.935 697.77 397.182 697.883 396.72C698.609 393.782 700.326 389.883 700.326 389.883C700.326 389.883 695.546 395.992 694.788 398.918C694.015 401.846 691.489 403 690.616 399.87C689.744 396.74 693.577 388.938 695.241 387.061C695.241 387.061 691.312 390.085 690.136 394.026C688.96 397.968 688.01 399.225 686.791 400.385C685.571 401.546 683.468 398.93 685.248 393.46C687.029 388.005 689.11 386.333 691.135 384.379C691.135 384.379 689 385.259 685.9 387.397C682.786 389.551 681.81 394.198 679.569 394.559C677.281 394.925 678.644 389.612 680.751 387.004C682.842 384.397 684.151 382.326 687.917 380.25C691.682 378.16 695.358 376.287 697.907 375.583C700.471 374.862 709.222 371.13 712.796 372.474C713.717 372.815 714.447 373.609 715.025 374.597L715.007 374.568Z" fill="#FE957A"/>
<path d="M704.921 373.403C704.921 373.403 696.827 372.892 694.351 374.087C691.891 375.281 687.527 375.798 688.197 377.486C688.867 379.173 694.206 378.39 694.206 378.39L704.907 373.42L704.921 373.403Z" fill="#FE957A"/>
<path d="M771.921 356.538C775.08 356.833 778.131 357.47 781.125 358.502C781.758 358.718 782.167 357.779 781.534 357.563C778.462 356.507 775.315 355.834 772.079 355.53C771.413 355.468 771.255 356.476 771.921 356.538Z" fill="#FF7E6F"/>
<path d="M775.713 356.688C778.243 355.232 780.855 354.19 783.697 353.49C784.343 353.328 784.224 352.315 783.577 352.477C780.54 353.224 777.779 354.324 775.089 355.884C774.52 356.22 775.143 357.023 775.713 356.688Z" fill="#FF7E6F"/>
<path d="M792.821 276.414C799.541 285.28 808.779 300.459 809.078 317.218L765.842 320.94C765.842 320.94 759.207 303.742 758.932 288.306C758.752 278.521 763.093 273.369 768.344 270.712C776.786 266.421 787.161 268.96 792.821 276.414Z" fill="#F58713"/>
<path d="M765.281 316.638C779.4 315.267 793.518 313.882 807.652 312.51C808.293 312.454 808.176 311.47 807.537 311.541C793.418 312.912 779.3 314.298 765.166 315.67C764.526 315.726 764.642 316.709 765.281 316.638Z" fill="#FFF8ED"/>
<path d="M756.649 261.333C756.649 261.333 735.186 277.964 730.487 264.285L732.932 254.301L734.537 247.717L735.669 243.102L754.287 239.08C753.77 247.57 754.671 254.883 756.647 261.318L756.649 261.333Z" fill="#FE957A"/>
<path d="M750.185 246.092C742.24 256.226 734.826 257.688 732.337 256.807L734.567 247.715L750.2 246.091L750.185 246.092Z" fill="#23141E"/>
<path d="M725.895 224.086C725.895 224.086 723.499 221.631 721.547 219.333C719.595 217.035 722.021 215.618 722.021 215.618C722.021 215.618 714.211 207.284 716.751 203.66C719.291 200.035 723.289 205.526 723.289 205.526C723.289 205.526 719.658 196.33 723.199 195.9C726.739 195.454 730.683 203.66 730.683 203.66C730.683 203.66 728.309 196.717 733.445 197.833C738.58 198.95 739.359 204.166 739.359 204.166C739.359 204.166 752.554 203.824 757.219 210.612C757.219 210.612 761.983 208.178 763.163 211.311C764.343 214.444 761.765 215.001 761.765 215.001C761.765 215.001 765.839 215.036 764.167 218.569C762.51 222.102 761.023 220.907 761.023 220.907C761.023 220.907 763.106 222.772 760.771 230.323C758.435 237.858 751.589 238.608 751.589 238.608L725.899 224.13L725.895 224.086Z" fill="#C25D34"/>
<path d="M756.113 233.967C756.086 234.707 756.009 235.407 755.896 236.049C755.643 237.546 755.174 238.852 754.446 240.195C753.494 241.949 752.102 243.772 750.175 246.154C747.155 249.91 742.311 251.252 737.649 251.163C725.295 250.935 724.386 242.644 725.724 230.198C726.552 222.463 724.438 218.132 726.496 215.152C726.638 215.019 726.765 214.887 726.907 214.755C730.229 211.649 734.693 209.994 739.269 209.985C740.16 209.982 740.992 210.015 741.811 210.064C741.996 210.077 742.182 210.091 742.352 210.107C742.428 210.1 742.506 210.108 742.569 210.133C742.77 210.145 742.972 210.173 743.173 210.185C743.313 210.203 743.468 210.22 743.608 210.238C743.933 210.269 744.244 210.317 744.556 210.365C754.398 211.898 756.7 217.853 756.903 223.677C757.034 227.639 756.192 231.537 756.097 233.954L756.113 233.967Z" fill="#FE957A"/>
<path d="M724.053 217.247C724.053 217.247 724.433 220.36 725.287 220.466C726.156 220.571 728.219 215.001 729.802 215.013C731.385 215.025 731.877 217.135 734.236 217.244C736.596 217.354 736.005 214.29 741.35 215.508C746.679 216.728 741.894 220.85 745.621 223.775C749.349 226.701 745.257 231.379 748.788 231.703C752.318 232.026 758.156 230.808 758.196 224.241C758.236 217.674 751.718 206.382 737.1 208.187C725.141 209.67 724.053 217.247 724.053 217.247Z" fill="#C25D34"/>
<path d="M733.886 226.939C732.843 228.355 731.799 229.771 730.742 231.204C730.591 231.413 730.602 231.713 730.817 231.89C731.507 232.401 732.11 232.966 732.642 233.612C733.037 234.089 733.831 233.508 733.436 233.03C732.836 232.315 732.183 231.695 731.427 231.129C731.446 231.353 731.466 231.577 731.502 231.815C732.545 230.399 733.589 228.983 734.646 227.55C735.017 227.051 734.242 226.442 733.872 226.956L733.886 226.939Z" fill="#23141E"/>
<path d="M736.51 228.833C736.567 229.49 737.011 229.993 737.499 229.95C738.002 229.906 738.367 229.347 738.327 228.704C738.269 228.046 737.826 227.543 737.338 227.586C736.835 227.63 736.469 228.189 736.51 228.833Z" fill="#23141E"/>
<path d="M728.43 228.831C728.488 229.489 728.931 229.992 729.419 229.949C729.922 229.905 730.288 229.346 730.247 228.703C730.189 228.045 729.746 227.542 729.258 227.585C728.755 227.629 728.389 228.188 728.43 228.831Z" fill="#23141E"/>
<path d="M743.181 232.569C743.147 233.234 742.069 233.735 740.774 233.683C739.48 233.63 738.446 233.059 738.48 232.393C738.514 231.728 739.592 231.227 740.887 231.279C742.182 231.332 743.215 231.904 743.181 232.569Z" fill="#FF7E6F"/>
<path d="M725.444 233.323C725.869 233.617 726.533 233.83 727.272 233.856C728.567 233.908 729.645 233.408 729.679 232.742C729.713 232.077 728.679 231.505 727.385 231.453C726.676 231.424 726.028 231.571 725.572 231.807L725.444 233.323Z" fill="#FF7E6F"/>
<path d="M737.297 225.195C738.073 224.932 739.172 225.031 739.481 225.923C739.666 226.464 740.162 226.857 740.779 226.712C741.306 226.591 741.774 225.978 741.589 225.437C740.913 223.509 738.826 222.473 736.81 223.131C736.257 223.314 735.856 223.816 736 224.406C736.121 224.922 736.745 225.379 737.297 225.195Z" fill="#C25D34"/>
<path d="M728.189 225.722C728.834 225.018 729.546 224.73 730.492 225.008C731.832 225.403 732.484 223.374 731.161 222.993C729.52 222.504 727.897 222.917 726.732 224.163C725.79 225.164 727.249 226.737 728.189 225.722Z" fill="#C25D34"/>
<path d="M751.542 237.197C753.285 237.286 754.737 236.843 755.911 236.047C755.658 237.545 755.189 238.85 754.461 240.194C753.254 239.562 752.248 238.596 751.543 237.212L751.542 237.197Z" fill="#23141E"/>
<path d="M729.783 236.391C729.783 236.391 732.684 236.198 738.397 235.833C738.397 235.833 737.769 241.819 733.621 241.64C730.105 241.481 729.783 236.391 729.783 236.391Z" fill="white"/>
<path d="M732.918 243.959C733.839 244.3 734.825 244.335 735.612 243.679C736.013 243.342 735.455 242.759 735.07 243.094C734.512 243.564 733.81 243.445 733.174 243.199C732.682 243.017 732.441 243.775 732.933 243.958L732.918 243.959Z" fill="#FF7E6F"/>
<path d="M747.751 234.066C747.164 232.1 747.638 229.966 748.843 228.295C750.42 226.125 753.31 222.816 755.916 223.281C759.753 223.953 760.065 227.343 759.535 230.762C759.004 234.18 756.518 238.598 751.722 237.678C749.333 237.224 748.198 235.668 747.734 234.052L747.751 234.066Z" fill="#FE957A"/>
<path d="M752.382 233.631C752.255 232.182 752.231 230.679 752.834 229.316C753.372 228.095 754.865 226.368 756.452 226.952C756.991 227.146 757.383 226.359 756.859 226.164C755.32 225.606 753.81 226.431 752.84 227.63C751.439 229.348 751.328 231.586 751.512 233.692C751.56 234.245 752.446 234.182 752.396 233.615L752.382 233.631Z" fill="#23141E"/>
<path d="M93.2552 372.106C93.2552 372.106 90.5627 371.529 94.795 364.776C99.0286 358.038 108.666 347.575 108.666 347.575C108.666 347.575 115.128 363.855 93.2552 372.106Z" fill="#090912"/>
<path d="M111.399 355.465L94.2939 331.836L84.263 338.675L100.65 366.913L111.399 355.465Z" fill="#BE3B2D"/>
<path d="M95.1511 333.206C95.1511 333.206 94.7559 327.987 91.3948 325.21C88.0185 322.435 86.0873 319.322 83.4335 317.431C80.7798 315.541 81.7799 319.774 82.766 321.916C83.7674 324.056 84.8724 326.503 83.1024 326.989C81.3311 327.461 66.0647 323.618 63.6898 324.563C61.3136 325.494 63.5849 326.876 63.5849 326.876C63.5849 326.876 60.1625 326.031 59.0998 327.403C58.0511 328.76 60.0424 329.925 60.0424 329.925C60.0424 329.925 57.7262 329.435 57.5486 331.092C57.3849 332.732 69.9362 337.67 69.4937 338.582C69.0499 339.479 63.2999 334.503 61.6911 335.953C60.0823 337.404 64.506 339.335 67.7813 341.306C71.04 343.264 75.1414 344.321 79.0063 343.726C82.8712 343.132 89.6724 344.148 91.9462 340.291C94.2061 336.45 95.1524 333.221 95.1524 333.221L95.1511 333.206Z" fill="#BE3B2D"/>
<path d="M60.6518 329.692C64.5002 330.665 68.298 331.762 72.0288 332.972C72.4713 333.113 72.0537 333.782 71.6112 333.64C67.9274 332.442 64.1931 331.369 60.407 330.405C59.9519 330.295 60.1953 329.566 60.6505 329.677L60.6518 329.692Z" fill="#7C2133"/>
<path d="M63.9952 326.825C67.1245 327.303 70.0996 328.127 72.9193 329.28C73.3657 329.467 72.9341 330.152 72.489 329.98C69.7177 328.853 66.8048 328.039 63.7531 327.568C63.27 327.49 63.5122 326.746 63.9952 326.825Z" fill="#7C2133"/>
<path d="M70.6552 336.584C71.139 333.335 72.3702 330.201 74.3274 327.29C74.6261 326.843 75.3143 327.159 75.0155 327.607C73.1393 330.39 71.9434 333.4 71.4784 336.512C71.3983 337.001 70.5917 337.086 70.6705 336.582L70.6552 336.584Z" fill="#7C2133"/>
<path d="M76.6101 331.787C81.6117 330.492 86.2201 332.076 88.5712 335.95C88.8212 336.349 88.093 336.804 87.843 336.405C85.6718 332.831 81.4066 331.308 76.7656 332.512C76.2552 332.647 76.0844 331.924 76.6101 331.787Z" fill="#7C2133"/>
<path d="M93.2552 372.106C93.2552 372.106 102.996 378.63 114.62 394.218C116.812 397.142 119.11 399.711 121.449 401.87C130.272 410.01 139.764 412.461 146.154 407.025C147.111 406.203 148.007 405.206 148.81 404.022C151.22 400.499 153.773 394.209 156.161 387.271C161.273 372.312 165.535 354.311 165.535 354.311L155.656 336.027L143.119 330.018L142.372 332.718L139.334 347.33L132.208 374.735L108.664 347.56C108.656 347.636 108.648 347.727 108.624 347.804C108.015 352.78 106.323 357.489 103.707 361.647C101.091 365.805 97.5481 369.382 93.2386 372.092L93.2552 372.106Z" fill="#181825"/>
<path d="M121.464 401.868C130.287 410.008 139.779 412.46 146.169 407.023C141.54 403.62 131.508 397.452 123.338 400.816C122.597 401.122 121.983 401.477 121.48 401.867L121.464 401.868Z" fill="#FFF8ED"/>
<path d="M132.703 374.421C135.984 379.267 138.708 384.418 140.842 389.846C141.077 390.428 140.139 390.766 139.904 390.184C137.807 384.828 135.12 379.749 131.891 374.973C131.538 374.447 132.35 373.895 132.702 374.406L132.703 374.421Z" fill="#FFF8ED"/>
<path d="M135.796 379.403C137.625 380.643 139.273 382.095 141.1 383.32C141.623 383.681 140.981 384.414 140.459 384.069C138.63 382.829 136.983 381.377 135.155 380.152C134.632 379.791 135.274 379.058 135.796 379.403Z" fill="#FFF8ED"/>
<path d="M287.683 357.865C287.683 357.865 290.412 356.753 284.697 350.419C278.982 344.084 266.853 334.849 266.853 334.849C266.853 334.849 263.07 353.229 287.683 357.865Z" fill="#090912"/>
<path d="M265.444 343.673L280.06 317.089L290.961 320.892L278.921 353.755L265.444 343.673Z" fill="#BE3B2D"/>
<path d="M279.849 317.484C279.849 317.484 279.221 312.586 281.798 309.38C284.389 306.173 285.581 302.937 287.687 300.675C289.778 298.415 289.662 302.535 289.161 304.701C288.645 306.884 288.092 309.341 289.823 309.461C291.552 309.565 304.936 303.125 307.306 303.535C309.677 303.945 307.845 305.656 307.845 305.656C307.845 305.656 310.854 304.233 312.083 305.285C313.313 306.352 311.689 307.804 311.689 307.804C311.689 307.804 313.746 306.916 314.215 308.41C314.684 309.905 304.016 316.845 304.589 317.593C305.176 318.339 309.532 312.644 311.297 313.679C313.061 314.714 309.329 317.343 306.684 319.773C304.04 322.202 300.46 323.945 296.759 324.134C293.073 324.32 286.97 326.54 284.147 323.415C281.324 320.29 279.834 317.485 279.834 317.485L279.849 317.484Z" fill="#BE3B2D"/>
<path d="M310.935 307.794C307.604 309.395 304.359 311.109 301.184 312.907C300.803 313.121 301.31 313.649 301.692 313.45C304.823 311.671 308.025 309.99 311.298 308.425C311.681 308.24 311.335 307.623 310.952 307.807L310.935 307.794Z" fill="#7C2133"/>
<path d="M307.332 305.761C304.58 306.785 302.021 308.078 299.656 309.669C299.293 309.912 299.818 310.468 300.181 310.226C302.487 308.669 304.987 307.397 307.696 306.407C308.128 306.249 307.765 305.618 307.334 305.776L307.332 305.761Z" fill="#7C2133"/>
<path d="M303.142 315.973C302.074 313.07 300.335 310.407 297.982 308.084C297.612 307.725 297.049 308.136 297.403 308.496C299.672 310.721 301.354 313.269 302.381 316.054C302.542 316.492 303.304 316.425 303.143 315.988L303.142 315.973Z" fill="#7C2133"/>
<path d="M296.723 312.665C291.848 312.414 287.89 314.763 286.459 318.772C286.312 319.191 287.058 319.472 287.221 319.052C288.54 315.338 292.201 313.121 296.722 313.358C297.217 313.39 297.247 312.68 296.737 312.649L296.723 312.665Z" fill="#7C2133"/>
<path d="M287.683 357.865C287.683 357.865 278.615 366.577 269.244 385.175C267.476 388.672 265.539 391.807 263.458 394.533C255.659 404.76 246.103 409.133 238.347 404.573C237.181 403.892 236.058 402.997 234.979 401.902C231.775 398.63 227.902 392.465 224.105 385.587C215.926 370.752 208.082 352.545 208.082 352.545L215.111 331.412L220.265 315.877L223.283 321.755L232.885 340.395L247.058 367.908L266.852 334.834C266.875 334.922 266.912 334.994 266.936 335.097C268.491 340.23 271.157 344.889 274.694 348.795C278.229 352.686 282.635 355.823 287.683 357.865Z" fill="#181825"/>
<path d="M263.443 394.535C255.643 404.761 246.088 409.135 238.331 404.575C242.581 400.123 252.031 391.74 261.287 393.775C262.132 393.957 262.846 394.211 263.458 394.533L263.443 394.535Z" fill="#FFF8ED"/>
<path d="M246.467 367.643C243.895 373.363 241.989 379.311 240.743 385.441C240.617 386.1 241.661 386.279 241.788 385.621C243.011 379.583 244.894 373.712 247.426 368.071C247.695 367.461 246.735 367.018 246.466 367.629L246.467 367.643Z" fill="#FFF8ED"/>
<path d="M244.137 373.493C242.437 375.132 240.97 376.976 239.271 378.615C238.79 379.094 239.601 379.761 240.082 379.282C241.766 377.644 243.248 375.799 244.948 374.16C245.428 373.681 244.617 373.014 244.137 373.493Z" fill="#FFF8ED"/>
<path d="M219.403 387.489L219.275 388.84L218.863 393.438L218.068 402.254C189.354 416.056 163.275 403.449 163.275 403.449C163.757 402.113 163.944 400.214 163.971 398.24C164.014 395.391 163.715 392.331 163.49 390.454C163.361 389.336 163.254 388.638 163.254 388.638L219.388 387.491L219.403 387.489Z" fill="#BE3B2D"/>
<g style="mix-blend-mode:multiply" opacity="0.28">
<path d="M219.275 388.841L218.863 393.438C204.178 396.936 185.562 398.354 163.987 398.239C164.029 395.39 163.731 392.33 163.505 390.453L219.274 388.826L219.275 388.841Z" fill="#5E1927"/>
</g>
<path d="M160.144 411.551C160.144 411.551 146.491 428.086 147.826 451.423C149.632 483.119 168.918 602.962 172.444 625.881C175.837 647.985 184.532 699.612 188.537 723.272C189.686 730.081 196.175 734.722 203.154 733.735L222.742 730.968C229.828 729.972 234.765 723.548 233.789 716.603C226.579 665.103 199.646 471.894 198.839 455.827C197.907 437.272 194.565 414.878 194.565 414.878L160.129 411.553L160.144 411.551Z" fill="#212553"/>
<path d="M258.294 485.098C252.098 467.997 250.744 459.369 245.987 446.779C242.802 445.838 234.354 428.633 231.319 427.303C227.039 425.434 222.865 423.376 218.586 421.522C215.377 420.132 212.194 418.679 209.06 417.102C202.729 413.907 196.097 410.092 191.483 404.579C188.737 409.532 187.52 418.098 188.826 431.969L268.95 718.736C270.159 723.071 274.344 725.956 278.921 725.601C287.023 724.983 299.6 723.717 308.188 721.46C313.204 720.148 316.255 715.169 315.084 710.213C306.452 673.695 267.993 511.859 258.293 485.083L258.294 485.098Z" fill="#212553"/>
<path d="M258.391 572.403C265.279 574.239 272.572 572.803 278.268 568.556C278.816 568.147 278.204 567.297 277.656 567.706C272.177 571.799 265.229 573.144 258.593 571.376C257.931 571.193 257.746 572.233 258.406 572.401L258.391 572.403Z" fill="#0E1826"/>
<path d="M203.906 468.067L202.889 468.349L275.234 721.254L276.251 720.971L203.906 468.067Z" fill="#0E1826"/>
<path d="M155.696 421.816C155.696 421.816 160.521 412.708 163.06 400.819C163.06 400.819 185.112 408.66 219.14 400.113C219.14 400.113 232.977 418.517 245.987 446.779C245.987 446.779 164.591 435.173 155.696 421.816Z" fill="#212553"/>
<path d="M210.44 411.983C213.133 428.367 227.217 440.819 243.036 445.185C243.698 445.368 243.884 444.343 243.223 444.16C227.877 439.933 214.11 427.77 211.492 411.891C211.389 411.238 210.321 411.316 210.44 411.983Z" fill="#0E1826"/>
<path d="M177.634 413.95C178.107 421.812 175.422 429.755 170.042 435.675C164.677 441.594 156.938 445.131 148.914 445.592C148.226 445.637 148.317 446.668 149.004 446.623C157.317 446.137 165.29 442.458 170.853 436.342C176.416 430.225 179.167 421.99 178.686 413.858C178.642 413.185 177.59 413.277 177.619 413.952L177.634 413.95Z" fill="#0E1826"/>
<path d="M192.987 436.347C195.14 448.834 197.624 461.247 199.776 473.734C199.894 474.386 200.947 474.309 200.843 473.641C198.691 461.154 196.207 448.741 194.055 436.254C193.936 435.602 192.883 435.679 192.987 436.347Z" fill="#0E1826"/>
<path d="M198.194 436.87C199.101 440.389 199.842 443.937 200.387 447.533C200.615 449.093 200.894 450.695 200.956 452.285C201.038 454.099 200.298 457.581 197.566 456.556C196.931 456.31 196.475 457.253 197.111 457.499C200.764 458.865 202.208 454.659 201.998 451.908C201.606 446.718 200.507 441.531 199.191 436.497C199.027 435.849 198.03 436.222 198.193 436.856L198.194 436.87Z" fill="#0E1826"/>
<path d="M162.057 410.767C165.582 413.665 171.049 413.653 175.414 414.039C180.987 414.53 186.587 414.808 192.18 414.65C202.89 414.345 213.798 412.442 223.343 407.422C223.945 407.099 223.334 406.264 222.731 406.573C213.567 411.379 203.069 413.23 192.778 413.589C187.388 413.774 181.991 413.539 176.622 413.091C172.258 412.72 166.295 412.865 162.753 409.953C162.224 409.518 161.541 410.315 162.071 410.751L162.057 410.767Z" fill="#0E1826"/>
<path d="M142.557 337.112C143.542 343.981 147.822 352.172 151.379 358.425C152.994 361.249 154.407 364.934 155.642 368.875C159.273 380.526 161.204 394.342 161.204 394.342C187.045 393.18 216.159 393.598 223.655 390.263C223.655 390.263 223.842 388.365 224.107 385.602C224.543 381.108 225.206 374.291 225.711 369.52C226.449 362.681 226.876 351.067 226.144 339.359C226.062 337.891 225.949 336.425 225.822 334.976C225.409 330.255 224.538 325.74 223.268 321.757C221.02 314.682 217.539 309.296 213.167 307.436C210.917 306.473 205.974 306.68 200.352 307.383C194.26 308.157 187.359 309.513 182.234 310.624C177.727 311.605 174.585 312.377 174.585 312.377C174.585 312.377 173.984 312.715 172.897 313.277C172.383 313.548 171.766 313.873 171.062 314.251C166.142 316.834 156.833 321.562 148.434 324.932C145.823 325.988 144.169 327.623 143.255 329.645C142.305 331.775 142.145 334.333 142.557 337.112Z" fill="#181825"/>
<path d="M174.644 303.927C174.644 303.927 171.594 296.275 160.317 291.331C149.026 286.402 146.083 268.565 156.804 258.73C159.563 256.201 162.532 255.384 163.922 253.712C172.847 243.01 186.623 248.429 193.348 252.959C201.296 258.3 197.625 265.501 197.256 271.825C196.888 278.15 174.642 303.912 174.642 303.912L174.644 303.927Z" fill="#271518"/>
<path d="M160.812 258.018L155.253 265.053C137.245 258.138 124.64 282.258 124.64 282.258C120.534 280.63 117.432 278.523 115.069 276.276L117.379 271.949L113.804 274.987C111.612 272.574 110.18 270.08 109.266 267.887L114.586 261.972L108.5 265.801C107.667 263.12 107.597 261.274 107.597 261.274C130.815 233.455 160.798 258.034 160.798 258.034L160.812 258.018Z" fill="#271518"/>
<path d="M158.792 256.87C155.668 258.032 153.325 260.57 152.481 263.745C152.345 264.299 151.44 264.137 151.591 263.582C152.5 260.1 155.036 257.304 158.473 256.04C159.024 255.841 159.327 256.673 158.792 256.87Z" fill="black"/>
<path d="M170.083 288.143L170.493 291.072L170.793 293.274L171.092 295.461L174.064 316.608C179.214 321.049 200.339 322.333 197.212 310.638L194.11 304.331L191.288 298.587L190.729 297.461L188.356 292.641L170.083 288.143Z" fill="#BE3B2D"/>
<path d="M171.535 314.044C171.535 314.044 181.106 329.329 195.452 325.289C204.641 322.694 197.227 310.637 197.227 310.637C197.227 310.637 189.606 310.265 182.706 310.402C178.199 311.383 175.057 312.155 175.057 312.155C175.057 312.155 174.456 312.494 173.369 313.055C172.855 313.326 172.238 313.651 171.534 314.029L171.535 314.044Z" fill="#BE3B2D"/>
<path d="M175.889 295.508C186.131 306.188 193.859 308.839 195.903 307.968L190.729 297.461L175.889 295.508Z" fill="#271518"/>
<path d="M164.105 286.001C165.674 288.484 166.929 290.015 168.577 291.466C169.244 292.07 169.986 292.653 170.808 293.273C171.236 293.597 171.664 293.921 172.143 294.3C172.751 294.759 173.423 295.242 174.163 295.795C178.797 299.258 185.257 299.882 188.324 299.298C189.382 299.1 190.39 298.861 191.303 298.585C200.065 296.028 202.732 290.164 197.871 277.447C194.512 268.724 195.643 263.04 192.354 260.211C192.161 260.108 191.951 259.991 191.771 259.871C186.951 257.267 181.264 256.696 175.948 258.094C149.506 265.029 159.939 279.291 164.133 285.969L164.105 286.001Z" fill="#BE3B2D"/>
<path d="M168.577 291.466C169.244 292.07 169.986 292.653 170.809 293.273L171.107 295.46C171.523 295.122 171.872 294.716 172.143 294.3C173.144 292.753 173.26 290.921 173.26 290.921C173.011 290.702 171.794 290.839 170.495 291.088C169.829 291.206 169.15 291.341 168.563 291.482L168.577 291.466Z" fill="#1E0E22"/>
<path d="M190.742 281.638C191.367 281.403 192.465 280.614 192.125 279.365C191.809 278.203 190.637 277.974 189.888 278.025L188.877 276.653C188.755 276.483 188.521 276.443 188.347 276.564C188.174 276.684 188.132 276.914 188.255 277.084L189.388 278.626C189.475 278.738 189.618 278.801 189.754 278.774C189.815 278.769 191.103 278.566 191.374 279.551C191.622 280.462 190.494 280.907 190.449 280.926C190.256 281.003 190.153 281.223 190.231 281.412C190.309 281.601 190.516 281.688 190.71 281.626L190.742 281.638Z" fill="#271518"/>
<path d="M189.311 255.977C189.311 255.977 197.71 259.457 195.458 261.807C193.206 264.156 179.061 254.691 172.609 271.016C170.999 275.086 174.253 278.565 168.017 281.73C161.781 284.895 160.287 284.499 157.548 279.169C154.823 273.837 158.489 259.727 172.149 256.093C185.808 252.459 189.311 255.977 189.311 255.977Z" fill="#271518"/>
<path d="M181.811 260.14C181.811 260.14 183.87 273.494 169.925 277.378C155.978 281.248 162.32 259.452 181.811 260.14Z" fill="#271518"/>
<path d="M181.594 261.348C179.244 256.782 173.486 256.638 168.946 256.885C168.411 256.917 168.341 256.11 168.876 256.078C173.858 255.793 179.83 256.113 182.368 261.07C182.608 261.531 181.834 261.809 181.594 261.348Z" fill="black"/>
<path d="M161.96 269.028C163.57 268.827 166.756 269.075 168.335 269.915C169.592 273.749 175.116 283.337 170.924 285.465C164.688 288.63 165.935 293.218 159.835 283.018C157.516 279.157 156.356 273.447 157.566 269.728C159.017 269.451 160.47 269.203 161.958 269.013L161.96 269.028Z" fill="#271518"/>
<path d="M182.094 277.246C182.979 276.823 184.029 277.062 184.687 277.742C185.194 278.27 186 277.477 185.495 276.964C184.464 275.895 182.875 275.643 181.533 276.272C180.869 276.586 181.43 277.56 182.094 277.246Z" fill="#271518"/>
<path d="M191.652 276.591C192.029 275.625 192.811 275.09 193.849 275.014C194.581 274.95 194.592 273.85 193.859 273.899C192.271 274.008 191.131 274.845 190.553 276.311C190.289 276.981 191.388 277.261 191.652 276.591Z" fill="#271518"/>
<path d="M193.442 290.902C192.471 291.574 191.335 291.929 190.228 291.393C189.668 291.126 190.13 290.273 190.693 290.555C191.479 290.938 192.261 290.568 192.927 290.104C193.433 289.743 193.964 290.555 193.442 290.902Z" fill="#7C2133"/>
<path d="M178.002 283.672C178.238 284.434 179.642 284.687 181.139 284.24C182.636 283.793 183.655 282.801 183.42 282.039C183.184 281.276 181.779 281.023 180.282 281.47C178.786 281.917 177.766 282.909 178.002 283.672Z" fill="#7C2133"/>
<path d="M193.728 279.781C193.964 280.544 195.369 280.797 196.866 280.35C197.569 280.138 198.169 279.799 198.582 279.432C198.357 278.789 198.131 278.132 197.872 277.462C197.87 277.432 197.852 277.403 197.849 277.374C197.322 277.314 196.683 277.385 196.024 277.578C194.527 278.025 193.508 279.018 193.744 279.78L193.728 279.781Z" fill="#7C2133"/>
<path d="M182.18 273.31C181.006 273.232 179.645 273.833 179.544 275.137C179.45 276.349 177.507 276.429 177.599 275.202C177.767 272.914 179.773 271.263 182.121 271.404C183.357 271.491 183.432 273.397 182.18 273.31Z" fill="#271518"/>
<path d="M193.736 272.495C192.757 271.842 191.459 270.872 190.26 271.564C189.179 272.201 188.132 270.591 189.213 269.955C191.128 268.839 192.985 269.7 194.648 270.804C195.675 271.482 194.778 273.171 193.736 272.495Z" fill="#271518"/>
<path d="M194.925 283.094C194.925 283.094 191.569 284.772 184.758 285.052C184.758 285.052 187.059 290.631 191.816 289.176C195.84 287.936 194.94 283.092 194.94 283.092L194.925 283.094Z" fill="white"/>
<path d="M175.586 286.954C175.653 284.915 174.67 282.984 173.066 281.679C170.999 279.994 167.373 277.526 164.979 278.608C161.448 280.212 162.002 283.551 163.369 286.713C164.736 289.875 168.248 293.497 172.644 291.426C174.842 290.391 175.531 288.614 175.586 286.954Z" fill="#BE3B2D"/>
<path d="M171.257 289.094L176.18 294.444C176.435 294.723 176.291 295.187 175.898 295.266L169.302 296.596C168.94 296.673 168.619 296.34 168.713 296L170.386 289.321C170.475 288.936 170.986 288.801 171.258 289.109L171.257 289.094Z" fill="#FF9220"/>
<path d="M170.544 287.786C170.345 286.389 170.035 284.955 169.152 283.813C168.37 282.783 166.582 281.479 165.201 282.368C164.735 282.664 164.187 282.02 164.651 281.708C165.973 280.84 167.595 281.3 168.781 282.205C170.493 283.515 171.106 285.614 171.391 287.637C171.468 288.172 170.62 288.306 170.542 287.771L170.544 287.786Z" fill="#271518"/>
<path d="M178.752 269.952C178.752 269.952 178.381 272.724 176.054 277.91C173.869 282.783 175.532 285.814 178.163 289.378C180.794 292.941 174.767 297.789 174.767 297.789C174.767 297.789 176.544 291.416 173.049 286.754C169.568 282.076 168.569 274.696 171.402 273.018C174.236 271.355 178.737 269.953 178.737 269.953L178.752 269.952Z" fill="#271518"/>
<path d="M169.761 279.365C166.742 276.814 162.483 276.238 158.844 277.836C158.355 278.044 158.074 277.286 158.563 277.078C162.467 275.351 167.072 276.017 170.304 278.73C170.703 279.071 170.173 279.69 169.775 279.348L169.761 279.365Z" fill="black"/>
<path d="M164.21 317.756C164.564 325.131 158.905 331.558 151.344 332.219C148.311 332.484 145.424 331.789 142.981 330.377C142.857 330.719 142.764 331.058 142.672 331.412C145.24 332.843 148.265 333.542 151.421 333.266C159.713 332.541 165.891 325.376 165.227 317.26C164.888 317.425 164.551 317.606 164.197 317.772L164.21 317.756Z" fill="#FFF8ED"/>
<path d="M224.931 324.968C224.71 325.078 224.489 325.188 224.252 325.284C222.847 325.903 221.316 326.308 219.7 326.45C218.694 326.538 217.709 326.519 216.747 326.407C210.289 325.632 205.034 320.522 204.457 313.919C204.237 311.409 204.717 308.988 205.758 306.85C205.362 306.885 204.964 306.904 204.553 306.94C203.605 309.101 203.171 311.517 203.391 314.027C204.007 321.064 209.553 326.525 216.405 327.415C217.508 327.56 218.633 327.597 219.791 327.495C221.453 327.35 223.03 326.941 224.496 326.316C224.807 326.184 225.102 326.052 225.411 325.89L224.93 324.953L224.931 324.968Z" fill="#FFF8ED"/>
<path d="M179.447 327.578C171.124 328.306 164.936 335.531 165.65 343.688C166.364 351.845 173.712 357.886 182.035 357.158C190.358 356.43 196.546 349.205 195.832 341.048C195.119 332.891 187.77 326.85 179.447 327.578ZM181.945 356.127C174.201 356.805 167.366 351.186 166.702 343.596C166.038 336.007 171.794 329.286 179.537 328.609C187.281 327.931 194.116 333.551 194.78 341.14C195.444 348.729 189.689 355.45 181.945 356.127Z" fill="#FFF8ED"/>
<path d="M231.864 349.261C231.269 352.82 229.287 355.974 226.431 358.091C224.383 359.61 221.905 360.61 219.176 360.848C216.219 361.107 213.397 360.451 211.006 359.109C207.131 356.949 204.36 353.022 203.948 348.316C203.356 341.548 207.863 335.479 214.333 333.754C215.114 333.55 215.93 333.403 216.769 333.33C219.528 333.088 222.173 333.655 224.455 334.81C224.793 334.976 225.204 334.759 225.233 334.396C225.245 334.184 225.137 333.998 224.959 333.893C222.5 332.648 219.651 332.039 216.678 332.299C216.008 332.358 215.356 332.46 214.707 332.592C207.398 334.195 202.21 340.911 202.866 348.411C203.35 353.938 206.866 358.493 211.677 360.631C213.978 361.649 216.57 362.13 219.253 361.895C221.935 361.661 224.316 360.775 226.378 359.42C229.514 357.34 231.786 354.16 232.68 350.514C232.413 350.101 232.133 349.704 231.85 349.277L231.864 349.261Z" fill="#FFF8ED"/>
<path d="M160.64 359.993C160.214 360.031 159.789 360.098 159.365 360.165C159.471 360.502 159.578 360.839 159.668 361.162C160.015 361.102 160.365 361.056 160.731 361.024C168.474 360.347 175.31 365.966 175.974 373.555C176.572 380.398 171.933 386.539 165.333 388.17C165.318 388.533 165.304 388.895 165.29 389.258C172.551 387.629 177.694 380.932 177.041 373.462C176.327 365.305 168.979 359.264 160.656 359.992L160.64 359.993Z" fill="#FFF8ED"/>
<path d="M216.39 381.491C216.595 383.836 216.179 386.1 215.297 388.135C215.704 388.054 216.128 387.987 216.536 387.906C217.313 385.896 217.657 383.683 217.457 381.397C216.743 373.24 209.395 367.199 201.072 367.927C192.749 368.655 186.561 375.881 187.274 384.038C187.44 385.935 187.966 387.726 188.783 389.34C189.164 389.307 189.562 389.287 189.945 389.284C189.067 387.674 188.496 385.888 188.328 383.961C187.664 376.371 193.419 369.651 201.163 368.973C208.907 368.296 215.742 373.915 216.406 381.504L216.39 381.491Z" fill="#FFF8ED"/>
<path d="M223.912 386.538C213.708 388.409 203.476 388.913 193.118 389.202C182.453 389.503 171.814 390.087 161.144 390.328C160.454 390.343 160.561 391.388 161.236 391.374C171.89 391.134 182.545 390.548 193.209 390.248C203.567 389.959 213.783 389.441 224.004 387.583C224.669 387.465 224.593 386.418 223.912 386.538Z" fill="#FFF8ED"/>
<path d="M157.217 356.68C161.232 367.634 163.631 379.076 164.325 390.697C164.369 391.37 165.421 391.278 165.377 390.605C164.675 378.894 162.267 367.348 158.214 356.306C157.99 355.679 156.977 356.038 157.216 356.665L157.217 356.68Z" fill="#FFF8ED"/>
<path d="M227.569 340.378C227.341 340.052 227.099 339.742 226.871 339.416C226.353 339.295 225.823 339.206 225.294 339.132C228.761 343.992 232.526 348.751 232.935 354.827C233.357 361.233 230.2 366.237 226.636 371.32C225.229 373.325 223.924 375.261 223.413 377.669C222.868 380.216 223.098 382.845 223.444 385.404C223.534 386.074 224.601 385.98 224.511 385.311C224.135 382.589 223.871 379.752 224.649 377.049C225.487 374.161 227.656 371.743 229.33 369.278C232.336 364.845 234.352 360.138 233.986 354.735C233.615 349.258 230.745 344.722 227.569 340.378Z" fill="#FFF8ED"/>
<path d="M343.595 353.125C343.595 353.125 373.919 402.845 398.305 395.758C418.348 389.94 426.375 321.224 426.375 321.224L413.308 318.815L395.179 357.915L357.621 303.816C357.621 303.816 341.609 339.735 343.579 353.126L343.595 353.125Z" fill="#FE957A"/>
<path d="M413.501 318.557C413.501 318.557 415.36 313.652 419.454 313.038C423.547 312.424 442.753 313.363 447.165 311.472C451.575 309.566 455.95 306.895 456.719 308.483C457.472 310.073 448.335 316.066 445.125 318.711C441.916 321.355 425.091 324.979 425.091 324.979C425.091 324.979 414.593 321.909 413.517 318.57L413.501 318.557Z" fill="#FE957A"/>
<path d="M357.255 301.213L390.225 343.43C390.225 343.43 377.15 372.183 367.569 382.942L367.414 381.164C367.414 381.164 348.025 330.021 357.24 301.215L357.255 301.213Z" fill="#D6BEAB"/>
<path d="M386.963 340.735C380.544 352.166 375.008 364.031 368.589 375.461C368.27 376.031 369.198 376.447 369.502 375.893C375.921 364.463 381.457 352.597 387.876 341.167C388.195 340.597 387.268 340.181 386.963 340.735Z" fill="#212553"/>
<path d="M395.064 358.362C395.455 362.829 395.57 367.305 395.348 371.795C395.318 372.325 396.155 372.236 396.172 371.723C396.379 367.249 396.278 362.757 395.887 358.29C395.841 357.767 395.018 357.839 395.064 358.362Z" fill="#FF7E6F"/>
<path d="M395.436 362.785C394.435 364.514 393.449 366.241 392.449 367.969C392.182 368.429 392.933 368.77 393.2 368.31C394.201 366.582 395.187 364.854 396.187 363.126C396.454 362.666 395.703 362.325 395.436 362.785Z" fill="#FF7E6F"/>
<path d="M371.41 216.155C371.41 216.155 371.257 216.168 371.181 216.175C370.019 216.231 368.709 217.069 368.283 218.16C367.703 219.61 367.721 220.873 368.634 222.178C369.634 223.596 371.332 223.869 372.909 223.46C374.892 222.956 375.97 220.874 375.744 218.997C375.454 216.554 373.003 215.052 370.597 215.293C367.033 215.635 364.197 218.683 363.759 222.108C363.284 225.808 365.675 229.257 369.06 230.737C372.51 232.242 376.641 231.353 379.531 229.098C384.996 224.842 386.893 215.809 383.947 209.699C381.076 203.748 375.032 200.498 368.48 200.228C354.175 199.643 343.053 213.156 344.168 226.592C345.266 239.849 356.881 249.717 367.863 256.027C374.365 259.763 381.599 262.397 388.989 263.813C392.737 264.524 396.53 264.854 400.347 264.942C402.394 264.989 404.433 264.946 406.478 264.978C408.616 265.001 410.686 265.317 412.821 265.145C416.254 264.875 418.508 259.74 415.238 257.648C413.725 256.681 412.481 255.992 410.671 255.669C409.127 255.397 407.526 255.357 405.954 255.299C403.597 255.219 400.707 255.366 398.657 255.29C393.788 255.113 388.871 254.219 384.219 252.835C375.53 250.253 367.378 245.396 360.656 239.315C357.571 236.529 354.843 233.441 353.492 229.585C352.223 225.963 352.148 221.95 353.473 218.311C356.173 210.894 366.204 203.709 373.916 208.981C377.886 211.704 378.486 216.454 376.47 220.62C375.792 222.004 374.328 223.878 372.575 223.505C372.325 223.451 371.65 222.938 371.65 222.938C371.652 222.968 371.655 222.998 371.656 223.013C371.484 223.148 371.548 223.007 371.836 222.606C372.086 223.005 370.403 222.912 371.801 222.91C371.13 222.788 370.46 222.681 369.789 222.559C369.934 222.637 370.078 222.699 370.223 222.777C369.726 222.369 369.213 221.947 368.717 221.539C368.77 221.625 368.824 221.71 368.879 221.811C368.656 221.198 368.418 220.587 368.196 219.974C368.205 220.078 368.182 220.171 368.191 220.275C368.708 219.161 369.242 218.061 369.759 216.947C369.688 217.013 369.617 217.079 369.546 217.146L373.25 216.822L373.025 216.706C373.708 217.67 374.391 218.634 375.075 219.598C375.067 219.508 375.058 219.403 375.05 219.314C374.558 220.365 374.065 221.402 373.558 222.455C373.617 222.42 373.69 222.383 373.749 222.348C376.905 220.506 374.653 216.007 371.44 216.152L371.41 216.155Z" fill="#FF921E"/>
<path d="M480.203 206.637C480.203 206.637 480.355 206.623 480.431 206.617C481.586 206.471 483.021 207.068 483.63 208.068C484.453 209.396 484.655 210.643 483.982 212.087C483.244 213.657 481.619 214.22 479.995 214.092C477.954 213.939 476.531 212.076 476.428 210.189C476.29 207.732 478.442 205.827 480.854 205.646C484.423 205.364 487.745 207.874 488.771 211.171C489.881 214.732 488.126 218.544 485.049 220.589C481.913 222.67 477.69 222.513 474.453 220.794C468.332 217.551 464.894 208.985 466.735 202.456C468.529 196.097 473.917 191.847 480.322 190.443C494.309 187.383 507.608 198.76 508.844 212.185C510.064 225.431 500.338 237.166 490.619 245.287C484.865 250.096 478.198 253.946 471.167 256.623C467.598 257.974 463.921 258.958 460.177 259.707C458.17 260.109 456.154 260.421 454.145 260.807C452.044 261.202 450.06 261.872 447.927 262.074C444.5 262.404 441.388 257.738 444.246 255.11C445.568 253.895 446.673 253.001 448.399 252.368C449.873 251.833 451.443 251.515 452.98 251.184C455.288 250.696 458.16 250.34 460.165 249.908C464.93 248.889 469.616 247.155 473.958 244.983C482.067 240.932 489.251 234.734 494.815 227.578C497.369 224.298 499.519 220.783 500.181 216.751C500.801 212.964 500.178 208.999 498.241 205.646C494.295 198.81 483.168 193.476 476.489 200.007C473.052 203.378 473.286 208.16 475.995 211.912C476.903 213.158 478.67 214.749 480.332 214.077C480.569 213.981 481.144 213.359 481.144 213.359C481.147 213.389 481.149 213.418 481.151 213.433C481.344 213.537 481.256 213.409 480.903 213.064C480.727 213.501 482.367 213.116 480.99 213.357L482.911 212.662C482.782 212.764 482.651 212.851 482.522 212.952C482.94 212.464 483.372 211.96 483.79 211.471C483.752 211.565 483.714 211.659 483.678 211.767C483.79 211.125 483.918 210.482 484.031 209.839C484.04 209.944 484.079 210.031 484.088 210.136C483.385 209.128 482.669 208.137 481.966 207.13C482.048 207.183 482.129 207.236 482.211 207.289L478.506 207.613L478.708 207.46C478.203 208.528 477.697 209.596 477.191 210.664C477.183 210.574 477.174 210.469 477.166 210.38C477.833 211.33 478.499 212.265 479.181 213.214C479.117 213.19 479.038 213.167 478.975 213.142C475.546 211.876 476.983 207.054 480.172 206.639L480.203 206.637Z" fill="#FF921E"/>
<path d="M442.366 263.298C444.44 266.278 443.921 270.538 441.702 273.442C439.484 276.346 435.879 277.986 432.244 278.575C430.321 278.893 428.328 278.932 426.431 278.496C423.468 277.807 420.827 275.885 419.311 273.308C417.78 270.733 417.392 267.53 418.247 264.655" fill="#FF921E"/>
<path d="M427.865 259.599C420.948 266.391 423.693 278.796 424.32 287.367C424.747 293.306 424.332 308.397 434.225 307.531C444.118 306.666 441.175 293.224 440.622 287.431C439.774 278.609 440.434 264.912 432.165 259.238C430.727 258.25 429.127 258.39 427.867 259.614L427.865 259.599Z" fill="#FF921E"/>
<path d="M419.303 296.748L447.047 294.32C455.339 293.595 462.655 299.609 463.366 307.736C463.52 309.499 462.182 311.061 460.383 311.218L409.119 315.703C407.32 315.861 405.732 314.555 405.577 312.792C404.866 304.665 411.026 297.472 419.319 296.746L419.303 296.748Z" fill="#FF921E"/>
<path d="M470.244 179.718L376.542 187.916C376.542 187.916 375.775 217.775 391.185 246.249C403.733 269.418 419.338 270.627 430.892 269.616C442.447 268.605 457.604 264.705 465.939 239.709C476.185 208.99 470.229 179.72 470.229 179.72L470.244 179.718Z" fill="#FF921E"/>
<path d="M418.53 211.009C419.219 209.232 419.892 207.442 420.581 205.666C421.131 204.218 421.681 202.785 422.23 201.337C422.869 199.685 422.852 196.149 424.902 198.694C425.988 200.044 426.806 201.674 427.732 203.128C428.195 203.856 431.066 209.626 431.898 209.659L437.371 209.887C438.927 209.947 440.485 210.021 442.057 210.079C442.997 210.118 446.435 209.38 446.667 210.805C446.773 211.488 443.542 214.406 442.984 215.056C441.089 217.27 439.195 219.498 437.299 221.711C438.367 225.486 439.389 229.266 440.486 233.024C441.211 235.519 439.861 235.366 437.698 234.698C435.978 234.171 434.428 233.313 432.774 232.66C430.943 231.932 429.099 231.22 427.269 230.492C425.569 231.604 423.868 232.701 422.168 233.813C421.239 234.421 415.857 238.746 414.893 238.093C413.914 237.426 415.18 230.661 415.26 229.465C415.389 227.602 415.534 225.753 415.663 223.89C414.015 222.604 412.367 221.333 410.734 220.046C409.119 218.787 406.776 217.998 405.696 216.181C404.254 213.748 407.149 213.826 408.997 213.363C412.169 212.574 415.343 211.799 418.53 211.009Z" fill="#D66F00"/>
<path d="M420.259 211.806C421.333 208.987 422.409 206.183 423.483 203.365C423.858 202.383 424.219 201.418 424.451 200.39C424.485 200.251 424.781 199.412 424.712 199.328C424.781 199.412 423.358 199.477 423.322 199.766C423.306 199.933 423.983 200.656 424.09 200.828C426.084 203.769 427.385 207.238 429.566 210.043C430.898 211.748 432.354 211.531 434.45 211.618C437.133 211.73 439.893 212.03 442.571 211.916C443.199 211.891 444.125 211.946 444.725 211.773C444.844 211.732 445.134 211.888 445.22 211.82C445.099 211.319 444.978 210.802 444.857 210.301C444.857 210.301 444.858 210.316 444.859 210.331C444.635 210.396 444.22 211.095 444.037 211.291C442.817 212.617 441.513 213.86 440.342 215.227C439.311 216.432 438.294 217.635 437.262 218.824C436.412 219.816 435.262 220.715 435.459 222.098C435.877 225.117 437.149 228.242 437.99 231.18C438.166 231.796 438.303 233.184 438.697 233.647C439.004 233.996 438.295 234.495 439.234 233.645C440.145 232.813 439.658 233.397 439.33 233.155C439.019 232.941 438.262 232.887 437.897 232.753C437.168 232.501 436.448 232.173 435.745 231.858C434.355 231.242 432.953 230.672 431.538 230.118C430.296 229.625 428.475 228.474 427.119 228.593C425.914 228.698 424.611 229.956 423.622 230.585C422.618 231.23 421.598 231.861 420.631 232.563C419.343 233.473 418.108 234.454 416.77 235.309C416.479 235.5 415.29 235.951 415.129 236.22C414.954 236.507 413.643 235.733 415.673 236.64C417.462 237.431 416.27 237.144 416.461 236.872C416.57 236.712 416.427 235.956 416.439 235.745C416.496 234.114 416.783 232.478 417.01 230.862C417.143 229.917 417.213 228.963 417.283 228.008C417.376 226.615 417.846 224.783 417.527 223.426C417.209 222.069 415.233 221.082 414.163 220.258C413.026 219.379 411.917 218.467 410.698 217.7C410.064 217.304 409.404 216.956 408.799 216.542C408.407 216.275 407.794 215.41 407.428 215.262C407.376 215.191 407.339 215.119 407.286 215.048C407.181 215.253 407.076 215.458 406.97 215.648C407.082 215.699 407.343 215.525 407.45 215.516C407.881 215.523 408.403 215.342 408.826 215.26C412.311 214.549 415.759 213.57 419.216 212.71C421.592 212.126 420.256 208.615 417.895 209.198C414.528 210.034 411.155 210.992 407.758 211.665C406.036 211.996 403.952 212.405 403.496 214.386C402.987 216.644 405.108 218.596 406.803 219.712C409.475 221.451 411.942 223.312 414.463 225.274C414.242 224.676 414.037 224.092 413.816 223.494C413.596 226.6 413.296 229.667 412.921 232.756C412.69 234.673 411.873 238.327 413.904 239.594C415.903 240.85 418.627 238.624 420.19 237.539C422.912 235.645 425.621 233.767 428.411 231.957L426.491 232.125C429.561 233.332 432.582 234.679 435.667 235.884C437.322 236.537 439.743 237.529 441.43 236.448C443.423 235.175 442.434 232.642 441.926 230.88C440.978 227.591 440.074 224.283 439.155 220.976C439.041 221.604 438.941 222.215 438.827 222.842C440.778 220.563 442.658 218.171 444.708 215.974C445.804 214.81 447.096 213.778 447.994 212.45C449.001 210.962 448.673 209.154 446.931 208.373C445.379 207.666 443.592 208.139 441.95 208.147C439.034 208.176 436.064 207.593 433.163 207.787C432.675 207.829 432.322 207.484 432.823 207.937C432.907 208.02 432.422 207.4 432.751 207.823C432.545 207.57 432.366 207.284 432.204 207.012C431.707 206.243 431.251 205.425 430.797 204.622C429.994 203.171 429.191 201.721 428.329 200.291C427.357 198.66 425.877 195.613 423.49 195.897C421.225 196.171 421.093 198.696 420.579 200.367C419.578 203.676 418.096 206.922 416.857 210.147C415.995 212.405 419.453 214.014 420.314 211.741L420.259 211.806Z" fill="#FFBA4E"/>
<path d="M389.729 203.804C389.215 204.948 388.682 206.063 388.499 207.298C388.296 208.671 388.251 210.09 388.187 211.466C388.053 214.142 388.273 216.832 388.612 219.482C389.294 224.812 390.555 230.106 392.708 235.051C393.632 237.183 395.213 240.326 397.662 241.106C400.473 241.989 400.685 238.613 400.388 236.803C399.941 234.147 398.738 231.633 397.901 229.087C397.104 226.658 396.308 224.228 395.766 221.717C394.499 215.836 394.841 209.739 393.367 203.952C392.947 202.318 390.372 202.378 389.729 203.804Z" fill="#FFCC77"/>
<path d="M455.823 187.814C455.785 188.781 455.897 189.539 456.192 190.447C456.405 191.135 456.59 191.842 456.696 192.344C457.013 193.867 457.364 195.417 457.519 197.195C457.656 198.764 457.69 200.372 457.734 201.933C457.746 202.775 457.979 203.507 457.968 204.261C457.95 205.106 458.11 205.875 458.227 206.692C458.409 207.896 460.172 208.735 461.021 207.547C461.608 206.713 462.169 205.926 462.468 204.951C462.528 204.765 463.049 203.516 462.624 204.275C462.996 203.611 463.227 203.094 463.346 202.346C463.656 200.452 463.676 198.568 463.478 196.659C463.284 194.794 462.945 192.851 462.344 191.067C461.7 189.152 460.967 187.274 459.334 185.987C457.751 184.74 455.882 186.033 455.805 187.786L455.823 187.814Z" fill="#FFCC77"/>
<path d="M271.919 447.356C271.919 447.356 283.013 528.504 283.232 556.47C283.45 584.421 279.348 663.241 298.62 673.191C317.957 683.182 327.964 679.928 336.662 672.949C346.952 664.688 340.774 586.692 339.167 558.14C337.558 529.573 339.529 456.419 328.29 442.424C317.051 428.429 271.919 447.356 271.919 447.356Z" fill="#171C28"/>
<path opacity="0.24" d="M277.64 454.277C282.019 484.318 285.503 514.482 288.103 544.724C289.39 559.785 290.465 574.881 291.308 589.966C292.121 604.527 292.475 619.099 293.21 633.652C293.887 647.005 295.746 661.234 304.841 671.789C305.268 672.279 306.094 671.71 305.666 671.205C297.357 661.56 295.196 648.803 294.386 636.56C293.449 622.34 293.291 608.068 292.539 593.848C290.94 563.985 288.468 534.154 285.13 504.428C283.247 487.643 281.075 470.897 278.646 454.189C278.559 453.549 277.538 453.639 277.625 454.278L277.64 454.277Z" fill="white"/>
<path d="M300.951 464.401C300.951 464.401 329.756 498.161 356.992 547.699C368.098 567.893 338.086 647.098 363.327 661.358C386.563 674.485 399.991 664.157 405.761 651.805C411.157 640.268 412.098 566.226 408.624 545.485C405.135 524.744 377.882 436.038 370.109 429.703C362.335 423.368 300.951 464.401 300.951 464.401Z" fill="#171C28"/>
<path opacity="0.24" d="M333.71 448.543C336.099 469.183 337.332 489.94 337.443 510.705C337.454 511.351 338.459 511.248 338.465 510.616C338.367 489.835 337.119 469.079 334.731 448.454C334.66 447.812 333.638 447.902 333.71 448.543Z" fill="white"/>
<path opacity="0.24" d="M327.384 449.096C327.626 454.329 328.204 459.532 329.192 464.669C329.813 467.912 331.005 472.58 335.358 472.124C336.013 472.066 335.926 471.065 335.27 471.123C330.4 471.639 330.056 464.022 329.559 460.798C328.957 456.892 328.582 452.966 328.405 449.007C328.379 448.362 327.358 448.451 327.384 449.096Z" fill="white"/>
<path opacity="0.24" d="M362.476 442.534C364.989 449.841 370.55 455.813 377.75 458.931C378.357 459.194 378.784 458.284 378.194 458.034C371.233 455.015 365.876 449.267 363.445 442.193C363.237 441.579 362.285 441.933 362.493 442.548L362.476 442.534Z" fill="white"/>
<path opacity="0.24" d="M339.547 499.983C352.725 516.835 366.608 534.709 369.973 556.318C371.659 567.16 369.764 577.803 367.218 588.383C364.674 598.977 362.289 609.468 361.382 620.341C360.382 632.441 360.802 644.613 362.634 656.601C362.736 657.24 363.742 657.152 363.655 656.512C361.98 645.443 361.459 634.214 362.201 623.039C362.935 611.94 365.158 601.178 367.792 590.38C370.301 580.074 372.519 569.613 371.358 558.981C370.219 548.589 366.43 538.638 361.39 529.49C355.505 518.759 347.914 509.067 340.374 499.429C339.976 498.922 339.135 499.493 339.549 500.013L339.547 499.983Z" fill="white"/>
<path d="M369.014 377.516C344.247 394.646 263.962 386.255 263.962 386.255C263.962 386.255 255.84 315.535 261.716 307.554C266.342 301.264 280.392 292.266 292.746 285.811C293.098 285.63 293.465 285.432 293.818 285.251C294.023 285.143 294.215 285.051 294.421 284.942C296.537 283.854 298.586 282.862 300.506 281.986L322.043 285.341C322.043 285.341 323.269 285.836 325.276 286.654C325.451 286.729 325.642 286.802 325.849 286.889C326.088 286.989 326.327 287.088 326.582 287.187C335.137 290.698 353.172 298.273 357.27 301.212C362.694 305.103 364.629 323.886 363.349 338.917C362.068 353.947 369.028 377.5 369.028 377.5L369.014 377.516Z" fill="#D6BEAB"/>
<path d="M316.346 299.763C304.275 297.508 296.907 288.608 294.392 284.959C296.508 283.871 298.556 282.879 300.477 282.003L322.013 285.358C322.013 285.358 323.239 285.853 325.246 286.671C325.422 286.746 325.613 286.819 325.82 286.907C326.059 287.006 326.298 287.106 326.553 287.204C328.395 292.462 328.074 301.959 316.348 299.778L316.346 299.763Z" fill="#212553"/>
<path d="M322.025 280.224L322.024 280.209C322.024 280.209 322.024 280.209 322.04 280.222L322.025 280.224Z" fill="white"/>
<path d="M370.819 441.683C370.551 441.782 370.298 441.879 370.029 441.963C365.323 443.654 359.72 445.274 353.68 446.63C353.409 446.699 353.137 446.753 352.866 446.807C345.979 448.327 338.558 449.534 331.286 450.155C330.996 450.18 330.706 450.206 330.432 450.23C327.321 450.487 324.23 450.622 321.237 450.643C314.758 450.683 309.006 450.945 303.894 451.332C303.604 451.357 303.33 451.381 303.055 451.405C293.337 452.165 286.004 453.319 280.598 454.032C280.308 454.058 280.037 454.112 279.762 454.136C275.039 454.745 271.877 454.946 269.915 454.124C260.923 450.364 262.785 372.795 262.785 372.795L262.907 372.784L276.442 370.365L277.244 370.22L298.75 366.381L299.582 366.233L316.869 363.155L317.701 363.007L340.418 358.957L341.219 358.812L356.979 356.003L357.796 355.856L364.133 354.73C365.424 360.879 366.883 368.083 368.584 375.928C368.708 376.474 368.819 377.036 368.943 377.582C372.661 394.614 377.448 414.398 383.934 432.527C384.85 435.096 379.466 438.518 370.851 441.696L370.819 441.683Z" fill="#D6BEAB"/>
<path d="M362.671 338.193C363.564 352.265 365.89 366.213 369.616 379.827C369.777 380.445 370.745 380.089 370.568 379.472C366.866 365.947 364.562 352.088 363.677 338.105C363.636 337.461 362.615 337.551 362.656 338.194L362.671 338.193Z" fill="#212553"/>
<path d="M277.213 370.223C277.137 376.025 276.969 381.82 276.8 387.616C276.628 393.547 276.455 399.478 276.406 405.414C276.259 421.64 276.94 438.2 280.6 454.047C280.31 454.073 280.038 454.127 279.764 454.151C278.652 449.34 277.81 444.461 277.196 439.547C275.024 422.275 275.518 404.92 276.027 387.563C276.186 381.829 276.36 376.093 276.427 370.367C276.455 368.573 276.466 366.765 276.462 364.974C276.474 343.868 274.804 322.14 266.739 302.463C266.953 302.279 267.167 302.094 267.397 301.909C271.255 311.251 273.732 321.12 275.207 331.138C277.11 344.113 277.406 357.154 277.244 370.22L277.213 370.223Z" fill="#212553"/>
<path d="M299.09 359.382C299.289 361.653 299.428 363.944 299.55 366.221C299.938 373.639 300.003 381.055 299.946 388.481C299.933 390.605 299.905 392.745 299.877 394.885C299.587 413.698 299.162 433.064 303.894 451.332C303.604 451.357 303.33 451.381 303.055 451.405C300.989 443.412 299.885 435.184 299.363 426.935C298.611 415.183 298.933 403.413 299.102 391.641C299.117 390.586 299.132 389.531 299.132 388.477C299.193 381.096 299.118 373.741 298.735 366.383C298.559 362.966 298.305 359.541 297.976 356.122C295.852 333.953 290.823 312.113 283.08 291.203C283.328 291.061 283.562 290.92 283.811 290.778C287.83 301.612 291.134 312.688 293.671 323.952C296.306 335.629 298.125 347.468 299.122 359.394L299.09 359.382Z" fill="#212553"/>
<path d="M331.287 450.17C330.997 450.195 330.708 450.221 330.433 450.245C326.778 439.891 324.199 429.203 322.347 418.391C320.628 408.395 319.518 398.345 318.651 388.26C317.92 379.909 317.402 371.524 316.838 363.143C316.43 356.901 316.007 350.661 315.494 344.443C313.76 323.399 311.734 300.423 299.428 282.487C299.678 282.36 299.93 282.247 300.181 282.135C306.334 291.186 309.936 301.635 312.188 312.276C314.62 323.745 315.632 335.489 316.546 347.166C316.961 352.444 317.316 357.727 317.671 363.01C318.155 370.299 318.622 377.574 319.213 384.854C319.311 385.974 319.411 387.11 319.509 388.23C321.299 409.224 324.246 430.267 331.303 450.184L331.287 450.17Z" fill="#212553"/>
<path d="M353.681 446.645C353.411 446.714 353.139 446.768 352.867 446.822C350.328 438.689 348.431 430.35 346.974 421.956C344.92 410.063 343.718 398.08 342.684 386.082C341.907 377.027 341.238 367.978 340.37 358.932C340.075 355.916 339.764 352.888 339.424 349.877C336.894 327.803 332.565 305.541 322.488 285.513C322.759 285.624 323.142 285.787 323.634 285.969C328.654 296.128 332.285 306.905 334.908 317.921C338.112 331.37 339.862 345.051 341.186 358.785C342.055 367.832 342.74 376.894 343.517 385.949C343.594 386.83 343.672 387.727 343.75 388.608C345.459 408.149 347.844 427.857 353.695 446.629L353.681 446.645Z" fill="#212553"/>
<path d="M370.819 441.683C370.551 441.782 370.299 441.88 370.029 441.963C367.494 434.583 365.571 426.998 364.086 419.33C361.707 407.059 360.39 394.634 359.27 382.192C358.491 373.454 357.817 364.706 356.946 355.976C356.798 354.454 356.634 352.932 356.47 351.411C355.225 339.989 353.567 328.588 350.823 317.417C349.487 311.979 347.909 306.577 345.944 301.329C345 298.793 343.907 296.299 342.564 293.948C342.98 294.137 343.395 294.312 343.811 294.501C345.004 296.73 346.01 299.096 346.878 301.474C349.095 307.497 350.837 313.712 352.26 319.971C354.969 331.792 356.556 343.786 357.747 355.831C358.615 364.516 359.299 373.218 360.074 381.896C360.25 383.913 360.428 385.945 360.635 387.959C362.376 406.097 364.897 424.378 370.802 441.67L370.819 441.683Z" fill="#212553"/>
<path d="M270.677 356.96C270.677 356.96 243.716 386.762 241.84 393.942C240.367 399.58 280.201 447.911 280.201 447.911L271.671 461.197C271.671 461.197 205.749 407.17 209.584 390.26C211.233 382.95 222.343 349.116 245.104 328.187L270.663 356.977L270.677 356.96Z" fill="#FE957A"/>
<path d="M261.014 452.103C261.014 452.103 265.845 442.362 273.868 439.613L277.142 443.677C277.142 443.677 267.896 449.65 265.236 456.295C265.236 456.295 261.338 454.574 261.013 452.088L261.014 452.103Z" fill="#171C28"/>
<path d="M268.135 453.964L269.706 452.607C271.276 451.235 271.015 448.428 269.125 446.32C267.221 444.214 264.403 443.617 262.834 444.989L260.982 446.641L261.808 447.487L267.543 453.338L268.15 453.963L268.135 453.964Z" fill="#0A0D14"/>
<path d="M268.135 453.964C269.705 452.592 269.444 449.785 267.554 447.677C265.65 445.571 262.848 444.973 261.263 446.346C259.693 447.717 259.954 450.525 261.844 452.633C263.748 454.739 266.55 455.337 268.135 453.964Z" fill="#171C28"/>
<path d="M266.629 452.907C267.658 452.019 267.482 450.183 266.255 448.8C265.014 447.433 263.182 447.036 262.154 447.924C261.125 448.812 261.301 450.648 262.528 452.031C263.769 453.398 265.601 453.795 266.629 452.907Z" fill="white"/>
<path d="M241.632 392.966C238.345 389.806 234.216 387.729 229.676 386.937C228.709 386.765 228.423 388.236 229.39 388.407C233.68 389.161 237.524 391.128 240.642 394.122C241.347 394.798 242.321 393.643 241.632 392.966Z" fill="#FF7E6F"/>
<path d="M234.17 385.099C235.871 386.982 237.221 389.077 238.223 391.398C238.608 392.283 240.037 391.766 239.651 390.867C238.608 388.429 237.2 386.204 235.414 384.222C234.768 383.511 233.523 384.373 234.169 385.084L234.17 385.099Z" fill="#FF7E6F"/>
<path d="M296.583 456.609C296.583 456.609 296.331 457.233 295.899 458.265C292.355 463.934 288.195 469.235 283.501 474.042C277.796 472.388 270.426 460.312 270.426 460.312L277.483 444.581C277.483 444.581 290.577 445.723 300.785 452.839C305.905 456.411 291.202 452.865 291.202 452.865L296.567 456.595L296.583 456.609Z" fill="#FE957A"/>
<path d="M297.094 454.893C293.615 462.709 288.415 469.637 281.837 475.211C281.351 475.63 281.93 476.452 282.43 476.017C289.152 470.341 294.48 463.296 298.022 455.323C298.277 454.729 297.365 454.312 297.109 454.892L297.094 454.893Z" fill="white"/>
<path d="M272.841 297.775C253.033 306.102 237.36 326.41 229.5 340.15L266.751 369.151C266.751 369.151 279.651 359.984 282.443 339.402C285.5 316.764 272.841 297.775 272.841 297.775Z" fill="#D6BEAB"/>
<path d="M233.803 336.492C246.46 345.621 258.609 355.442 270.489 365.527C270.987 365.951 271.642 365.186 271.144 364.763C259.264 354.677 247.115 344.856 234.458 335.727C233.934 335.351 233.279 336.116 233.803 336.492Z" fill="#212553"/>
<path d="M285.809 324.851C286.333 341.38 277.997 357.585 266.373 369.215C265.907 369.677 266.7 370.315 267.151 369.854C278.973 358.026 287.363 341.561 286.815 324.763C286.789 324.118 285.783 324.206 285.793 324.853L285.809 324.851Z" fill="#212553"/>
<path d="M299.355 283.051C299.355 283.051 309.871 299.307 325.228 291.205L324.886 280.621L324.659 273.641L324.493 268.748L306.073 260.816C304.79 269.509 302.736 276.929 299.372 283.064L299.355 283.051Z" fill="#FE957A"/>
<path d="M309.146 268.901C315.051 280.744 322.251 283.682 324.95 283.28L324.628 273.629L309.146 268.901Z" fill="#20101A"/>
<path d="M305.71 255.443C305.578 256.207 305.517 256.92 305.484 257.601C305.422 259.172 305.623 260.584 306.076 262.08C306.678 264.045 307.693 266.169 309.136 268.963C311.394 273.357 316.021 275.677 320.748 276.513C333.321 278.709 335.998 270.512 337.283 257.634C338.073 249.631 341.151 245.659 339.7 242.248C339.593 242.076 339.472 241.921 339.366 241.765C336.668 237.967 332.496 235.396 327.855 234.493C326.964 234.315 326.092 234.18 325.27 234.087C325.083 234.058 324.896 234.029 324.71 234.015C324.633 234.007 324.555 233.998 324.478 233.99C324.26 233.964 324.058 233.937 323.842 233.925C323.687 233.909 323.547 233.891 323.394 233.889C323.053 233.859 322.729 233.842 322.405 233.825C312.11 233.431 308.513 239.015 307.075 244.876C306.102 248.86 306.125 252.983 305.712 255.458L305.71 255.443Z" fill="#FE957A"/>
<path d="M309.191 244.842C309.191 244.842 312.527 246.447 313.088 248.821C313.649 251.196 313.995 253.92 315.942 252.832C317.889 251.728 319.242 248.057 318.886 244.52C318.531 240.984 321.023 236.987 325.68 238.251C330.337 239.514 330.45 244.668 333.599 244.317C336.748 243.966 338.741 242.347 339.998 243.02C339.998 243.02 339.025 248.93 338.143 252.545C338.143 252.545 339.038 252.934 340.84 248.606C342.223 245.279 341.559 239.27 341.559 239.27C341.559 239.27 348.209 232.23 343.796 229.726C339.369 227.223 335.457 227.279 326.785 225.599C318.112 223.904 306.925 226.132 302.202 233.425C296.6 242.074 301.17 267.808 304.977 266.903C305.415 266.82 306.534 257.132 309.194 244.872L309.191 244.842Z" fill="#20101A"/>
<path d="M309.656 259.629C307.867 259.379 306.497 258.641 305.484 257.601C305.422 259.172 305.623 260.584 306.076 262.08C307.423 261.676 308.66 260.89 309.656 259.629Z" fill="#20101A"/>
<path d="M326.669 254.122C326.48 254.77 325.918 255.196 325.43 255.058C324.927 254.921 324.671 254.281 324.86 253.633C325.049 252.984 325.611 252.558 326.099 252.696C326.602 252.833 326.858 253.473 326.669 254.122Z" fill="#20101A"/>
<path d="M334.857 255.708C334.668 256.357 334.106 256.783 333.618 256.645C333.114 256.508 332.858 255.868 333.047 255.219C333.236 254.57 333.798 254.145 334.286 254.283C334.79 254.42 335.046 255.059 334.857 255.708Z" fill="#20101A"/>
<path d="M319.113 256.589C319.002 257.261 319.988 257.988 321.311 258.188C322.634 258.389 323.799 258.016 323.924 257.327C324.034 256.655 323.048 255.929 321.725 255.728C320.402 255.528 319.237 255.901 319.113 256.589Z" fill="#FF7E6F"/>
<path d="M336.919 260.842C336.431 261.065 335.716 261.143 334.952 261.014C333.629 260.814 332.644 260.087 332.754 259.415C332.864 258.743 334.028 258.355 335.353 258.57C336.085 258.687 336.707 258.949 337.105 259.29L336.92 260.857L336.919 260.842Z" fill="#FF7E6F"/>
<path d="M326.654 250.269C325.927 249.851 324.794 249.724 324.284 250.567C323.975 251.076 323.388 251.383 322.796 251.119C322.285 250.892 321.932 250.186 322.239 249.662C323.323 247.836 325.68 247.208 327.571 248.277C328.089 248.578 328.385 249.154 328.128 249.734C327.896 250.236 327.172 250.57 326.64 250.285L326.654 250.269Z" fill="#20101A"/>
<path d="M335.752 252.604C335.235 251.776 334.597 251.335 333.562 251.441C332.129 251.566 331.894 249.404 333.325 249.264C335.093 249.109 336.647 249.831 337.561 251.332C338.296 252.532 336.49 253.834 335.754 252.619L335.752 252.604Z" fill="#20101A"/>
<path d="M328.309 259.352C328.12 259.293 327.995 259.093 328.038 258.879C328.08 258.664 328.314 258.524 328.532 258.565C329.314 258.722 329.923 258.654 330.312 258.544C329.431 257.071 329.611 254.918 329.617 254.812C329.643 254.584 329.845 254.43 330.061 254.442C330.294 254.466 330.464 254.662 330.437 254.875C330.439 254.905 330.233 257.287 331.273 258.46C331.358 258.558 331.384 258.676 331.364 258.799C331.344 258.921 331.26 259.018 331.159 259.088C331.114 259.106 330.029 259.698 328.354 259.333C328.339 259.334 328.323 259.336 328.307 259.322L328.309 259.352Z" fill="#20101A"/>
<path d="M332.787 263.838C332.787 263.838 329.894 263.067 324.188 261.579C324.188 261.579 323.546 267.762 327.78 268.401C331.376 268.944 332.787 263.838 332.787 263.838Z" fill="white"/>
<path d="M328.13 270.643C327.13 270.806 326.118 270.654 325.462 269.823C325.133 269.4 325.813 268.919 326.142 269.342C326.608 269.933 327.347 269.944 328.042 269.823C328.572 269.731 328.659 270.552 328.13 270.643Z" fill="#FF7E6F"/>
<path d="M314.173 257.187C315.176 255.308 315.164 253.066 314.288 251.125C313.147 248.621 310.929 244.69 308.191 244.644C304.16 244.575 303.119 247.948 302.94 251.516C302.745 255.086 304.332 260.05 309.371 260.061C311.89 260.066 313.355 258.719 314.188 257.186L314.173 257.187Z" fill="#FE957A"/>
<path d="M309.57 255.843C310.013 254.405 310.356 252.884 310.041 251.391C309.754 250.047 308.608 248.009 306.881 248.281C306.306 248.376 306.06 247.494 306.636 247.414C308.303 247.148 309.664 248.308 310.4 249.704C311.452 251.719 311.099 254.008 310.468 256.096C310.302 256.652 309.405 256.415 309.587 255.857L309.57 255.843Z" fill="#20101A"/>
<path d="M538.24 380.52C538.24 380.52 523.225 466.105 527.145 498.971C531.063 531.822 570.001 636.457 570.001 636.457L582.65 636.359C582.65 636.359 565.399 505.545 565.578 489.692C565.665 482.083 586.14 386.566 586.14 386.566L538.256 380.534L538.24 380.52Z" fill="#FE957A"/>
<path d="M540.155 367.993C540.155 367.993 528.839 418.962 526.858 453.383L573.562 459.623L589.966 380.435L540.153 367.978L540.155 367.993Z" fill="#212553"/>
<path d="M573.594 405.036C571.38 420.644 568.312 436.132 564.396 451.423C564.269 451.901 565.033 452.03 565.161 451.567C569.077 436.276 572.145 420.788 574.359 405.179C574.424 404.692 573.658 404.548 573.594 405.036Z" fill="#5E68C0"/>
<path d="M526.15 445.286L524.888 455.091L575.285 461.415L576.506 451.839L526.15 445.286Z" fill="#171C28"/>
<path d="M526.937 492.907C530.58 494.516 534.598 494.45 538.18 492.722C539.078 492.282 538.288 490.981 537.389 491.406C534.338 492.877 530.796 492.946 527.712 491.59C526.802 491.188 526.026 492.505 526.937 492.907Z" fill="#FF7E6F"/>
<path d="M574.544 397.47C572.384 432.645 585.681 467.174 593.782 496.739C595.81 504.118 639.006 634.424 639.006 634.424L650.241 631.514C650.241 631.514 647.737 515.818 632.615 485.363C625.625 471.297 617.797 382.351 617.797 382.351L574.546 397.485L574.544 397.47Z" fill="#FE957A"/>
<path d="M564.992 378.179L580.496 459.529C580.496 459.529 620.264 452.858 630.018 449.702C630.018 449.702 627.684 395.817 616.287 373.692C604.888 351.551 565.007 378.178 565.007 378.178L564.992 378.179Z" fill="#212553"/>
<path d="M609.482 376.846C613.15 394.198 615.884 411.753 617.658 429.391C618.157 434.391 618.578 439.382 618.924 444.395C618.968 444.888 619.73 444.821 619.702 444.327C618.477 426.64 616.289 409.008 613.149 391.549C612.256 386.614 611.288 381.686 610.258 376.763C610.155 376.29 609.376 376.343 609.481 376.831L609.482 376.846Z" fill="#5E68C0"/>
<path d="M577.757 450.691L579.635 460.402L631.679 450.956L630.955 441.28L577.757 450.691Z" fill="#171C28"/>
<path d="M594.612 498.156C598.368 499.469 602.374 499.088 605.807 497.071C606.67 496.574 605.762 495.329 604.915 495.825C602.007 497.524 598.474 497.879 595.275 496.774C594.34 496.449 593.662 497.833 594.612 498.156Z" fill="#FF7E6F"/>
<path d="M551.242 266.839L593.833 263.113C590.603 255.688 587.931 246.392 587.586 235.599C587.178 223.215 581.983 217.211 577.495 214.367C574.34 212.37 570.539 211.589 566.793 211.962C539.841 214.651 544.329 230.486 547.444 241.685C550.112 251.282 551.075 259.838 551.241 266.824L551.242 266.839Z" fill="#23141E"/>
<path d="M558.03 252.245C558.21 254.307 556.65 256.144 554.531 256.329C552.413 256.515 550.559 254.991 550.377 252.914C550.196 250.838 551.756 249.015 553.875 248.83C555.994 248.644 557.848 250.168 558.03 252.245Z" fill="white"/>
<path d="M598.53 337.339C598.53 337.339 600.368 349.221 602.193 358.666C602.193 358.666 574.4 378.44 543.162 358.652L547.543 342.191L598.516 337.355L598.53 337.339Z" fill="#FFBC00"/>
<path d="M608.748 311.576C604.756 322.659 600.781 334.282 600.78 342.351C600.784 345.723 593.781 347.495 584.832 348.097C568.692 349.193 546.159 346.558 546.785 342.83C547.821 336.582 548.23 330.901 548.235 325.692C548.258 304.012 541.286 290.863 544.166 282.347C545.507 278.36 552.194 274.027 558.004 270.914C562.889 268.289 567.158 266.515 567.158 266.515L583.119 264.261C583.119 264.261 607.486 273.269 613.039 280.039C619.108 287.427 614.128 296.699 608.763 311.575L608.748 311.576Z" fill="#823778"/>
<path d="M544.166 282.347C544.166 282.347 535.048 321.035 525.889 323.101C525.889 323.101 512.288 319.85 505.257 317.093C495.634 313.313 494.133 313.369 488.419 320.387C482.703 327.391 481.528 331.513 485.511 337.367C489.51 343.219 526.769 357.738 536.166 356.645C545.565 355.567 556.664 330.57 556.664 330.57L544.181 282.345L544.166 282.347Z" fill="#823778"/>
<path d="M503.573 316.804C505.711 327.199 498.196 337.16 487.47 338.339C486.861 338.393 486.78 337.467 487.388 337.398C497.643 336.275 504.644 326.766 502.613 316.888C502.484 316.297 503.445 316.213 503.573 316.804Z" fill="#DEADD7"/>
<path d="M494.586 320.119C494.586 320.119 494.389 315.59 491.545 313.099C488.7 310.608 487.109 307.872 484.871 306.171C482.632 304.455 483.37 308.154 484.181 310.04C484.991 311.926 485.869 314.062 484.335 314.437C482.784 314.799 469.695 311.082 467.61 311.836C465.526 312.59 467.448 313.837 467.448 313.837C467.448 313.837 464.504 313.026 463.56 314.177C462.617 315.329 464.307 316.385 464.307 316.385C464.307 316.385 462.314 315.912 462.131 317.328C461.948 318.744 472.672 323.346 472.264 324.119C471.855 324.893 467.011 320.439 465.596 321.647C464.166 322.856 467.948 324.647 470.714 326.423C473.481 328.198 476.995 329.215 480.355 328.816C483.713 328.401 489.566 329.455 491.63 326.188C493.694 322.922 494.588 320.149 494.588 320.149L494.586 320.119Z" fill="#FE957A"/>
<path d="M464.712 316.109C468.068 317.065 471.387 318.129 474.637 319.29C475.017 319.423 474.639 320.013 474.257 319.865C471.054 318.716 467.797 317.661 464.49 316.731C464.096 316.615 464.318 315.993 464.726 316.093L464.712 316.109Z" fill="#FF7E6F"/>
<path d="M468.219 314.056C470.779 314.524 473.195 315.276 475.481 316.296C475.833 316.461 475.467 317.019 475.115 316.855C472.878 315.861 470.494 315.121 467.996 314.662C467.606 314.591 467.814 313.986 468.219 314.056Z" fill="#FF7E6F"/>
<path d="M473.312 322.402C473.82 319.603 474.968 316.928 476.734 314.47C477.008 314.085 477.587 314.38 477.312 314.751C475.614 317.112 474.502 319.678 474.014 322.355C473.944 322.783 473.242 322.829 473.312 322.402Z" fill="#FF7E6F"/>
<path d="M478.584 318.403C482.951 317.403 486.892 318.91 488.817 322.309C489.018 322.668 488.374 323.041 488.174 322.682C486.394 319.541 482.752 318.113 478.699 319.025C478.247 319.125 478.132 318.502 478.582 318.388L478.584 318.403Z" fill="#FF7E6F"/>
<path d="M542.736 351.147C537.63 347.214 530.222 348.75 527.184 354.405C526.893 354.942 526.028 354.536 526.319 353.999C529.664 347.805 537.748 346.104 543.363 350.415C543.857 350.793 543.228 351.511 542.75 351.131L542.736 351.147Z" fill="#DEADD7"/>
<path d="M526.219 323.357C529.714 325.385 533.047 327.668 536.173 330.209C536.652 330.589 536.024 331.321 535.56 330.925C532.485 328.439 529.247 326.194 525.816 324.191C525.283 323.891 525.699 323.027 526.233 323.341L526.219 323.357Z" fill="#DEADD7"/>
<path d="M529.142 324.818C530.685 324.713 532.198 324.807 533.713 325.096C534.322 325.208 534.143 326.142 533.534 326.03C532.098 325.764 530.677 325.677 529.211 325.775C528.601 325.829 528.502 324.874 529.129 324.834L529.142 324.818Z" fill="#DEADD7"/>
<path d="M543.04 288.783C543.491 295.517 542.343 302.242 539.662 308.468C539.471 308.921 540.176 309.25 540.367 308.797C543.098 302.446 544.28 295.584 543.817 288.715C543.774 288.222 543.012 288.288 543.04 288.783Z" fill="#DEADD7"/>
<path d="M558.726 290.406C567.562 292.207 576.961 290.075 584.12 284.647C584.508 284.342 584.069 283.718 583.666 284.024C576.665 289.334 567.508 291.414 558.86 289.657C558.376 289.564 558.227 290.314 558.711 290.408L558.726 290.406Z" fill="#DEADD7"/>
<path d="M548.838 329.071C559.22 331.866 570.307 331.483 580.494 328.003C580.987 327.839 580.706 327.096 580.214 327.26C570.162 330.698 559.241 331.052 548.985 328.291C548.481 328.154 548.334 328.935 548.838 329.071Z" fill="#DEADD7"/>
<path d="M604.175 306.888C598.602 317.808 595.6 329.843 595.377 342.041C595.376 342.553 596.167 342.468 596.185 341.97C596.406 329.923 599.405 318.024 604.912 307.23C605.148 306.773 604.412 306.431 604.175 306.888Z" fill="#DEADD7"/>
<path d="M608.585 276.711C608.585 276.711 644.168 298.045 650.388 309.454C656.609 320.862 635.473 358.434 622.68 362.85C609.888 367.266 597.553 350.055 603.657 341.693C609.76 333.331 615.622 324.478 615.622 324.478C615.622 324.478 600.358 316.977 598.27 314.013C590.89 303.564 601.878 272.375 608.57 276.712L608.585 276.711Z" fill="#823778"/>
<path d="M606.836 338.359C612.673 336.072 619.586 336.958 624.502 340.833C629.418 344.708 631.72 351.176 630.683 357.228C630.581 357.824 629.631 357.666 629.731 357.055C630.718 351.309 628.511 345.224 623.874 341.55C619.221 337.878 612.684 337.08 607.159 339.234C606.58 339.465 606.256 338.575 606.82 338.345L606.836 338.359Z" fill="#DEADD7"/>
<path d="M645.832 304.072C642.993 309.905 644.994 316.79 650.618 320.152C651.137 320.468 650.72 321.317 650.2 321.001C644.137 317.362 641.881 310.002 644.951 303.667C645.211 303.117 646.091 303.522 645.816 304.073L645.832 304.072Z" fill="#DEADD7"/>
<path d="M605.493 319.313C602.448 317.17 599.099 315.582 595.507 314.556C594.923 314.381 595.089 313.464 595.686 313.622C599.451 314.693 602.93 316.361 606.12 318.58C606.626 318.927 605.999 319.66 605.507 319.296L605.493 319.313Z" fill="#DEADD7"/>
<path d="M615.555 324.062C618.179 319.648 621.591 315.811 625.709 312.666C626.199 312.292 626.757 313.056 626.268 313.43C622.294 316.472 618.98 320.195 616.435 324.467C616.127 324.991 615.247 324.586 615.57 324.061L615.555 324.062Z" fill="#DEADD7"/>
<path d="M617.66 320.386C617.822 317.858 618.283 315.394 619.054 312.978C619.235 312.405 620.185 312.563 620.006 313.151C619.235 315.567 618.759 318.032 618.612 320.559C618.572 321.164 617.636 320.99 617.66 320.386Z" fill="#DEADD7"/>
<path d="M544.957 291.385C544.957 291.385 546.273 296.945 540.216 305.137C532.91 315.035 545.861 324.018 548.721 326.688C551.597 329.357 544.942 291.386 544.942 291.386L544.957 291.385Z" fill="#823778"/>
<path d="M557.293 271.037C557.293 271.037 554.301 292.675 555.424 296.024C556.317 298.686 579.919 298.608 582.525 295.385C585.2 292.079 590.381 266.847 590.381 266.847C590.381 266.847 596.707 266.294 601.912 272.237C599.473 270.177 590.13 303.481 595.575 326.217C598.233 337.29 606.836 357.492 606.836 357.492C585.592 359.592 564.681 358.471 544.138 354.186C544.138 354.186 548.268 342.926 547.945 336.075C547.622 329.223 550.09 333.027 545.309 326.49C540.529 319.953 533.627 316.387 539.322 306.511C545.017 296.634 550.667 288.883 549.111 276.013C551.267 273.446 553.796 271.975 557.278 271.038L557.293 271.037Z" fill="#212553"/>
<path d="M588.096 278.654C591.403 278.004 594.735 278.871 597.261 281.059C597.643 281.387 598.145 280.801 597.763 280.473C595.103 278.162 591.518 277.211 588.03 277.907C587.548 278.01 587.599 278.773 588.097 278.669L588.096 278.654Z" fill="#5E68C0"/>
<path d="M549.552 281.755C551.547 280.858 553.623 280.706 555.718 281.306C556.191 281.445 556.341 280.694 555.868 280.555C553.662 279.92 551.388 280.089 549.29 281.04C548.832 281.246 549.109 281.959 549.567 281.754L549.552 281.755Z" fill="#5E68C0"/>
<path d="M546.76 309.187C559.175 311.337 571.905 311.292 584.305 309.063C584.789 308.976 584.738 308.213 584.239 308.302C571.899 310.525 559.247 310.578 546.894 308.438C546.395 308.346 546.262 309.11 546.745 309.188L546.76 309.187Z" fill="#5E68C0"/>
<path d="M584.113 308.795C585.141 314.229 585.686 319.752 585.694 325.291C585.691 326.661 585.672 328.017 585.606 329.378C585.54 330.724 585.442 332.238 584.311 333.18C583.294 334.021 581.846 334.148 580.572 334.335C579.147 334.55 577.718 334.72 576.288 334.875C570.505 335.501 564.669 335.681 558.853 335.392C556.554 335.277 554.079 335.252 551.903 334.434C549.171 333.409 548.064 331.112 547.704 328.404C546.847 322.111 546.936 315.585 547.414 309.281C547.448 308.796 546.683 308.652 546.648 309.137C546.168 315.411 546.128 321.797 546.875 328.055C547.147 330.289 547.734 332.601 549.613 334.063C551.326 335.388 553.572 335.779 555.692 335.954C562.038 336.513 568.494 336.385 574.831 335.785C577.604 335.528 580.746 335.448 583.401 334.539C585.547 333.794 586.218 331.974 586.359 329.899C586.833 322.858 586.203 315.657 584.892 308.741C584.804 308.267 584.025 308.32 584.114 308.809L584.113 308.795Z" fill="#5E68C0"/>
<path d="M590.307 299.536C590.457 301.254 589.161 302.767 587.408 302.921C585.655 303.074 584.116 301.809 583.966 300.091C583.815 298.373 585.111 296.859 586.864 296.706C588.617 296.552 590.157 297.818 590.307 299.536Z" fill="#5E68C0"/>
<path d="M553.04 298.973C553.19 300.691 551.894 302.204 550.141 302.357C548.388 302.511 546.849 301.245 546.698 299.527C546.548 297.809 547.844 296.296 549.597 296.142C551.35 295.989 552.889 297.254 553.04 298.973Z" fill="#5E68C0"/>
<path d="M584.441 266.719C584.441 266.719 575.166 276.759 563.703 270.566L563.775 264.372L563.861 257.621L563.908 252.89L576.777 242.506L584.439 266.704L584.441 266.719Z" fill="#FE957A"/>
<path d="M574.947 250.554C570.85 262.895 565.68 267.879 563.735 267.944L563.862 257.636L574.962 250.553L574.947 250.554Z" fill="#23141E"/>
<path d="M561.855 268.936C561.855 268.936 561.84 262.615 563.229 262.162C564.618 261.709 567.736 264.342 572.214 263.032C576.691 261.707 580.469 257.312 582.551 258.108C584.632 258.905 586.092 267.508 586.092 267.508C586.092 267.508 580.31 275.165 571.659 275.124C563.008 275.083 561.857 268.951 561.857 268.951L561.855 268.936Z" fill="#823778"/>
<path d="M562.279 272.377C566.756 274.213 571.733 274.741 576.506 273.812C580.144 273.087 584.696 271.575 585.894 267.707C586.038 267.242 585.273 267.099 585.129 267.563C583.93 271.416 578.687 272.763 575.136 273.254C570.887 273.852 566.568 273.296 562.617 271.67C562.155 271.485 561.816 272.177 562.278 272.362L562.279 272.377Z" fill="#CFB8A1"/>
<path d="M580.734 238.577C580.172 243.383 579.125 245.116 576.447 250.137C574.059 254.622 569.152 257.535 566.492 258.204C556.829 260.645 551.611 257.534 550.547 244.319C549.89 236.112 546.827 231.999 548.382 228.521C548.506 228.36 548.613 228.185 548.737 228.024C551.579 224.162 555.916 221.585 560.693 220.715C584.434 216.425 581.545 231.687 580.75 238.576L580.734 238.577Z" fill="#FE957A"/>
<path d="M561.519 235.772C562.428 235.271 563.746 235.246 564.31 236.25C564.853 237.181 566.423 236.517 565.879 235.571C564.865 233.808 562.633 233.235 560.815 234.223C559.862 234.742 560.536 236.294 561.502 235.758L561.519 235.772Z" fill="#23141E"/>
<path d="M551.888 238.406C552.425 237.516 553.084 236.269 554.306 236.373C555.405 236.472 555.628 234.797 554.528 234.698C552.576 234.507 551.423 235.903 550.51 237.398C549.945 238.32 551.31 239.345 551.888 238.406Z" fill="#23141E"/>
<path d="M558.468 244.966C557.858 245.019 556.639 244.779 556.429 243.608C556.228 242.542 557.079 241.911 557.717 241.644L557.991 240.22C558.034 240.006 558.237 239.868 558.456 239.909C558.674 239.95 558.814 240.148 558.772 240.363L558.456 242.016C558.423 242.17 558.31 242.285 558.16 242.328C558.115 242.332 557.067 242.649 557.215 243.464C557.36 244.235 558.368 244.177 558.414 244.173C558.643 244.153 558.826 244.317 558.846 244.541C558.864 244.75 558.697 244.946 558.483 244.964L558.468 244.966Z" fill="#23141E"/>
<path d="M568.752 241.898C568.859 242.596 567.832 243.319 566.466 243.513C565.101 243.708 563.913 243.3 563.806 242.602C563.699 241.904 564.726 241.182 566.092 240.987C567.457 240.792 568.645 241.2 568.752 241.898Z" fill="#FF7E6F"/>
<path d="M554.721 244.631C554.829 245.329 553.801 246.051 552.436 246.246C551.798 246.332 551.196 246.294 550.723 246.155C550.655 245.559 550.587 244.947 550.547 244.319C550.544 244.289 550.542 244.259 550.54 244.244C550.934 243.999 551.471 243.816 552.078 243.733C553.443 243.538 554.631 243.946 554.738 244.644L554.721 244.631Z" fill="#FF7E6F"/>
<path d="M559.822 243.417C558.993 242.541 558.506 241.365 558.456 240.089C558.406 238.814 558.807 237.605 559.554 236.666C560.331 235.71 561.389 235.166 562.538 235.126C564.894 235.025 566.889 237.109 566.983 239.765C567.033 241.04 566.632 242.249 565.885 243.188C565.108 244.144 564.05 244.688 562.902 244.728C562.795 244.738 562.688 244.747 562.579 244.727C561.546 244.681 560.569 244.225 559.807 243.418L559.822 243.417ZM566.263 239.783C566.174 237.532 564.529 235.764 562.585 235.844C561.651 235.881 560.785 236.333 560.146 237.111C559.494 237.906 559.156 238.959 559.206 240.054C559.24 241.15 559.667 242.166 560.362 242.918C561.057 243.655 561.95 244.029 562.883 243.992C563.817 243.956 564.684 243.504 565.322 242.725C565.975 241.931 566.313 240.877 566.263 239.783Z" fill="white"/>
<path d="M556.704 240.077C557.19 239.493 557.952 239.245 558.692 239.451C559.038 239.542 558.869 240.068 558.522 239.963C558.034 239.825 557.493 239.963 557.173 240.352C556.95 240.612 556.48 240.322 556.703 240.062L556.704 240.077Z" fill="white"/>
<path d="M552.859 236.861C551.71 236.901 550.653 237.46 549.875 238.401C549.113 239.341 548.727 240.549 548.777 241.824C548.827 243.099 549.314 244.276 550.128 245.153C550.89 245.96 551.867 246.416 552.9 246.461C553.007 246.452 553.116 246.473 553.223 246.463C554.371 246.423 555.428 245.864 556.206 244.923C556.387 244.711 556.535 244.472 556.668 244.235C556.561 244.064 556.468 243.876 556.43 243.624C556.278 242.764 556.781 242.193 557.321 241.86C557.31 241.74 557.33 241.618 557.318 241.483C557.311 241.394 557.303 241.304 557.295 241.215C557.074 238.69 555.139 236.767 552.858 236.846L552.859 236.861ZM556.569 241.519C556.603 242.615 556.281 243.667 555.628 244.461C554.991 245.255 554.124 245.707 553.191 245.744C552.257 245.78 551.363 245.392 550.67 244.669C549.959 243.919 549.547 242.901 549.513 241.805C549.478 240.709 549.801 239.657 550.453 238.863C551.091 238.069 551.957 237.617 552.891 237.58C554.835 237.501 556.495 239.267 556.569 241.519Z" fill="white"/>
<path d="M566.253 237.917C567.748 236.04 569.807 234.821 572.199 234.416C572.547 234.356 572.67 234.887 572.322 234.947C570.08 235.309 568.121 236.444 566.709 238.208C566.487 238.484 566.032 238.192 566.238 237.918L566.253 237.917Z" fill="white"/>
<path d="M563.54 238.681C562.496 238.682 561.587 239.364 561.257 240.326C561.014 241.055 559.873 240.658 560.116 239.929C560.616 238.44 562.036 237.473 563.62 237.485C564.404 237.492 564.307 238.674 563.539 238.666L563.54 238.681Z" fill="#23141E"/>
<path d="M552.684 240.655C553.525 240.431 554.384 240.777 554.861 241.488C555.215 242.014 556.042 241.46 555.688 240.934C554.964 239.853 553.619 239.399 552.373 239.734C551.759 239.908 552.085 240.828 552.699 240.653L552.684 240.655Z" fill="#23141E"/>
<path d="M559.191 253.408C560.221 253.589 561.252 253.438 561.946 252.595C562.293 252.173 561.603 251.662 561.258 252.098C560.772 252.698 560.02 252.703 559.302 252.57C558.757 252.483 558.645 253.305 559.191 253.408Z" fill="#FF7E6F"/>
<path d="M578.007 220.224C569.576 216.024 555.156 214.305 547.149 225.844C544.58 230.54 549.335 238.719 548.92 235.73C547.919 228.682 551.204 224.435 553.103 226.136C553.103 226.136 567.289 236.757 575.005 234.712C575.005 234.712 577.573 240.193 582.325 241.132C584.168 234.106 582.852 225.731 577.993 220.24L578.007 220.224Z" fill="#23141E"/>
<path d="M555.022 247.721C555.022 247.721 558.348 247.807 563.891 245.5C563.891 245.5 564.187 250.818 559.83 251.41C556.142 251.914 555.021 247.706 555.021 247.706L555.022 247.721Z" fill="white"/>
<path d="M571.928 243.607C571.097 242.009 571.145 240.108 571.923 238.459C572.935 236.339 574.872 233.023 577.205 232.999C580.628 232.971 581.462 235.833 581.574 238.865C581.685 241.896 580.255 246.085 575.968 246.069C573.817 246.062 572.594 244.904 571.911 243.594L571.928 243.607Z" fill="#FE957A"/>
<path d="M583.198 245.497C583.379 247.558 581.819 249.396 579.7 249.581C577.581 249.767 575.728 248.243 575.546 246.166C575.364 244.089 576.925 242.267 579.044 242.082C581.163 241.896 583.017 243.42 583.198 245.497Z" fill="white"/>
<path d="M576.276 242.399C575.911 241.211 575.602 239.959 575.861 238.702C576.086 237.583 577.027 235.875 578.458 236.081C578.94 236.144 579.137 235.419 578.656 235.356C577.271 235.161 576.143 236.133 575.554 237.298C574.688 238.985 575.007 240.884 575.541 242.598C575.688 243.052 576.424 242.852 576.275 242.384L576.276 242.399Z" fill="#23141E"/>
<path d="M616.91 386.252C610.395 408.529 548.754 399.395 540.747 392.147C532.725 384.901 545.063 351.591 545.063 351.591C545.063 351.591 569.003 360.997 598.345 352.258C598.629 352.173 598.929 352.087 599.212 351.987C599.99 351.753 600.781 351.488 601.557 351.225C601.557 351.225 602.026 351.665 602.801 352.455C603.004 352.664 603.224 352.9 603.461 353.15C608.369 358.336 620.75 373.09 616.908 386.237L616.91 386.252Z" fill="#212553"/>
<path d="M563.704 369.244C567.183 388.826 570.663 408.408 574.143 427.99C575.138 433.578 576.118 439.152 577.113 444.741C577.201 445.215 577.98 445.161 577.891 444.672C574.411 425.091 570.932 405.509 567.452 385.927C566.456 380.339 565.462 374.766 564.481 369.176C564.394 368.702 563.615 368.755 563.704 369.244Z" fill="#5E68C0"/>
<path d="M566.794 382.447C569.109 383.268 570.792 381.269 571.228 379.229C571.937 375.915 571.568 372.229 570.866 368.949C570.764 368.476 569.986 368.544 570.089 369.017C570.607 371.425 570.852 373.872 570.745 376.336C570.663 378.209 570.273 382.88 567.119 381.771C566.643 381.602 566.32 382.293 566.78 382.463L566.794 382.447Z" fill="#5E68C0"/>
<path d="M603.463 353.166C589.639 358.967 574.09 360.493 559.363 357.551C554.625 356.596 549.999 355.164 545.552 353.31C545.01 353.086 545.463 352.294 545.989 352.519C562.602 359.465 581.718 359.901 598.715 354.033C598.983 353.934 599.252 353.85 599.52 353.752C600.622 353.354 601.707 352.943 602.789 352.487C602.991 352.695 603.212 352.932 603.449 353.182L603.463 353.166Z" fill="#5E68C0"/>
<path d="M552.793 348.295C551.889 350.256 551.423 352.299 551.365 354.442C551.353 355.015 550.435 355.05 550.446 354.477C550.507 352.184 551.02 349.971 551.988 347.869C552.233 347.336 553.04 347.777 552.793 348.295Z" fill="#5E68C0"/>
<path d="M596.97 345.846C598.249 348.353 599.093 350.974 599.52 353.752C599.6 354.317 598.682 354.352 598.602 353.787C598.204 351.172 597.387 348.684 596.182 346.321C595.922 345.802 596.694 345.328 596.955 345.847L596.97 345.846Z" fill="#5E68C0"/>
<path d="M580.554 349.931C581.503 352.347 581.949 354.822 581.93 357.413C581.919 357.986 581.001 358.021 581.012 357.448C581.039 354.947 580.582 352.533 579.687 350.203C579.471 349.665 580.353 349.392 580.569 349.93L580.554 349.931Z" fill="#5E68C0"/>
<path d="M565.957 353.21C565.988 354.442 565.003 355.477 563.746 355.511C562.49 355.546 561.438 354.584 561.407 353.352C561.376 352.121 562.361 351.086 563.617 351.051C564.874 351.017 565.926 351.979 565.957 353.21Z" fill="#5E68C0"/>
<path d="M597.648 361.322C600.814 368.361 605.793 377.169 614.955 376.548C615.549 376.496 615.568 377.412 614.987 377.448C605.368 378.109 600.101 368.996 596.766 361.595C596.534 361.058 597.403 360.802 597.648 361.322Z" fill="#5E68C0"/>
<path d="M551.975 362.819C549.702 368.272 545.253 372.545 539.667 374.705C539.117 374.918 538.842 374.054 539.391 373.84C544.754 371.761 548.984 367.612 551.153 362.379C551.383 361.847 552.188 362.273 551.958 362.805L551.975 362.819Z" fill="#5E68C0"/>
<path d="M615.82 352.205C614.552 349.125 611.8 346.806 608.459 346.195C607.49 346.009 606.63 346.009 606.152 346.337C604.441 347.495 593.027 355.027 592.379 357.282C591.732 359.536 601.537 354.689 601.537 354.689C601.537 354.689 593.617 361.419 595.11 362.508C596.603 363.596 605.577 357.497 605.577 357.497C605.577 357.497 600.738 362.753 600.698 364.232C600.631 366.631 609.511 359.622 609.511 359.622C609.511 359.622 607.19 365.575 608.143 366.456C609.08 367.337 615.946 365.05 615.448 363.754C614.873 362.269 612.745 363.584 612.407 363.403C612.037 363.209 617.803 361.004 617.884 358.769C617.935 357.59 616.867 354.688 615.852 352.217L615.82 352.205Z" fill="#FE957A"/>
</g>
<defs>
<clipPath id="clip0_30_17">
<rect y="74.9539" width="860" height="580" rx="30" transform="rotate(-5 0 74.9539)" fill="white"/>
</clipPath>
</defs>
</svg>
